ISO-10303-21;
HEADER;
FILE_DESCRIPTION (( 'STEP AP214' ),
    '1' );
FILE_NAME ('Pieza2.STEP',
    '2026-03-05T10:08:04',
    ( '' ),
    ( '' ),
    'SwSTEP 2.0',
    'SolidWorks 2025',
    '' );
FILE_SCHEMA (( 'AUTOMOTIVE_DESIGN' ));
ENDSEC;

DATA;
#1 = PRODUCT_DEFINITION_SHAPE ( 'NONE', 'NONE',  #549 ) ;
#2 = ADVANCED_FACE ( 'NONE', ( #78, #620, #1156, #1048 ), #706, .T. ) ;
#3 = CARTESIAN_POINT ( 'NONE',  ( -47.62216001233899476, -68.02340073919124563, 0.000000000000000000 ) ) ;
#4 = CARTESIAN_POINT ( 'NONE',  ( -54.50216124145443786, -36.49558721367348113, 10.00000000000000000 ) ) ;
#5 = ORIENTED_EDGE ( 'NONE', *, *, #760, .T. ) ;
#6 = LINE ( 'NONE', #110, #94 ) ;
#7 = CARTESIAN_POINT ( 'NONE',  ( -45.00216095459069976, -36.67916012420442229, 0.000000000000000000 ) ) ;
#8 = DIRECTION ( 'NONE',  ( 0.6834995288746276154, 0.7299509531661438899, 0.000000000000000000 ) ) ;
#9 = ORIENTED_EDGE ( 'NONE', *, *, #334, .F. ) ;
#10 = EDGE_CURVE ( 'NONE', #1046, #729, #407, .T. ) ;
#11 = DIRECTION ( 'NONE',  ( 0.6834995288752038212, -0.7299509531656044325, 0.000000000000000000 ) ) ;
#12 = EDGE_CURVE ( 'NONE', #1046, #714, #57, .T. ) ;
#13 = FILL_AREA_STYLE_COLOUR ( '', #1073 ) ;
#14 = EDGE_CURVE ( 'NONE', #1096, #264, #614, .T. ) ;
#15 = DIRECTION ( 'NONE',  ( -1.000000000000000000, 0.000000000000000000, 0.000000000000000000 ) ) ;
#16 = PLANE ( 'NONE',  #214 ) ;
#17 = VERTEX_POINT ( 'NONE', #685 ) ;
#18 = ORIENTED_EDGE ( 'NONE', *, *, #1169, .T. ) ;
#19 = VECTOR ( 'NONE', #379, 1000.000000000000000 ) ;
#20 = LINE ( 'NONE', #716, #268 ) ;
#21 = VECTOR ( 'NONE', #1102, 1000.000000000000000 ) ;
#22 = CARTESIAN_POINT ( 'NONE',  ( -45.00216124145444496, -50.48403272200277314, 10.00000000000000000 ) ) ;
#23 = AXIS2_PLACEMENT_3D ( 'NONE', #993, #348, #8 ) ;
#24 = VECTOR ( 'NONE', #789, 1000.000000000000114 ) ;
#25 = ORIENTED_EDGE ( 'NONE', *, *, #197, .F. ) ;
#26 = CARTESIAN_POINT ( 'NONE',  ( -45.96908481956223369, -68.57562815859648708, 10.00000000000000000 ) ) ;
#27 = DIRECTION ( 'NONE',  ( -0.7299509531665820949, 0.6834995288741597674, 0.000000000000000000 ) ) ;
#28 = EDGE_CURVE ( 'NONE', #349, #339, #1135, .T. ) ;
#29 = ORIENTED_EDGE ( 'NONE', *, *, #1109, .F. ) ;
#30 = DIRECTION ( 'NONE',  ( -0.000000000000000000, 0.000000000000000000, 1.000000000000000000 ) ) ;
#31 = CARTESIAN_POINT ( 'NONE',  ( -45.00216095459069976, -19.53160517038779176, -0.005624131340004057122 ) ) ;
#32 = CARTESIAN_POINT ( 'NONE',  ( -43.50216095459069265, -19.53160517038779176, -0.005624131340004057122 ) ) ;
#33 = CARTESIAN_POINT ( 'NONE',  ( -45.00216095459069976, -19.53160517038779176, 10.00000000000000000 ) ) ;
#34 = EDGE_LOOP ( 'NONE', ( #922, #251, #916, #1150 ) ) ;
#35 = CARTESIAN_POINT ( 'NONE',  ( -51.24771153282866720, -57.15403788753953052, 0.000000000000000000 ) ) ;
#36 = DIRECTION ( 'NONE',  ( -0.000000000000000000, -0.000000000000000000, -1.000000000000000000 ) ) ;
#37 = VECTOR ( 'NONE', #1078, 1000.000000000000000 ) ;
#38 = CARTESIAN_POINT ( 'NONE',  ( -52.51498617377899336, -60.70202612761653427, 10.00000000000000000 ) ) ;
#39 = APPLICATION_PROTOCOL_DEFINITION ( 'draft international standard', 'automotive_design', 1998, #705 ) ;
#40 = VECTOR ( 'NONE', #412, 1000.000000000000000 ) ;
#41 = CARTESIAN_POINT ( 'NONE',  ( -52.35677132415870716, -57.58489535823112249, 10.00000000000000000 ) ) ;
#42 = DIRECTION ( 'NONE',  ( -0.000000000000000000, -0.000000000000000000, -1.000000000000000000 ) ) ;
#43 = CARTESIAN_POINT ( 'NONE',  ( -53.23707490554620847, -34.63550605782808134, 0.000000000000000000 ) ) ;
#44 = B_SPLINE_CURVE_WITH_KNOTS ( 'NONE', 2,
 ( #778, #136, #952, #141, #497 ),
 .UNSPECIFIED., .F., .F.,
 ( 3, 2, 3 ),
 ( 0.000000000000000000, 0.5000000000000000000, 1.000000000000000000 ),
 .UNSPECIFIED. ) ;
#45 = CARTESIAN_POINT ( 'NONE',  ( -45.00216095459069976, -72.53721824729350942, -0.005624131340004057122 ) ) ;
#46 = EDGE_CURVE ( 'NONE', #858, #402, #522, .T. ) ;
#47 = CARTESIAN_POINT ( 'NONE',  ( -54.15591867956047878, -56.69238442962453206, 0.000000000000000000 ) ) ;
#48 = ORIENTED_EDGE ( 'NONE', *, *, #449, .T. ) ;
#49 = CARTESIAN_POINT ( 'NONE',  ( -52.95779537570833639, -34.52507457585152650, 0.000000000000000000 ) ) ;
#50 = ADVANCED_FACE ( 'NONE', ( #886 ), #147, .F. ) ;
#51 = CARTESIAN_POINT ( 'NONE',  ( -53.05508426744659545, -62.06902518536573865, 10.00000000000000000 ) ) ;
#52 = CARTESIAN_POINT ( 'NONE',  ( -51.04225933512215363, -56.93462291911536965, 10.00000000000000000 ) ) ;
#53 = ORIENTED_EDGE ( 'NONE', *, *, #1146, .T. ) ;
#54 = CARTESIAN_POINT ( 'NONE',  ( -53.75180579101700573, -34.93405319235067452, 10.00000000000000000 ) ) ;
#55 = AXIS2_PLACEMENT_3D ( 'NONE', #587, #42, #228 ) ;
#56 = ORIENTED_EDGE ( 'NONE', *, *, #28, .F. ) ;
#57 = LINE ( 'NONE', #1061, #583 ) ;
#58 = CARTESIAN_POINT ( 'NONE',  ( -54.32536285939121257, -35.62011112578367289, 0.000000000000000000 ) ) ;
#59 = CARTESIAN_POINT ( 'NONE',  ( -45.65795527860523606, -55.03413856261418147, 0.000000000000000000 ) ) ;
#60 = VERTEX_POINT ( 'NONE', #431 ) ;
#61 = CARTESIAN_POINT ( 'NONE',  ( -51.05508398058121600, -29.99418478827272239, 10.00000000000000000 ) ) ;
#62 = EDGE_LOOP ( 'NONE', ( #783, #474, #794, #753 ) ) ;
#63 = VERTEX_POINT ( 'NONE', #69 ) ;
#64 = DIRECTION ( 'NONE',  ( -6.505933817398939072E-08, 0.9999999999999980016, 0.000000000000000000 ) ) ;
#65 = EDGE_CURVE ( 'NONE', #1148, #961, #231, .T. ) ;
#66 = CARTESIAN_POINT ( 'NONE',  ( -45.89832203415450351, -54.95907562502987531, 10.00000000000000000 ) ) ;
#67 = ORIENTED_EDGE ( 'NONE', *, *, #1089, .T. ) ;
#68 = LINE ( 'NONE', #689, #958 ) ;
#69 = CARTESIAN_POINT ( 'NONE',  ( -45.00216095459069976, -72.53721824729350942, 10.00000000000000000 ) ) ;
#70 = FACE_OUTER_BOUND ( 'NONE', #552, .T. ) ;
#71 = ORIENTED_EDGE ( 'NONE', *, *, #100, .F. ) ;
#72 = CARTESIAN_POINT ( 'NONE',  ( -43.50216095459069265, -72.53721824729350942, 10.00000000000000000 ) ) ;
#73 = ORIENTED_EDGE ( 'NONE', *, *, #639, .T. ) ;
#74 = DIRECTION ( 'NONE',  ( 1.000000000000000000, 1.309086623305272471E-16, -0.000000000000000000 ) ) ;
#75 = ORIENTED_EDGE ( 'NONE', *, *, #65, .F. ) ;
#76 = CARTESIAN_POINT ( 'NONE',  ( -46.69217661381258466, -23.51488846824869228, 0.000000000000000000 ) ) ;
#77 = VECTOR ( 'NONE', #91, 1000.000000000000000 ) ;
#78 = FACE_OUTER_BOUND ( 'NONE', #878, .T. ) ;
#79 = PLANE ( 'NONE',  #1111 ) ;
#80 = CARTESIAN_POINT ( 'NONE',  ( -45.00216095459069976, -19.53160517038779176, 10.00000000000000000 ) ) ;
#81 = DIRECTION ( 'NONE',  ( 0.000000000000000000, -1.000000000000000000, 0.000000000000000000 ) ) ;
#82 = ORIENTED_EDGE ( 'NONE', *, *, #165, .F. ) ;
#83 = CARTESIAN_POINT ( 'NONE',  ( -46.33063432792347669, -23.50113571648196853, 10.00000000000000000 ) ) ;
#84 = ORIENTED_EDGE ( 'NONE', *, *, #589, .F. ) ;
#85 = EDGE_CURVE ( 'NONE', #535, #224, #891, .T. ) ;
#86 = DIRECTION ( 'NONE',  ( -0.000000000000000000, -0.000000000000000000, -1.000000000000000000 ) ) ;
#87 = ORIENTED_EDGE ( 'NONE', *, *, #10, .F. ) ;
#88 = DIRECTION ( 'NONE',  ( -5.854340641084791195E-08, 0.9999999999999983347, 0.000000000000000000 ) ) ;
#89 = LINE ( 'NONE', #808, #37 ) ;
#90 = VECTOR ( 'NONE', #286, 1000.000000000000000 ) ;
#91 = DIRECTION ( 'NONE',  ( 0.6834995288752038212, -0.7299509531656044325, 0.000000000000000000 ) ) ;
#92 = ORIENTED_EDGE ( 'NONE', *, *, #1082, .T. ) ;
#93 = CARTESIAN_POINT ( 'NONE',  ( -54.04343354047411907, -56.85758075123419530, 10.00000000000000000 ) ) ;
#94 = VECTOR ( 'NONE', #804, 1000.000000000000000 ) ;
#95 = PRESENTATION_STYLE_ASSIGNMENT (( #901 ) ) ;
#96 = MANIFOLD_SOLID_BREP ( 'Saliente-Extruir2', #392 ) ;
#97 = CARTESIAN_POINT ( 'NONE',  ( -45.00216095459069976, -19.53160517038779176, -0.005624131340004057122 ) ) ;
#98 = CARTESIAN_POINT ( 'NONE',  ( -54.35494514982717362, -35.71612053192927050, 10.00000000000000000 ) ) ;
#99 = ORIENTED_EDGE ( 'NONE', *, *, #885, .F. ) ;
#100 = EDGE_CURVE ( 'NONE', #415, #383, #1091, .T. ) ;
#101 = CARTESIAN_POINT ( 'NONE',  ( -52.42208303832934746, -28.53428288193960682, 10.00000000000000000 ) ) ;
#102 = CARTESIAN_POINT ( 'NONE',  ( -52.65728977927880550, -57.56159856951877174, 0.000000000000000000 ) ) ;
#103 = CARTESIAN_POINT ( 'NONE',  ( -45.96908481956223369, -68.57562815859648708, 0.000000000000000000 ) ) ;
#104 = CARTESIAN_POINT ( 'NONE',  ( -54.50216124145443786, -55.56762386136612974, 10.00000000000000000 ) ) ;
#105 = EDGE_LOOP ( 'NONE', ( #528, #87, #310, #1063 ) ) ;
#106 = CARTESIAN_POINT ( 'NONE',  ( -51.68248497127703445, -57.40297323714598576, 10.00000000000000000 ) ) ;
#107 = CARTESIAN_POINT ( 'NONE',  ( -45.00216095459069976, -72.53721824729350942, -0.005624131340004057122 ) ) ;
#108 = VERTEX_POINT ( 'NONE', #712 ) ;
#109 = VECTOR ( 'NONE', #114, 1000.000000000000000 ) ;
#110 = CARTESIAN_POINT ( 'NONE',  ( -47.62216001233900187, -68.02340073919128827, 10.00000000000000000 ) ) ;
#111 = CARTESIAN_POINT ( 'NONE',  ( -52.51498617377899336, -60.70202612761653427, 10.00000000000000000 ) ) ;
#112 = EDGE_LOOP ( 'NONE', ( #825, #586, #983, #1131 ) ) ;
#113 = CARTESIAN_POINT ( 'NONE',  ( -54.50216124145443786, -55.56762386136612974, 10.00000000000000000 ) ) ;
#114 = DIRECTION ( 'NONE',  ( -0.000000000000000000, -0.000000000000000000, -1.000000000000000000 ) ) ;
#115 = CARTESIAN_POINT ( 'NONE',  ( -46.33063432792347669, -23.50113571648196853, 0.000000000000000000 ) ) ;
#116 = CARTESIAN_POINT ( 'NONE',  ( -43.50216095459069265, -19.53160517038779176, 10.00000000000000000 ) ) ;
#117 = ORIENTED_EDGE ( 'NONE', *, *, #1092, .F. ) ;
#118 = CARTESIAN_POINT ( 'NONE',  ( -52.95671152489575917, -57.53838679990973048, 10.00000000000000000 ) ) ;
#119 = CARTESIAN_POINT ( 'NONE',  ( -52.95779537570833639, -34.52507457585152650, 10.00000000000000000 ) ) ;
#120 = ORIENTED_EDGE ( 'NONE', *, *, #934, .F. ) ;
#121 = CARTESIAN_POINT ( 'NONE',  ( -51.05508426744635386, -62.06902518536578128, 0.000000000000000000 ) ) ;
#122 = ORIENTED_EDGE ( 'NONE', *, *, #267, .T. ) ;
#123 = ORIENTED_EDGE ( 'NONE', *, *, #293, .F. ) ;
#124 = CARTESIAN_POINT ( 'NONE',  ( -52.06377274170472447, -57.51898634006842315, 0.000000000000000000 ) ) ;
#125 = CARTESIAN_POINT ( 'NONE',  ( -54.15591867956070615, -35.37082664541542698, 0.000000000000000000 ) ) ;
#126 = EDGE_CURVE ( 'NONE', #264, #665, #976, .T. ) ;
#127 = CARTESIAN_POINT ( 'NONE',  ( -46.57058410971261964, -68.55314265114874672, 10.00000000000000000 ) ) ;
#128 = DIRECTION ( 'NONE',  ( 0.000000000000000000, 0.000000000000000000, 1.000000000000000000 ) ) ;
#129 = CIRCLE ( 'NONE', #330, 2.000000000000036415 ) ;
#130 = CARTESIAN_POINT ( 'NONE',  ( -53.98633741890185433, -56.94157567799228303, 0.000000000000000000 ) ) ;
#131 = ORIENTED_EDGE ( 'NONE', *, *, #602, .T. ) ;
#132 = ADVANCED_FACE ( 'NONE', ( #1067 ), #504, .F. ) ;
#133 = DIRECTION ( 'NONE',  ( -0.7299509531665803186, 0.6834995288741616548, 0.000000000000000000 ) ) ;
#134 = EDGE_CURVE ( 'NONE', #638, #272, #959, .T. ) ;
#135 = LINE ( 'NONE', #32, #1049 ) ;
#136 = CARTESIAN_POINT ( 'NONE',  ( -52.77505138103877158, -31.08344399792761337, 0.000000000000000000 ) ) ;
#137 = LINE ( 'NONE', #492, #234 ) ;
#138 = EDGE_LOOP ( 'NONE', ( #237, #25, #426, #525 ) ) ;
#139 = CARTESIAN_POINT ( 'NONE',  ( -53.98709286788205475, -35.12245190171422848, 10.00000000000000000 ) ) ;
#140 = CARTESIAN_POINT ( 'NONE',  ( -45.00216095459069976, -72.53160517038779176, 0.000000000000000000 ) ) ;
#141 = CARTESIAN_POINT ( 'NONE',  ( -53.05508398058105257, -30.37524583433051717, 0.000000000000000000 ) ) ;
#142 = DIRECTION ( 'NONE',  ( -0.000000000000000000, -0.000000000000000000, -1.000000000000000000 ) ) ;
#143 = ORIENTED_EDGE ( 'NONE', *, *, #126, .F. ) ;
#144 = CARTESIAN_POINT ( 'NONE',  ( -52.51498588691242730, -31.36118384602297482, 0.000000000000000000 ) ) ;
#145 = AXIS2_PLACEMENT_3D ( 'NONE', #818, #189, #15 ) ;
#146 = ADVANCED_FACE ( 'NONE', ( #605 ), #790, .T. ) ;
#147 = CYLINDRICAL_SURFACE ( 'NONE', #308, 2.000000000000036415 ) ;
#148 = DIRECTION ( 'NONE',  ( 0.6834995288740575159, -0.7299509531666777962, 0.000000000000000000 ) ) ;
#149 = ORIENTED_EDGE ( 'NONE', *, *, #576, .F. ) ;
#150 = CARTESIAN_POINT ( 'NONE',  ( -52.77505138103877158, -31.08344399792761337, 10.00000000000000000 ) ) ;
#151 = DIRECTION ( 'NONE',  ( -0.000000000000000000, -0.000000000000000000, -1.000000000000000000 ) ) ;
#152 = CARTESIAN_POINT ( 'NONE',  ( -51.04225933512323365, -35.12858815592307593, 10.00000000000000000 ) ) ;
#153 = ORIENTED_EDGE ( 'NONE', *, *, #796, .F. ) ;
#154 = CARTESIAN_POINT ( 'NONE',  ( -47.02504648734146997, -23.65383036869621236, 10.00000000000000000 ) ) ;
#155 = ORIENTED_EDGE ( 'NONE', *, *, #293, .T. ) ;
#156 = CARTESIAN_POINT ( 'NONE',  ( -43.50216095459069265, -19.53160517038779176, -0.005624131340004057122 ) ) ;
#157 = ORIENTED_EDGE ( 'NONE', *, *, #764, .F. ) ;
#158 = PLANE ( 'NONE',  #978 ) ;
#159 = VECTOR ( 'NONE', #1085, 1000.000000000000000 ) ;
#160 = DIRECTION ( 'NONE',  ( 0.7299509531665798745, 0.6834995288741619879, 0.000000000000000000 ) ) ;
#161 = LINE ( 'NONE', #728, #1034 ) ;
#162 = ORIENTED_EDGE ( 'NONE', *, *, #372, .T. ) ;
#163 = LINE ( 'NONE', #501, #771 ) ;
#164 = AXIS2_PLACEMENT_3D ( 'NONE', #1079, #819, #434 ) ;
#165 = EDGE_CURVE ( 'NONE', #961, #806, #977, .T. ) ;
#166 = ORIENTED_EDGE ( 'NONE', *, *, #555, .F. ) ;
#167 = DIRECTION ( 'NONE',  ( 0.000000000000000000, 1.000000000000000000, 0.000000000000000000 ) ) ;
#168 = DIRECTION ( 'NONE',  ( -1.000000000000000000, 0.000000000000000000, 0.000000000000000000 ) ) ;
#169 = FACE_OUTER_BOUND ( 'NONE', #190, .T. ) ;
#170 = EDGE_LOOP ( 'NONE', ( #1144, #603, #851, #435, #612, #651, #963, #131, #468, #645, #943, #558, #371, #1107, #1168, #325, #777, #149 ) ) ;
#171 = LINE ( 'NONE', #182, #582 ) ;
#172 = CARTESIAN_POINT ( 'NONE',  ( -45.00216095459069265, -68.12234167291609310, 10.00000000000000000 ) ) ;
#173 = CARTESIAN_POINT ( 'NONE',  ( -54.04361282999808225, -35.20550838464571086, 10.00000000000000000 ) ) ;
#174 = VERTEX_POINT ( 'NONE', #178 ) ;
#175 = CARTESIAN_POINT ( 'NONE',  ( -53.90791508528682385, -57.00436758085017885, 10.00000000000000000 ) ) ;
#176 = CARTESIAN_POINT ( 'NONE',  ( -52.35677132415870716, -57.58489535823112249, 0.000000000000000000 ) ) ;
#177 = EDGE_CURVE ( 'NONE', #108, #224, #1074, .T. ) ;
#178 = CARTESIAN_POINT ( 'NONE',  ( -43.50216095459069265, -72.53721824729350942, -0.005624131340004057122 ) ) ;
#179 = VECTOR ( 'NONE', #375, 1000.000000000000000 ) ;
#180 = LINE ( 'NONE', #1001, #77 ) ;
#181 = EDGE_LOOP ( 'NONE', ( #598, #157, #123, #417 ) ) ;
#182 = CARTESIAN_POINT ( 'NONE',  ( -47.71506286092305515, -55.57589443428125264, 10.00000000000000000 ) ) ;
#183 = CARTESIAN_POINT ( 'NONE',  ( -53.98709286788205475, -35.12245190171422848, 0.000000000000000000 ) ) ;
#184 = VECTOR ( 'NONE', #200, 1000.000000000000000 ) ;
#185 = CARTESIAN_POINT ( 'NONE',  ( -46.57057403472852286, -23.51032651611589230, 10.00000000000000000 ) ) ;
#186 = DIRECTION ( 'NONE',  ( -1.000000000000000000, 0.000000000000000000, 0.000000000000000000 ) ) ;
#187 = VERTEX_POINT ( 'NONE', #111 ) ;
#188 = CARTESIAN_POINT ( 'NONE',  ( -51.05508426744635386, -62.06902518536578128, 10.00000000000000000 ) ) ;
#189 = DIRECTION ( 'NONE',  ( -0.000000000000000000, -0.000000000000000000, -1.000000000000000000 ) ) ;
#190 = EDGE_LOOP ( 'NONE', ( #240, #562, #889, #784 ) ) ;
#191 = DIRECTION ( 'NONE',  ( -0.000000000000000000, -0.000000000000000000, -1.000000000000000000 ) ) ;
#192 = DIRECTION ( 'NONE',  ( 0.000000000000000000, -0.000000000000000000, 1.000000000000000000 ) ) ;
#193 = ORIENTED_EDGE ( 'NONE', *, *, #971, .F. ) ;
#194 = VECTOR ( 'NONE', #340, 1000.000000000000000 ) ;
#195 = CARTESIAN_POINT ( 'NONE',  ( -51.24771153282866720, -57.15403788753953052, 10.00000000000000000 ) ) ;
#196 = LINE ( 'NONE', #655, #109 ) ;
#197 = EDGE_CURVE ( 'NONE', #694, #493, #910, .T. ) ;
#198 = CARTESIAN_POINT ( 'NONE',  ( -47.62215972547526377, -24.03980923444895623, 0.000000000000000000 ) ) ;
#199 = ORIENTED_EDGE ( 'NONE', *, *, #932, .F. ) ;
#200 = DIRECTION ( 'NONE',  ( -0.000000000000000000, -0.000000000000000000, -1.000000000000000000 ) ) ;
#201 = PLANE ( 'NONE',  #717 ) ;
#202 = CARTESIAN_POINT ( 'NONE',  ( -47.24705288749676413, -68.31692532489208247, 10.00000000000000000 ) ) ;
#203 = DIRECTION ( 'NONE',  ( 1.000000000000000000, 0.000000000000000000, 0.000000000000000000 ) ) ;
#204 = ORIENTED_EDGE ( 'NONE', *, *, #460, .T. ) ;
#205 = CARTESIAN_POINT ( 'NONE',  ( -47.35825534075254239, -68.27051147713129353, 0.000000000000000000 ) ) ;
#206 = CARTESIAN_POINT ( 'NONE',  ( -52.51498617377899336, -60.70202612761653427, 10.00000000000000000 ) ) ;
#207 = LINE ( 'NONE', #770, #1068 ) ;
#208 = CARTESIAN_POINT ( 'NONE',  ( 0.000000000000000000, 0.000000000000000000, 0.000000000000000000 ) ) ;
#209 = EDGE_CURVE ( 'NONE', #820, #893, #1149, .T. ) ;
#210 = EDGE_CURVE ( 'NONE', #415, #63, #270, .T. ) ;
#211 = CARTESIAN_POINT ( 'NONE',  ( -53.51641513045377252, -57.31742715567217061, 0.000000000000000000 ) ) ;
#212 = CARTESIAN_POINT ( 'NONE',  ( -53.23707490554620847, -34.63550605782808134, 10.00000000000000000 ) ) ;
#213 = CARTESIAN_POINT ( 'NONE',  ( -52.42208303832934746, -28.53428288193960682, 0.000000000000000000 ) ) ;
#214 = AXIS2_PLACEMENT_3D ( 'NONE', #254, #805, #1086 ) ;
#215 = CARTESIAN_POINT ( 'NONE',  ( -54.41364167245708217, -56.15604765583233160, 0.000000000000000000 ) ) ;
#216 = ORIENTED_EDGE ( 'NONE', *, *, #565, .T. ) ;
#217 = CARTESIAN_POINT ( 'NONE',  ( -51.04225933512323365, -35.12858815592307593, 10.00000000000000000 ) ) ;
#218 = CARTESIAN_POINT ( 'NONE',  ( -47.71506257405836493, -36.48731553934891991, 10.00000000000000000 ) ) ;
#219 = CARTESIAN_POINT ( 'NONE',  ( -53.75180579101655098, -57.12915788268932715, 0.000000000000000000 ) ) ;
#220 = CARTESIAN_POINT ( 'NONE',  ( -51.05508426744655281, -62.06902518536573865, 0.000000000000000000 ) ) ;
#221 = ORIENTED_EDGE ( 'NONE', *, *, #715, .F. ) ;
#222 = DIRECTION ( 'NONE',  ( 1.000000000000000000, 0.000000000000000000, 0.000000000000000000 ) ) ;
#223 = ADVANCED_FACE ( 'NONE', ( #352 ), #915, .F. ) ;
#224 = VERTEX_POINT ( 'NONE', #7 ) ;
#225 = CARTESIAN_POINT ( 'NONE',  ( -54.32488107180591896, -56.44410257768338113, 0.000000000000000000 ) ) ;
#226 = CARTESIAN_POINT ( 'NONE',  ( -46.39623933320920912, -54.94787547429568519, 0.000000000000000000 ) ) ;
#227 = ORIENTED_EDGE ( 'NONE', *, *, #704, .T. ) ;
#228 = DIRECTION ( 'NONE',  ( 1.000000000000000000, 0.000000000000000000, 0.000000000000000000 ) ) ;
#229 = DIRECTION ( 'NONE',  ( -0.6834995288746276154, -0.7299509531661438899, 0.000000000000000000 ) ) ;
#230 = VECTOR ( 'NONE', #951, 1000.000000000000000 ) ;
#231 = LINE ( 'NONE', #420, #24 ) ;
#232 = CARTESIAN_POINT ( 'NONE',  ( -46.01949622550935715, -54.92112983264667747, 0.000000000000000000 ) ) ;
#233 = ORIENTED_EDGE ( 'NONE', *, *, #1092, .T. ) ;
#234 = VECTOR ( 'NONE', #1039, 1000.000000000000114 ) ;
#235 = CARTESIAN_POINT ( 'NONE',  ( -47.35866962563528659, -23.79308668641697722, 0.000000000000000000 ) ) ;
#236 = EDGE_CURVE ( 'NONE', #60, #820, #556, .T. ) ;
#237 = ORIENTED_EDGE ( 'NONE', *, *, #257, .T. ) ;
#238 = VERTEX_POINT ( 'NONE', #107 ) ;
#239 = DIRECTION ( 'NONE',  ( -1.309086623305272471E-16, 1.000000000000000000, -0.000000000000000000 ) ) ;
#240 = ORIENTED_EDGE ( 'NONE', *, *, #801, .T. ) ;
#241 = CARTESIAN_POINT ( 'NONE',  ( -45.62668373366825136, -23.60102297698160356, 0.000000000000000000 ) ) ;
#242 = CARTESIAN_POINT ( 'NONE',  ( -52.42208303832934746, -28.53428288193960682, 0.000000000000000000 ) ) ;
#243 = EDGE_CURVE ( 'NONE', #747, #238, #463, .T. ) ;
#244 = DIRECTION ( 'NONE',  ( 0.7299509531666777962, 0.6834995288740575159, 0.000000000000000000 ) ) ;
#245 = EDGE_LOOP ( 'NONE', ( #1051, #73, #204, #708 ) ) ;
#246 = EDGE_CURVE ( 'NONE', #531, #514, #333, .T. ) ;
#247 = CARTESIAN_POINT ( 'NONE',  ( -46.39623933320920912, -54.94787547429568519, 0.000000000000000000 ) ) ;
#248 = VECTOR ( 'NONE', #421, 1000.000000000000114 ) ;
#249 = VERTEX_POINT ( 'NONE', #22 ) ;
#250 = FACE_OUTER_BOUND ( 'NONE', #773, .T. ) ;
#251 = ORIENTED_EDGE ( 'NONE', *, *, #813, .F. ) ;
#252 = LINE ( 'NONE', #735, #546 ) ;
#253 = CARTESIAN_POINT ( 'NONE',  ( -45.19016267614771465, -23.78975203005350281, 10.00000000000000000 ) ) ;
#254 = CARTESIAN_POINT ( 'NONE',  ( -51.04225933512323365, -35.12858815592307593, 10.00000000000000000 ) ) ;
#255 = ORIENTED_EDGE ( 'NONE', *, *, #754, .F. ) ;
#256 = CARTESIAN_POINT ( 'NONE',  ( -46.25516035094678102, -35.12031664950765730, 10.00000000000000000 ) ) ;
#257 = EDGE_CURVE ( 'NONE', #893, #493, #369, .T. ) ;
#258 = CARTESIAN_POINT ( 'NONE',  ( -45.00216095459069265, -68.12234167291609310, 10.00000000000000000 ) ) ;
#259 = CARTESIAN_POINT ( 'NONE',  ( -54.50216124145443786, -55.56762386136612974, 10.00000000000000000 ) ) ;
#260 = ORIENTED_EDGE ( 'NONE', *, *, #895, .F. ) ;
#261 = DIRECTION ( 'NONE',  ( -0.000000000000000000, -0.000000000000000000, -1.000000000000000000 ) ) ;
#262 = CARTESIAN_POINT ( 'NONE',  ( -53.05508398058105257, -29.99418478827275791, 10.00000000000000000 ) ) ;
#263 = CARTESIAN_POINT ( 'NONE',  ( -53.05508398058105257, -29.99418478827275791, 0.000000000000000000 ) ) ;
#264 = VERTEX_POINT ( 'NONE', #649 ) ;
#265 = CARTESIAN_POINT ( 'NONE',  ( -53.05116018353444218, -57.50104291554038127, 10.00000000000000000 ) ) ;
#266 = VECTOR ( 'NONE', #376, 1000.000000000000000 ) ;
#267 = EDGE_CURVE ( 'NONE', #747, #272, #718, .T. ) ;
#268 = VECTOR ( 'NONE', #536, 1000.000000000000000 ) ;
#269 = CARTESIAN_POINT ( 'NONE',  ( -45.00216095459069976, -72.53160517038779176, 10.00000000000000000 ) ) ;
#270 = LINE ( 'NONE', #644, #656 ) ;
#271 = CARTESIAN_POINT ( 'NONE',  ( -45.00216095459070687, -55.38405065197243715, 10.00000000000000000 ) ) ;
#272 = VERTEX_POINT ( 'NONE', #533 ) ;
#273 = DIRECTION ( 'NONE',  ( -0.6834995288741620989, 0.7299509531665799855, 0.000000000000000000 ) ) ;
#274 = SURFACE_STYLE_FILL_AREA ( #540 ) ;
#275 = DIRECTION ( 'NONE',  ( -0.000000000000000000, -0.000000000000000000, -1.000000000000000000 ) ) ;
#276 = CARTESIAN_POINT ( 'NONE',  ( -56.00216095459069265, -62.23160517038778750, 0.000000000000000000 ) ) ;
#277 = ORIENTED_EDGE ( 'NONE', *, *, #246, .T. ) ;
#278 = CARTESIAN_POINT ( 'NONE',  ( -51.76970097623870259, -57.45283591309742377, 0.000000000000000000 ) ) ;
#279 = EDGE_CURVE ( 'NONE', #174, #580, #89, .T. ) ;
#280 = DIRECTION ( 'NONE',  ( -0.7299509531666777962, -0.6834995288740575159, 0.000000000000000000 ) ) ;
#281 = APPLICATION_CONTEXT ( 'automotive_design' ) ;
#282 = CARTESIAN_POINT ( 'NONE',  ( -45.00216095459069976, -72.53721824729350942, -0.005624131340004057122 ) ) ;
#283 = LINE ( 'NONE', #664, #1017 ) ;
#284 = ORIENTED_EDGE ( 'NONE', *, *, #46, .F. ) ;
#285 = CARTESIAN_POINT ( 'NONE',  ( -46.69108518216074089, -68.54856156394679090, 10.00000000000000000 ) ) ;
#286 = DIRECTION ( 'NONE',  ( -0.000000000000000000, -0.000000000000000000, -1.000000000000000000 ) ) ;
#287 =( GEOMETRIC_REPRESENTATION_CONTEXT ( 3 ) GLOBAL_UNCERTAINTY_ASSIGNED_CONTEXT ( ( #1151 ) ) GLOBAL_UNIT_ASSIGNED_CONTEXT ( ( #289, #296, #829 ) ) REPRESENTATION_CONTEXT ( 'NONE', 'WORKASPACE' ) );
#288 = LINE ( 'NONE', #38, #600 ) ;
#289 =( LENGTH_UNIT ( ) NAMED_UNIT ( * ) SI_UNIT ( .MILLI., .METRE. ) );
#290 = ORIENTED_EDGE ( 'NONE', *, *, #257, .F. ) ;
#291 = FACE_OUTER_BOUND ( 'NONE', #181, .T. ) ;
#292 = CARTESIAN_POINT ( 'NONE',  ( -54.41364167245714611, -35.90716341920752086, 10.00000000000000000 ) ) ;
#293 = EDGE_CURVE ( 'NONE', #60, #440, #926, .T. ) ;
#294 = EDGE_CURVE ( 'NONE', #580, #1096, #135, .T. ) ;
#295 = CARTESIAN_POINT ( 'NONE',  ( -46.80304066091368043, -68.50183388499590365, 10.00000000000000000 ) ) ;
#296 =( NAMED_UNIT ( * ) PLANE_ANGLE_UNIT ( ) SI_UNIT ( $, .RADIAN. ) );
#297 = CARTESIAN_POINT ( 'NONE',  ( -52.95671152489575917, -57.53838679990973048, 0.000000000000000000 ) ) ;
#298 = CARTESIAN_POINT ( 'NONE',  ( -51.50906166518308282, -34.75957072999322861, 0.000000000000000000 ) ) ;
#299 = LINE ( 'NONE', #939, #822 ) ;
#300 = B_SPLINE_SURFACE_WITH_KNOTS ( 'NONE', 2, 1, ( 
 ( #955, #144 ),
 ( #150, #507 ),
 ( #1098, #817 ),
 ( #453, #1170 ),
 ( #351, #1003 ) ),
 .UNSPECIFIED., .F., .F., .F.,
 ( 3, 2, 3 ),
 ( 2, 2 ),
 ( 0.000000000000000000, 0.5000000000000000000, 1.000000000000000000 ),
 ( 0.000000000000000000, 1.000000000000000000 ),
 .UNSPECIFIED. ) ;
#301 = CARTESIAN_POINT ( 'NONE',  ( -54.32488107180591896, -56.44410257768338113, 0.000000000000000000 ) ) ;
#302 = ORIENTED_EDGE ( 'NONE', *, *, #674, .F. ) ;
#303 = DIRECTION ( 'NONE',  ( -0.7299509531661808603, 0.6834995288745882025, 0.000000000000000000 ) ) ;
#304 = VECTOR ( 'NONE', #856, 1000.000000000000000 ) ;
#305 = CARTESIAN_POINT ( 'NONE',  ( -51.77073795360646358, -34.60997259395232817, 0.000000000000000000 ) ) ;
#306 = DIRECTION ( 'NONE',  ( -0.6834995288751100073, 0.7299509531656922512, 0.000000000000000000 ) ) ;
#307 = VECTOR ( 'NONE', #1113, 1000.000000000000000 ) ;
#308 = AXIS2_PLACEMENT_3D ( 'NONE', #502, #868, #698 ) ;
#309 = CARTESIAN_POINT ( 'NONE',  ( -47.71506286092305515, -55.57589443428125264, 0.000000000000000000 ) ) ;
#310 = ORIENTED_EDGE ( 'NONE', *, *, #811, .F. ) ;
#311 = CARTESIAN_POINT ( 'NONE',  ( -51.24771153282866720, -57.15403788753953052, 0.000000000000000000 ) ) ;
#312 = CARTESIAN_POINT ( 'NONE',  ( -53.05508426744658834, -62.06902518536573865, 10.00000000000000000 ) ) ;
#313 = CARTESIAN_POINT ( 'NONE',  ( -51.05508426744635386, -62.06902518536578128, 10.00000000000000000 ) ) ;
#314 = CARTESIAN_POINT ( 'NONE',  ( -54.50216124145443786, -36.49558721367348113, 0.000000000000000000 ) ) ;
#315 = CARTESIAN_POINT ( 'NONE',  ( -54.50216124145443786, -55.56762386136612974, 0.000000000000000000 ) ) ;
#316 = ORIENTED_EDGE ( 'NONE', *, *, #934, .T. ) ;
#317 = CARTESIAN_POINT ( 'NONE',  ( -45.00216095459070687, -55.38405065197243715, 0.000000000000000000 ) ) ;
#318 = ORIENTED_EDGE ( 'NONE', *, *, #895, .T. ) ;
#319 = ORIENTED_EDGE ( 'NONE', *, *, #885, .T. ) ;
#320 = PRODUCT_DEFINITION_CONTEXT ( 'detailed design', #705, 'design' ) ;
#321 = CARTESIAN_POINT ( 'NONE',  ( -54.50216124145443786, -36.49558721367348113, 10.00000000000000000 ) ) ;
#322 = EDGE_LOOP ( 'NONE', ( #912, #702, #397, #345, #788, #1002 ) ) ;
#323 = EDGE_CURVE ( 'NONE', #665, #413, #299, .T. ) ;
#324 = DIRECTION ( 'NONE',  ( -0.6834995288741597674, -0.7299509531665820949, 0.000000000000000000 ) ) ;
#325 = ORIENTED_EDGE ( 'NONE', *, *, #85, .T. ) ;
#326 = VERTEX_POINT ( 'NONE', #218 ) ;
#327 = EDGE_CURVE ( 'NONE', #1080, #419, #207, .T. ) ;
#328 = CARTESIAN_POINT ( 'NONE',  ( -47.54296603664209897, -55.39210170932119581, 9.999999999999998224 ) ) ;
#329 = EDGE_LOOP ( 'NONE', ( #233, #593, #406, #1006 ) ) ;
#330 = AXIS2_PLACEMENT_3D ( 'NONE', #220, #881, #592 ) ;
#331 = PRODUCT_RELATED_PRODUCT_CATEGORY ( 'part', '', ( #336 ) ) ;
#332 = CARTESIAN_POINT ( 'NONE',  ( -47.02504648734146997, -23.65383036869621236, 0.000000000000000000 ) ) ;
#333 = B_SPLINE_CURVE_WITH_KNOTS ( 'NONE', 3,
 ( #1160, #722, #727, #823, #828, #262 ),
 .UNSPECIFIED., .F., .F.,
 ( 4, 2, 4 ),
 ( 0.000000000000000000, 0.5000000000000000000, 1.000000000000000000 ),
 .UNSPECIFIED. ) ;
#334 = EDGE_CURVE ( 'NONE', #1158, #428, #933, .T. ) ;
#335 = ORIENTED_EDGE ( 'NONE', *, *, #386, .T. ) ;
#336 = PRODUCT ( 'Pieza2', 'Pieza2', '', ( #766 ) ) ;
#337 = ADVANCED_FACE ( 'NONE', ( #1123 ), #672, .F. ) ;
#338 = CARTESIAN_POINT ( 'NONE',  ( -47.45672994022562818, -55.30000490732314233, 10.00000000000000000 ) ) ;
#339 = VERTEX_POINT ( 'NONE', #1037 ) ;
#340 = DIRECTION ( 'NONE',  ( 0.000000000000000000, -1.000000000000000000, 0.000000000000000000 ) ) ;
#341 = ORIENTED_EDGE ( 'NONE', *, *, #1121, .F. ) ;
#342 = DIRECTION ( 'NONE',  ( 1.000000000000000000, 0.000000000000000000, -0.000000000000000000 ) ) ;
#343 = CARTESIAN_POINT ( 'NONE',  ( -45.00216124145443786, -41.57917835302662724, 10.00000000000000000 ) ) ;
#344 = PLANE ( 'NONE',  #904 ) ;
#345 = ORIENTED_EDGE ( 'NONE', *, *, #12, .T. ) ;
#346 = DIRECTION ( 'NONE',  ( 1.000000000000000000, 0.000000000000000000, 0.000000000000000000 ) ) ;
#347 = VECTOR ( 'NONE', #27, 1000.000000000000000 ) ;
#348 = DIRECTION ( 'NONE',  ( 0.7299509531661440009, -0.6834995288746277264, 0.000000000000000000 ) ) ;
#349 = VERTEX_POINT ( 'NONE', #213 ) ;
#350 = EDGE_CURVE ( 'NONE', #249, #800, #490, .T. ) ;
#351 = CARTESIAN_POINT ( 'NONE',  ( -53.05508398058105257, -29.99418478827275791, 10.00000000000000000 ) ) ;
#352 = FACE_OUTER_BOUND ( 'NONE', #245, .T. ) ;
#353 = CARTESIAN_POINT ( 'NONE',  ( -51.86875249922389486, -34.58792640781716443, 10.00000000000000000 ) ) ;
#354 = EDGE_LOOP ( 'NONE', ( #318, #1066, #980, #688 ) ) ;
#355 = CARTESIAN_POINT ( 'NONE',  ( -45.00216095459069976, -50.48403241564343347, 0.000000000000000000 ) ) ;
#356 = B_SPLINE_CURVE_WITH_KNOTS ( 'NONE', 2,
 ( #1052, #1140, #981, #594, #247, #1154, #974, #793, #317 ),
 .UNSPECIFIED., .F., .F.,
 ( 3, 2, 2, 2, 3 ),
 ( 0.000000000000000000, 0.2500000000000000000, 0.5000000000000000000, 0.7500000000000000000, 1.000000000000000000 ),
 .UNSPECIFIED. ) ;
#357 =( NAMED_UNIT ( * ) PLANE_ANGLE_UNIT ( ) SI_UNIT ( $, .RADIAN. ) );
#358 = DIRECTION ( 'NONE',  ( 0.000000000000000000, -1.000000000000000000, 0.000000000000000000 ) ) ;
#359 = CARTESIAN_POINT ( 'NONE',  ( -52.85653601993632122, -34.51722233483591395, 10.00000000000000000 ) ) ;
#360 = ORIENTED_EDGE ( 'NONE', *, *, #602, .F. ) ;
#361 = LINE ( 'NONE', #554, #368 ) ;
#362 = EDGE_CURVE ( 'NONE', #464, #249, #853, .T. ) ;
#363 = VECTOR ( 'NONE', #280, 1000.000000000000114 ) ;
#364 = DIRECTION ( 'NONE',  ( 0.000000000000000000, -1.000000000000000000, 0.000000000000000000 ) ) ;
#365 = CARTESIAN_POINT ( 'NONE',  ( -51.33520883026765347, -34.85889924989812272, 10.00000000000000000 ) ) ;
#366 = ORIENTED_EDGE ( 'NONE', *, *, #971, .T. ) ;
#367 = CARTESIAN_POINT ( 'NONE',  ( -52.25874545698865603, -57.56289956682778097, 10.00000000000000000 ) ) ;
#368 = VECTOR ( 'NONE', #623, 1000.000000000000000 ) ;
#369 = LINE ( 'NONE', #3, #347 ) ;
#370 = DIRECTION ( 'NONE',  ( 0.7299509531665803186, -0.6834995288741616548, 0.000000000000000000 ) ) ;
#371 = ORIENTED_EDGE ( 'NONE', *, *, #350, .F. ) ;
#372 = EDGE_CURVE ( 'NONE', #238, #174, #590, .T. ) ;
#373 = CARTESIAN_POINT ( 'NONE',  ( -47.02504677420521517, -68.40937960494399306, 0.000000000000000000 ) ) ;
#374 = CARTESIAN_POINT ( 'NONE',  ( -53.75180579101700573, -34.93405319235067452, 0.000000000000000000 ) ) ;
#375 = DIRECTION ( 'NONE',  ( -0.6834995288751100073, 0.7299509531656922512, 0.000000000000000000 ) ) ;
#376 = DIRECTION ( 'NONE',  ( -0.000000000000000000, -0.000000000000000000, -1.000000000000000000 ) ) ;
#377 = VERTEX_POINT ( 'NONE', #51 ) ;
#378 = CARTESIAN_POINT ( 'NONE',  ( 0.000000000000000000, 0.000000000000000000, -0.005624131340004057122 ) ) ;
#379 = DIRECTION ( 'NONE',  ( -1.000000000000000000, -0.000000000000000000, -0.000000000000000000 ) ) ;
#380 = CARTESIAN_POINT ( 'NONE',  ( -45.28395077018111436, -23.71436503220867564, 0.000000000000000000 ) ) ;
#381 = CARTESIAN_POINT ( 'NONE',  ( -52.42208303832934746, -28.53428288193960682, 10.00000000000000000 ) ) ;
#382 = ORIENTED_EDGE ( 'NONE', *, *, #1008, .T. ) ;
#383 = VERTEX_POINT ( 'NONE', #140 ) ;
#384 = AXIS2_PLACEMENT_3D ( 'NONE', #511, #433, #168 ) ;
#385 = CARTESIAN_POINT ( 'NONE',  ( -52.51498588691242730, -31.36118384602298192, 10.00000000000000000 ) ) ;
#386 = EDGE_CURVE ( 'NONE', #326, #531, #496, .T. ) ;
#387 = CARTESIAN_POINT ( 'NONE',  ( -56.00216095459069265, -62.23160517038778750, 10.00000000000000000 ) ) ;
#388 = EDGE_CURVE ( 'NONE', #238, #63, #744, .T. ) ;
#389 = AXIS2_PLACEMENT_3D ( 'NONE', #646, #261, #458 ) ;
#390 = CARTESIAN_POINT ( 'NONE',  ( -47.44609063354135259, -68.18826570297451894, 10.00000000000000000 ) ) ;
#391 = SHAPE_DEFINITION_REPRESENTATION ( #1, #775 ) ;
#392 = CLOSED_SHELL ( 'NONE', ( #223, #438, #874, #969, #847, #997, #538, #1020, #132, #1071, #690, #749, #779, #671, #884, #1097, #515, #844, #634, #50, #2, #337, #673, #146, #956, #987, #831 ) ) ;
#393 = CARTESIAN_POINT ( 'NONE',  ( -46.33063461478721479, -68.56207425715830084, 10.00000000000000000 ) ) ;
#394 = FACE_OUTER_BOUND ( 'NONE', #985, .T. ) ;
#395 = CARTESIAN_POINT ( 'NONE',  ( -45.00216124145444496, -50.48403272200277314, 10.00000000000000000 ) ) ;
#396 = CARTESIAN_POINT ( 'NONE',  ( -54.32488107180591896, -56.44410257768338113, 10.00000000000000000 ) ) ;
#397 = ORIENTED_EDGE ( 'NONE', *, *, #811, .T. ) ;
#398 = CARTESIAN_POINT ( 'NONE',  ( -51.04225933512323365, -35.12858815592307593, 0.000000000000000000 ) ) ;
#399 = CARTESIAN_POINT ( 'NONE',  ( -46.09068511986181704, -68.57100586316782653, 10.00000000000000000 ) ) ;
#400 = CARTESIAN_POINT ( 'NONE',  ( -54.50216124145443786, -36.19499856799447457, 0.000000000000000000 ) ) ;
#401 = PLANE ( 'NONE',  #736 ) ;
#402 = VERTEX_POINT ( 'NONE', #1021 ) ;
#403 = DIRECTION ( 'NONE',  ( -0.6834995288745882025, -0.7299509531661808603, 0.000000000000000000 ) ) ;
#404 = VECTOR ( 'NONE', #541, 1000.000000000000000 ) ;
#405 = CARTESIAN_POINT ( 'NONE',  ( -53.75180579101700573, -34.93405319235067452, 0.000000000000000000 ) ) ;
#406 = ORIENTED_EDGE ( 'NONE', *, *, #654, .F. ) ;
#407 = LINE ( 'NONE', #710, #1055 ) ;
#408 = PRODUCT_DEFINITION_FORMATION_WITH_SPECIFIED_SOURCE ( 'ANY', '', #336, .NOT_KNOWN. ) ;
#409 = CARTESIAN_POINT ( 'NONE',  ( -54.50216124145443786, -55.86877495439987484, 0.000000000000000000 ) ) ;
#410 = VECTOR ( 'NONE', #739, 1000.000000000000114 ) ;
#411 = EDGE_CURVE ( 'NONE', #339, #638, #1141, .T. ) ;
#412 = DIRECTION ( 'NONE',  ( 0.000000000000000000, -1.000000000000000000, 0.000000000000000000 ) ) ;
#413 = VERTEX_POINT ( 'NONE', #752 ) ;
#414 = CARTESIAN_POINT ( 'NONE',  ( -45.00216095459069976, -72.53160517038779176, 0.000000000000000000 ) ) ;
#415 = VERTEX_POINT ( 'NONE', #840 ) ;
#416 = CARTESIAN_POINT ( 'NONE',  ( -54.50216124145443786, -55.86877495439987484, 0.000000000000000000 ) ) ;
#417 = ORIENTED_EDGE ( 'NONE', *, *, #236, .T. ) ;
#418 = CARTESIAN_POINT ( 'NONE',  ( -47.62215972547526377, -24.03980923444895623, 0.000000000000000000 ) ) ;
#419 = VERTEX_POINT ( 'NONE', #1112 ) ;
#420 = CARTESIAN_POINT ( 'NONE',  ( -52.42208303832934746, -28.53428288193960682, 10.00000000000000000 ) ) ;
#421 = DIRECTION ( 'NONE',  ( -0.7299509531666777962, -0.6834995288740575159, 0.000000000000000000 ) ) ;
#422 = DIRECTION ( 'NONE',  ( -0.000000000000000000, -0.000000000000000000, -1.000000000000000000 ) ) ;
#423 = ORIENTED_EDGE ( 'NONE', *, *, #909, .F. ) ;
#424 = CARTESIAN_POINT ( 'NONE',  ( -47.35866962563528659, -23.79308668641697722, 10.00000000000000000 ) ) ;
#425 = EDGE_CURVE ( 'NONE', #187, #17, #288, .T. ) ;
#426 = ORIENTED_EDGE ( 'NONE', *, *, #449, .F. ) ;
#427 = CARTESIAN_POINT ( 'NONE',  ( -46.77407967942439626, -54.97469901079533372, 0.000000000000000000 ) ) ;
#428 = VERTEX_POINT ( 'NONE', #1117 ) ;
#429 = AXIS2_PLACEMENT_3D ( 'NONE', #870, #422, #791 ) ;
#430 = CARTESIAN_POINT ( 'NONE',  ( -45.28395077018111436, -23.71436503220867564, 10.00000000000000000 ) ) ;
#431 = CARTESIAN_POINT ( 'NONE',  ( -45.00216095459069265, -68.12234167291609310, 10.00000000000000000 ) ) ;
#432 = CARTESIAN_POINT ( 'NONE',  ( -51.76970097623870259, -57.45283591309742377, 0.000000000000000000 ) ) ;
#433 = DIRECTION ( 'NONE',  ( -0.000000000000000000, -0.000000000000000000, -1.000000000000000000 ) ) ;
#434 = DIRECTION ( 'NONE',  ( 1.000000000000000000, 0.000000000000000000, 0.000000000000000000 ) ) ;
#435 = ORIENTED_EDGE ( 'NONE', *, *, #243, .T. ) ;
#436 = DIRECTION ( 'NONE',  ( -1.000000000000000000, 0.000000000000000000, 0.000000000000000000 ) ) ;
#437 = SURFACE_SIDE_STYLE ('',( #274 ) ) ;
#438 = ADVANCED_FACE ( 'NONE', ( #1027 ), #79, .F. ) ;
#439 = CARTESIAN_POINT ( 'NONE',  ( -54.50216124145443786, -36.49558721367348113, 0.000000000000000000 ) ) ;
#440 = VERTEX_POINT ( 'NONE', #1132 ) ;
#441 = CARTESIAN_POINT ( 'NONE',  ( -52.42208332519494007, -63.52892709169888263, 10.00000000000000000 ) ) ;
#442 = VECTOR ( 'NONE', #608, 1000.000000000000000 ) ;
#443 = CARTESIAN_POINT ( 'NONE',  ( -45.85503043587503669, -23.52557569849056307, 10.00000000000000000 ) ) ;
#444 = CARTESIAN_POINT ( 'NONE',  ( -51.68291450009853349, -34.66024221008835582, 10.00000000000000000 ) ) ;
#445 = ORIENTED_EDGE ( 'NONE', *, *, #639, .F. ) ;
#446 = VECTOR ( 'NONE', #86, 1000.000000000000000 ) ;
#447 = CARTESIAN_POINT ( 'NONE',  ( -54.26840381864683849, -56.52718810801488303, 10.00000000000000000 ) ) ;
#448 = CIRCLE ( 'NONE', #604, 2.000000116468350519 ) ;
#449 = EDGE_CURVE ( 'NONE', #440, #694, #843, .T. ) ;
#450 = DIRECTION ( 'NONE',  ( 0.000000000000000000, 1.000000000000000000, 0.000000000000000000 ) ) ;
#451 = CARTESIAN_POINT ( 'NONE',  ( -53.90777960702737204, -35.05901278545541544, 10.00000000000000000 ) ) ;
#452 = ORIENTED_EDGE ( 'NONE', *, *, #28, .T. ) ;
#453 = CARTESIAN_POINT ( 'NONE',  ( -53.05508398058105257, -30.37524583433051717, 10.00000000000000000 ) ) ;
#454 = CARTESIAN_POINT ( 'NONE',  ( -46.33063461478721479, -68.56207425715830084, 0.000000000000000000 ) ) ;
#455 = CARTESIAN_POINT ( 'NONE',  ( -54.26822452912333006, -35.53614490618513599, 10.00000000000000000 ) ) ;
#456 = ORIENTED_EDGE ( 'NONE', *, *, #323, .T. ) ;
#457 = ORIENTED_EDGE ( 'NONE', *, *, #674, .T. ) ;
#458 = DIRECTION ( 'NONE',  ( -1.000000000000000000, 0.000000000000000000, 0.000000000000000000 ) ) ;
#459 = ORIENTED_EDGE ( 'NONE', *, *, #1147, .F. ) ;
#460 = EDGE_CURVE ( 'NONE', #543, #1134, #521, .T. ) ;
#461 = EDGE_CURVE ( 'NONE', #514, #970, #1025, .T. ) ;
#462 = VECTOR ( 'NONE', #865, 1000.000000000000000 ) ;
#463 = LINE ( 'NONE', #97, #539 ) ;
#464 = VERTEX_POINT ( 'NONE', #343 ) ;
#465 = CARTESIAN_POINT ( 'NONE',  ( -54.35462862645885451, -56.34738093437343309, 10.00000000000000000 ) ) ;
#466 = CARTESIAN_POINT ( 'NONE',  ( -47.62216001233900187, -68.02340073919128827, 0.000000000000000000 ) ) ;
#467 = DIRECTION ( 'NONE',  ( 1.000000000000000000, 0.000000000000000000, -0.000000000000000000 ) ) ;
#468 = ORIENTED_EDGE ( 'NONE', *, *, #236, .F. ) ;
#469 = CARTESIAN_POINT ( 'NONE',  ( -45.28350838881303986, -68.34848912410328126, 10.00000000000000000 ) ) ;
#470 = LINE ( 'NONE', #1019, #90 ) ;
#471 = CARTESIAN_POINT ( 'NONE',  ( -45.97019124704024762, -23.48742477751052959, 0.000000000000000000 ) ) ;
#472 = FACE_OUTER_BOUND ( 'NONE', #479, .T. ) ;
#473 = EDGE_CURVE ( 'NONE', #572, #729, #731, .T. ) ;
#474 = ORIENTED_EDGE ( 'NONE', *, *, #461, .F. ) ;
#475 = CARTESIAN_POINT ( 'NONE',  ( -53.23707490554548372, -57.42770501721182796, 0.000000000000000000 ) ) ;
#476 = CARTESIAN_POINT ( 'NONE',  ( -51.24809596533224720, -34.90876262851602974, 0.000000000000000000 ) ) ;
#477 = CARTESIAN_POINT ( 'NONE',  ( -47.35866962563528659, -23.79308668641697722, 0.000000000000000000 ) ) ;
#478 = DIRECTION ( 'NONE',  ( -0.000000000000000000, -0.000000000000000000, -1.000000000000000000 ) ) ;
#479 = EDGE_LOOP ( 'NONE', ( #319, #1163, #1114, #836 ) ) ;
#480 =( GEOMETRIC_REPRESENTATION_CONTEXT ( 3 ) GLOBAL_UNCERTAINTY_ASSIGNED_CONTEXT ( ( #700 ) ) GLOBAL_UNIT_ASSIGNED_CONTEXT ( ( #648, #357, #1084 ) ) REPRESENTATION_CONTEXT ( 'NONE', 'WORKASPACE' ) );
#481 = PLANE ( 'NONE',  #526 ) ;
#482 = CARTESIAN_POINT ( 'NONE',  ( -51.50906166518308282, -34.75957072999322861, 0.000000000000000000 ) ) ;
#483 = AXIS2_PLACEMENT_3D ( 'NONE', #1167, #81, #637 ) ;
#484 = DIRECTION ( 'NONE',  ( 1.000000000000000000, 0.000000000000000000, -0.000000000000000000 ) ) ;
#485 = DIRECTION ( 'NONE',  ( 1.000000000000000000, 0.000000000000000000, 0.000000000000000000 ) ) ;
#486 = CARTESIAN_POINT ( 'NONE',  ( -51.50906166518188201, -57.30364034504572857, 0.000000000000000000 ) ) ;
#487 = ORIENTED_EDGE ( 'NONE', *, *, #294, .F. ) ;
#488 = B_SPLINE_CURVE_WITH_KNOTS ( 'NONE', 3,
 ( #4, #989, #905, #98, #455, #173, #451, #888, #815, #979, #359, #530, #723, #353, #444, #365, #551, #1162 ),
 .UNSPECIFIED., .F., .F.,
 ( 4, 2, 2, 2, 2, 2, 2, 2, 4 ),
 ( 0.000000000000000000, 0.1250000000000000000, 0.2500000000000000000, 0.3750000000000000000, 0.5000000000000000000, 0.6250000000000000000, 0.7500000000000000000, 0.8750000000000000000, 1.000000000000000000 ),
 .UNSPECIFIED. ) ;
#489 = CARTESIAN_POINT ( 'NONE',  ( -45.00216124145443786, -41.57917835302662724, 0.000000000000000000 ) ) ;
#490 = LINE ( 'NONE', #395, #560 ) ;
#491 = CARTESIAN_POINT ( 'NONE',  ( -53.98633741890185433, -56.94157567799228303, 0.000000000000000000 ) ) ;
#492 = CARTESIAN_POINT ( 'NONE',  ( -52.51498617377899336, -60.70202612761653427, 0.000000000000000000 ) ) ;
#493 = VERTEX_POINT ( 'NONE', #596 ) ;
#494 = CARTESIAN_POINT ( 'NONE',  ( -51.04225933512323365, -35.12858815592307593, 0.000000000000000000 ) ) ;
#495 = EDGE_CURVE ( 'NONE', #428, #970, #44, .T. ) ;
#496 = LINE ( 'NONE', #860, #179 ) ;
#497 = CARTESIAN_POINT ( 'NONE',  ( -53.05508398058105257, -29.99418478827275791, 0.000000000000000000 ) ) ;
#498 = CARTESIAN_POINT ( 'NONE',  ( -47.34199453628764331, -55.24540330219438289, 10.00000000000000178 ) ) ;
#499 = ORIENTED_EDGE ( 'NONE', *, *, #919, .F. ) ;
#500 = VECTOR ( 'NONE', #64, 999.9999999999998863 ) ;
#501 = CARTESIAN_POINT ( 'NONE',  ( -45.00216124145444496, -50.48403272200277314, 10.00000000000000000 ) ) ;
#502 = CARTESIAN_POINT ( 'NONE',  ( -51.05508426744655281, -62.06902518536573865, 10.00000000000000000 ) ) ;
#503 = AXIS2_PLACEMENT_3D ( 'NONE', #571, #824, #203 ) ;
#504 = CYLINDRICAL_SURFACE ( 'NONE', #384, 2.000000116468350519 ) ;
#505 = CARTESIAN_POINT ( 'NONE',  ( -47.62216001233900187, -68.02340073919128827, 0.000000000000000000 ) ) ;
#506 = ORIENTED_EDGE ( 'NONE', *, *, #327, .F. ) ;
#507 = CARTESIAN_POINT ( 'NONE',  ( -52.77505138103877158, -31.08344399792761337, 0.000000000000000000 ) ) ;
#508 = B_SPLINE_SURFACE_WITH_KNOTS ( 'NONE', 2, 1, ( 
 ( #826, #1108 ),
 ( #469, #568 ),
 ( #1018, #1028 ),
 ( #26, #666 ),
 ( #393, #842 ),
 ( #285, #761 ),
 ( #1120, #373 ),
 ( #832, #205 ),
 ( #1115, #675 ) ),
 .UNSPECIFIED., .F., .F., .F.,
 ( 3, 2, 2, 2, 3 ),
 ( 2, 2 ),
 ( 0.000000000000000000, 0.2500000000000000000, 0.5000000000000000000, 0.7500000000000000000, 1.000000000000000000 ),
 ( 0.000000000000000000, 1.000000000000000000 ),
 .UNSPECIFIED. ) ;
#509 = EDGE_CURVE ( 'NONE', #1087, #402, #998, .T. ) ;
#510 = CARTESIAN_POINT ( 'NONE',  ( -51.04225933512323365, -35.12858815592307593, 10.00000000000000000 ) ) ;
#511 = CARTESIAN_POINT ( 'NONE',  ( -46.25516035094678102, -35.12031664950765730, 10.00000000000000000 ) ) ;
#512 = EDGE_CURVE ( 'NONE', #187, #1134, #945, .T. ) ;
#513 = CARTESIAN_POINT ( 'NONE',  ( -45.00216095459070687, -55.38405065197243715, 10.00000000000000000 ) ) ;
#514 = VERTEX_POINT ( 'NONE', #670 ) ;
#515 = ADVANCED_FACE ( 'NONE', ( #394 ), #201, .F. ) ;
#516 = CARTESIAN_POINT ( 'NONE',  ( -46.33063432792347669, -23.50113571648196853, 0.000000000000000000 ) ) ;
#517 = ORIENTED_EDGE ( 'NONE', *, *, #294, .T. ) ;
#518 = CARTESIAN_POINT ( 'NONE',  ( -46.14543360235516190, -54.93000370482297967, 10.00000000000000000 ) ) ;
#519 = ORIENTED_EDGE ( 'NONE', *, *, #509, .T. ) ;
#520 = CARTESIAN_POINT ( 'NONE',  ( -45.00216066772695456, -23.94086830072414074, 0.000000000000000000 ) ) ;
#521 = CIRCLE ( 'NONE', #55, 2.000000000000036415 ) ;
#522 = LINE ( 'NONE', #510, #776 ) ;
#523 = AXIS2_PLACEMENT_3D ( 'NONE', #1106, #467, #759 ) ;
#524 = FACE_OUTER_BOUND ( 'NONE', #329, .T. ) ;
#525 = ORIENTED_EDGE ( 'NONE', *, *, #764, .T. ) ;
#526 = AXIS2_PLACEMENT_3D ( 'NONE', #378, #30, #669 ) ;
#527 = CARTESIAN_POINT ( 'NONE',  ( -47.62215972547526377, -24.03980923444895623, 10.00000000000000000 ) ) ;
#528 = ORIENTED_EDGE ( 'NONE', *, *, #473, .T. ) ;
#529 = CARTESIAN_POINT ( 'NONE',  ( -45.00216095459069976, -19.53160517038779176, 10.00000000000000000 ) ) ;
#530 = CARTESIAN_POINT ( 'NONE',  ( -52.45804353862323666, -34.48600267620595616, 10.00000000000000000 ) ) ;
#531 = VERTEX_POINT ( 'NONE', #757 ) ;
#532 = CARTESIAN_POINT ( 'NONE',  ( -54.50216124145443786, -36.49558721367348113, 10.00000000000000000 ) ) ;
#533 = CARTESIAN_POINT ( 'NONE',  ( -45.00216095459069976, -19.53160517038779176, 0.000000000000000000 ) ) ;
#534 = PLANE ( 'NONE',  #483 ) ;
#535 = VERTEX_POINT ( 'NONE', #489 ) ;
#536 = DIRECTION ( 'NONE',  ( -0.000000000000000000, -0.000000000000000000, -1.000000000000000000 ) ) ;
#537 = CARTESIAN_POINT ( 'NONE',  ( -53.51737736881086960, -34.74634202363612445, 0.000000000000000000 ) ) ;
#538 = ADVANCED_FACE ( 'NONE', ( #569 ), #653, .F. ) ;
#539 = VECTOR ( 'NONE', #358, 1000.000000000000000 ) ;
#540 = FILL_AREA_STYLE ('',( #13 ) ) ;
#541 = DIRECTION ( 'NONE',  ( -0.000000000000000000, -0.000000000000000000, -1.000000000000000000 ) ) ;
#542 = DIRECTION ( 'NONE',  ( 0.000000000000000000, 0.000000000000000000, 1.000000000000000000 ) ) ;
#543 = VERTEX_POINT ( 'NONE', #1126 ) ;
#544 = VECTOR ( 'NONE', #370, 1000.000000000000114 ) ;
#545 = PLANE ( 'NONE',  #944 ) ;
#546 = VECTOR ( 'NONE', #11, 1000.000000000000000 ) ;
#547 = EDGE_CURVE ( 'NONE', #272, #724, #838, .T. ) ;
#548 = AXIS2_PLACEMENT_3D ( 'NONE', #313, #1043, #342 ) ;
#549 = PRODUCT_DEFINITION ( 'UNKNOWN', '', #408, #320 ) ;
#550 = CARTESIAN_POINT ( 'NONE',  ( -47.62215972547526377, -24.03980923444895623, 10.00000000000000000 ) ) ;
#551 = CARTESIAN_POINT ( 'NONE',  ( -51.17960805358102760, -34.98190505854140753, 10.00000000000000000 ) ) ;
#552 = EDGE_LOOP ( 'NONE', ( #1119, #221, #143, #867 ) ) ;
#553 = EDGE_CURVE ( 'NONE', #326, #1158, #196, .T. ) ;
#554 = CARTESIAN_POINT ( 'NONE',  ( -54.50216124145443786, -55.56762386136612974, 0.000000000000000000 ) ) ;
#555 = EDGE_CURVE ( 'NONE', #264, #272, #470, .T. ) ;
#556 = LINE ( 'NONE', #172, #900 ) ;
#557 = LINE ( 'NONE', #1118, #21 ) ;
#558 = ORIENTED_EDGE ( 'NONE', *, *, #754, .T. ) ;
#559 = LINE ( 'NONE', #1072, #887 ) ;
#560 = VECTOR ( 'NONE', #663, 1000.000000000000000 ) ;
#561 = CARTESIAN_POINT ( 'NONE',  ( -47.02504677420521517, -68.40937960494399306, 0.000000000000000000 ) ) ;
#562 = ORIENTED_EDGE ( 'NONE', *, *, #859, .F. ) ;
#563 = CARTESIAN_POINT ( 'NONE',  ( -53.51641513045377252, -57.31742715567217061, 10.00000000000000000 ) ) ;
#564 = CARTESIAN_POINT ( 'NONE',  ( -52.06377274170586844, -34.54422473497093193, 10.00000000000000000 ) ) ;
#565 = EDGE_CURVE ( 'NONE', #580, #747, #833, .T. ) ;
#566 = CARTESIAN_POINT ( 'NONE',  ( -47.02504648734146997, -23.65383036869621236, 0.000000000000000000 ) ) ;
#567 = ORIENTED_EDGE ( 'NONE', *, *, #576, .T. ) ;
#568 = CARTESIAN_POINT ( 'NONE',  ( -45.28350838881303986, -68.34848912410328126, 0.000000000000000000 ) ) ;
#569 = FACE_OUTER_BOUND ( 'NONE', #973, .T. ) ;
#570 = DIRECTION ( 'NONE',  ( -0.000000000000000000, -0.000000000000000000, -1.000000000000000000 ) ) ;
#571 = CARTESIAN_POINT ( 'NONE',  ( -51.05508426744635386, -62.06902518536578128, 10.00000000000000000 ) ) ;
#572 = VERTEX_POINT ( 'NONE', #750 ) ;
#573 = CARTESIAN_POINT ( 'NONE',  ( -45.00216095459069976, -68.12234167291609310, 0.000000000000000000 ) ) ;
#574 = CARTESIAN_POINT ( 'NONE',  ( -51.04225933512215363, -56.93462291911536965, 0.000000000000000000 ) ) ;
#575 = CARTESIAN_POINT ( 'NONE',  ( -51.24809596533224720, -34.90876262851602974, 0.000000000000000000 ) ) ;
#576 = EDGE_CURVE ( 'NONE', #806, #108, #662, .T. ) ;
#577 = DIRECTION ( 'NONE',  ( 0.000000000000000000, 0.000000000000000000, 1.000000000000000000 ) ) ;
#578 = CARTESIAN_POINT ( 'NONE',  ( -56.00216095459069265, -62.23160517038778750, 10.00000000000000000 ) ) ;
#579 = CARTESIAN_POINT ( 'NONE',  ( -53.75180579101655098, -57.12915788268932715, 10.00000000000000000 ) ) ;
#580 = VERTEX_POINT ( 'NONE', #872 ) ;
#581 = CARTESIAN_POINT ( 'NONE',  ( -51.24809596533224720, -34.90876262851602974, 10.00000000000000000 ) ) ;
#582 = VECTOR ( 'NONE', #899, 1000.000000000000000 ) ;
#583 = VECTOR ( 'NONE', #167, 1000.000000000000000 ) ;
#584 = DIRECTION ( 'NONE',  ( 0.000000000000000000, 0.000000000000000000, 1.000000000000000000 ) ) ;
#585 = CARTESIAN_POINT ( 'NONE',  ( -54.50216124145443786, -55.86877495439987484, 10.00000000000000000 ) ) ;
#586 = ORIENTED_EDGE ( 'NONE', *, *, #565, .F. ) ;
#587 = CARTESIAN_POINT ( 'NONE',  ( -51.05508426744655281, -62.06902518536573865, 0.000000000000000000 ) ) ;
#588 = CARTESIAN_POINT ( 'NONE',  ( -54.41364167245714611, -35.90716341920752086, 0.000000000000000000 ) ) ;
#589 = EDGE_CURVE ( 'NONE', #929, #419, #356, .T. ) ;
#590 = LINE ( 'NONE', #45, #230 ) ;
#591 = CARTESIAN_POINT ( 'NONE',  ( -54.50216124145443786, -55.56762386136612974, 0.000000000000000000 ) ) ;
#592 = DIRECTION ( 'NONE',  ( 1.000000000000000000, 0.000000000000000000, 0.000000000000000000 ) ) ;
#593 = ORIENTED_EDGE ( 'NONE', *, *, #1054, .F. ) ;
#594 = CARTESIAN_POINT ( 'NONE',  ( -46.77407967942439626, -54.97469901079533372, 0.000000000000000000 ) ) ;
#595 = ORIENTED_EDGE ( 'NONE', *, *, #801, .F. ) ;
#596 = CARTESIAN_POINT ( 'NONE',  ( -52.42208332519494007, -63.52892709169888263, 0.000000000000000000 ) ) ;
#597 = CARTESIAN_POINT ( 'NONE',  ( -46.01949622550935715, -54.92112983264667747, 10.00000000000000000 ) ) ;
#598 = ORIENTED_EDGE ( 'NONE', *, *, #209, .T. ) ;
#599 = CARTESIAN_POINT ( 'NONE',  ( -51.50906166518188201, -57.30364034504572857, 0.000000000000000000 ) ) ;
#600 = VECTOR ( 'NONE', #758, 1000.000000000000114 ) ;
#601 = CARTESIAN_POINT ( 'NONE',  ( -45.00216066772695456, -23.94086830072414074, 10.00000000000000000 ) ) ;
#602 = EDGE_CURVE ( 'NONE', #383, #820, #617, .T. ) ;
#603 = ORIENTED_EDGE ( 'NONE', *, *, #134, .T. ) ;
#604 = AXIS2_PLACEMENT_3D ( 'NONE', #256, #894, #821 ) ;
#605 = FACE_OUTER_BOUND ( 'NONE', #816, .T. ) ;
#606 = CARTESIAN_POINT ( 'NONE',  ( -45.29719216833890982, -55.14690416014728669, 10.00000000000000000 ) ) ;
#607 = EDGE_LOOP ( 'NONE', ( #18, #227, #882, #1023, #53, #155, #48 ) ) ;
#608 = DIRECTION ( 'NONE',  ( -0.000000000000000000, -0.000000000000000000, -1.000000000000000000 ) ) ;
#609 = EDGE_LOOP ( 'NONE', ( #499, #619, #948, #517 ) ) ;
#610 = ORIENTED_EDGE ( 'NONE', *, *, #165, .T. ) ;
#611 = CARTESIAN_POINT ( 'NONE',  ( -47.45672994022562818, -55.30000490732314233, 0.000000000000000000 ) ) ;
#612 = ORIENTED_EDGE ( 'NONE', *, *, #388, .T. ) ;
#613 = FACE_OUTER_BOUND ( 'NONE', #170, .T. ) ;
#614 = LINE ( 'NONE', #529, #1036 ) ;
#615 = CARTESIAN_POINT ( 'NONE',  ( -56.00216095459069265, -62.23160517038778750, 0.000000000000000000 ) ) ;
#616 = VERTEX_POINT ( 'NONE', #72 ) ;
#617 = LINE ( 'NONE', #414, #1127 ) ;
#618 = VECTOR ( 'NONE', #36, 1000.000000000000000 ) ;
#619 = ORIENTED_EDGE ( 'NONE', *, *, #624, .F. ) ;
#620 = FACE_BOUND ( 'NONE', #830, .T. ) ;
#621 = PLANE ( 'NONE',  #23 ) ;
#622 = ORIENTED_EDGE ( 'NONE', *, *, #1129, .T. ) ;
#623 = DIRECTION ( 'NONE',  ( 0.000000000000000000, 1.000000000000000000, 0.000000000000000000 ) ) ;
#624 = EDGE_CURVE ( 'NONE', #174, #616, #68, .T. ) ;
#625 = CARTESIAN_POINT ( 'NONE',  ( -45.00216095459069976, -19.53160517038779176, -0.005624131340004057122 ) ) ;
#626 = CARTESIAN_POINT ( 'NONE',  ( -45.00216095459069976, -72.53721824729350942, 10.00000000000000000 ) ) ;
#627 = ORIENTED_EDGE ( 'NONE', *, *, #859, .T. ) ;
#628 = CARTESIAN_POINT ( 'NONE',  ( -53.59569649674628522, -57.25394818452846835, 10.00000000000000000 ) ) ;
#629 = CARTESIAN_POINT ( 'NONE',  ( -47.44663327627252869, -23.87545265019548424, 9.999999999999998224 ) ) ;
#630 = CARTESIAN_POINT ( 'NONE',  ( -47.71506257405836493, -36.48731553934891991, 10.00000000000000000 ) ) ;
#631 = ORIENTED_EDGE ( 'NONE', *, *, #1008, .F. ) ;
#632 = CARTESIAN_POINT ( 'NONE',  ( -54.50216124145443786, -55.56762386136612974, 0.000000000000000000 ) ) ;
#633 = ORIENTED_EDGE ( 'NONE', *, *, #14, .F. ) ;
#634 = ADVANCED_FACE ( 'NONE', ( #968 ), #158, .F. ) ;
#635 = PRESENTATION_LAYER_ASSIGNMENT (  '', '', ( #941 ) ) ;
#636 = DIRECTION ( 'NONE',  ( 0.000000000000000000, 0.000000000000000000, 1.000000000000000000 ) ) ;
#637 = DIRECTION ( 'NONE',  ( 0.000000000000000000, -0.000000000000000000, -1.000000000000000000 ) ) ;
#638 = VERTEX_POINT ( 'NONE', #520 ) ;
#639 = EDGE_CURVE ( 'NONE', #377, #543, #1159, .T. ) ;
#640 = CARTESIAN_POINT ( 'NONE',  ( -45.00216066772695456, -23.94086830072414074, 10.00000000000000000 ) ) ;
#641 = MECHANICAL_DESIGN_GEOMETRIC_PRESENTATION_REPRESENTATION (  '', ( #941 ), #480 ) ;
#642 = AXIS2_PLACEMENT_3D ( 'NONE', #188, #1007, #346 ) ;
#643 = ORIENTED_EDGE ( 'NONE', *, *, #209, .F. ) ;
#644 = CARTESIAN_POINT ( 'NONE',  ( -45.00216095459069976, -19.53160517038779176, 10.00000000000000000 ) ) ;
#645 = ORIENTED_EDGE ( 'NONE', *, *, #1146, .F. ) ;
#646 = CARTESIAN_POINT ( 'NONE',  ( -51.05508398058121600, -29.99418478827272239, 10.00000000000000000 ) ) ;
#647 = B_SPLINE_CURVE_WITH_KNOTS ( 'NONE', 3,
 ( #1152, #328, #498, #701, #682, #518, #66, #854, #772, #863 ),
 .UNSPECIFIED., .F., .F.,
 ( 4, 2, 2, 2, 4 ),
 ( 0.000000000000000000, 0.2500000000000000000, 0.5000000000000000000, 0.7500000000000000000, 1.000000000000000000 ),
 .UNSPECIFIED. ) ;
#648 =( LENGTH_UNIT ( ) NAMED_UNIT ( * ) SI_UNIT ( .MILLI., .METRE. ) );
#649 = CARTESIAN_POINT ( 'NONE',  ( -45.00216095459069976, -19.53160517038779176, 10.00000000000000000 ) ) ;
#650 = DIRECTION ( 'NONE',  ( -0.6834995288746276154, -0.7299509531661438899, 0.000000000000000000 ) ) ;
#651 = ORIENTED_EDGE ( 'NONE', *, *, #210, .F. ) ;
#652 = CARTESIAN_POINT ( 'NONE',  ( -51.50906166518188201, -57.30364034504572857, 10.00000000000000000 ) ) ;
#653 = B_SPLINE_SURFACE_WITH_KNOTS ( 'NONE', 2, 1, ( 
 ( #857, #769 ),
 ( #1116, #938 ),
 ( #292, #588 ),
 ( #1029, #667 ),
 ( #1026, #125 ),
 ( #139, #846 ),
 ( #54, #405 ),
 ( #931, #852 ),
 ( #212, #43 ),
 ( #119, #49 ),
 ( #1014, #924 ),
 ( #762, #774 ),
 ( #564, #1122 ),
 ( #1110, #305 ),
 ( #950, #298 ),
 ( #581, #476 ),
 ( #217, #398 ) ),
 .UNSPECIFIED., .F., .F., .F.,
 ( 3, 2, 2, 2, 2, 2, 2, 2, 3 ),
 ( 2, 2 ),
 ( 0.000000000000000000, 0.1250000000000000000, 0.2500000000000000000, 0.3750000000000000000, 0.5000000000000000000, 0.6250000000000000000, 0.7500000000000000000, 0.8750000000000000000, 1.000000000000000000 ),
 ( 0.000000000000000000, 1.000000000000000000 ),
 .UNSPECIFIED. ) ;
#654 = EDGE_CURVE ( 'NONE', #249, #873, #163, .T. ) ;
#655 = CARTESIAN_POINT ( 'NONE',  ( -47.71506257405836493, -36.48731553934891991, 10.00000000000000000 ) ) ;
#656 = VECTOR ( 'NONE', #364, 1000.000000000000000 ) ;
#657 = CARTESIAN_POINT ( 'NONE',  ( -47.71506257405836493, -36.48731553934891991, 0.000000000000000000 ) ) ;
#658 = DIRECTION ( 'NONE',  ( 0.7299509531665803186, -0.6834995288741616548, 0.000000000000000000 ) ) ;
#659 = ORIENTED_EDGE ( 'NONE', *, *, #460, .F. ) ;
#660 = CARTESIAN_POINT ( 'NONE',  ( -52.65728977927880550, -57.56159856951877174, 10.00000000000000000 ) ) ;
#661 = AXIS2_PLACEMENT_3D ( 'NONE', #208, #128, #485 ) ;
#662 = LINE ( 'NONE', #1041, #194 ) ;
#663 = DIRECTION ( 'NONE',  ( -0.000000000000000000, -0.000000000000000000, -1.000000000000000000 ) ) ;
#664 = CARTESIAN_POINT ( 'NONE',  ( -45.00216066772695456, -23.94086830072414074, 10.00000000000000000 ) ) ;
#665 = VERTEX_POINT ( 'NONE', #1145 ) ;
#666 = CARTESIAN_POINT ( 'NONE',  ( -45.96908481956223369, -68.57562815859648708, 0.000000000000000000 ) ) ;
#667 = CARTESIAN_POINT ( 'NONE',  ( -54.32536285939121257, -35.62011112578367289, 0.000000000000000000 ) ) ;
#668 = CARTESIAN_POINT ( 'NONE',  ( -45.00216066772695456, -23.94086830072414074, 0.000000000000000000 ) ) ;
#669 = DIRECTION ( 'NONE',  ( 1.000000000000000000, 0.000000000000000000, 0.000000000000000000 ) ) ;
#670 = CARTESIAN_POINT ( 'NONE',  ( -53.05508398058105257, -29.99418478827275791, 10.00000000000000000 ) ) ;
#671 = ADVANCED_FACE ( 'NONE', ( #696 ), #925, .F. ) ;
#672 = PLANE ( 'NONE',  #1030 ) ;
#673 = ADVANCED_FACE ( 'NONE', ( #613 ), #799, .T. ) ;
#674 = EDGE_CURVE ( 'NONE', #514, #1148, #1166, .T. ) ;
#675 = CARTESIAN_POINT ( 'NONE',  ( -47.62216001233900187, -68.02340073919128827, 0.000000000000000000 ) ) ;
#676 = ORIENTED_EDGE ( 'NONE', *, *, #65, .T. ) ;
#677 = CARTESIAN_POINT ( 'NONE',  ( -45.00216095459069976, -19.53160517038779176, 0.000000000000000000 ) ) ;
#678 = VECTOR ( 'NONE', #658, 1000.000000000000114 ) ;
#679 = CIRCLE ( 'NONE', #164, 1.999999999999835243 ) ;
#680 = CARTESIAN_POINT ( 'NONE',  ( -45.18958323781552622, -68.27299195968389256, 9.999999999999998224 ) ) ;
#681 = CARTESIAN_POINT ( 'NONE',  ( -53.51641513045377252, -57.31742715567217061, 0.000000000000000000 ) ) ;
#682 = CARTESIAN_POINT ( 'NONE',  ( -46.64704506406324924, -54.96574724376841203, 10.00000000000000000 ) ) ;
#683 = ORIENTED_EDGE ( 'NONE', *, *, #509, .F. ) ;
#684 = DIRECTION ( 'NONE',  ( -0.000000000000000000, -0.000000000000000000, -1.000000000000000000 ) ) ;
#685 = CARTESIAN_POINT ( 'NONE',  ( -47.71506286092305515, -55.57589443428125264, 10.00000000000000000 ) ) ;
#686 = CARTESIAN_POINT ( 'NONE',  ( -54.15591867956070615, -35.37082664541542698, 0.000000000000000000 ) ) ;
#687 = CARTESIAN_POINT ( 'NONE',  ( -45.65795527860523606, -55.03413856261418147, 10.00000000000000000 ) ) ;
#688 = ORIENTED_EDGE ( 'NONE', *, *, #177, .T. ) ;
#689 = CARTESIAN_POINT ( 'NONE',  ( -43.50216095459069265, -72.53721824729350942, -0.005624131340004057122 ) ) ;
#690 = ADVANCED_FACE ( 'NONE', ( #866 ), #300, .F. ) ;
#691 = ORIENTED_EDGE ( 'NONE', *, *, #1057, .T. ) ;
#692 = ORIENTED_EDGE ( 'NONE', *, *, #1169, .F. ) ;
#693 = CARTESIAN_POINT ( 'NONE',  ( -47.71506286092306226, -55.57589443428124554, 0.000000000000000000 ) ) ;
#694 = VERTEX_POINT ( 'NONE', #441 ) ;
#695 = VECTOR ( 'NONE', #306, 1000.000000000000000 ) ;
#696 = FACE_OUTER_BOUND ( 'NONE', #1033, .T. ) ;
#697 = CIRCLE ( 'NONE', #503, 2.000000000000244693 ) ;
#698 = DIRECTION ( 'NONE',  ( -1.000000000000000000, 0.000000000000000000, 0.000000000000000000 ) ) ;
#699 = CIRCLE ( 'NONE', #642, 2.000000000000244693 ) ;
#700 = UNCERTAINTY_MEASURE_WITH_UNIT (LENGTH_MEASURE( 1.000000000000000082E-05 ), #648, 'distance_accuracy_value', 'NONE');
#701 = CARTESIAN_POINT ( 'NONE',  ( -46.88807900813147000, -55.02894985122560456, 10.00000000000000000 ) ) ;
#702 = ORIENTED_EDGE ( 'NONE', *, *, #654, .T. ) ;
#703 = DIRECTION ( 'NONE',  ( 1.573708150553042598E-15, 1.000000000000000000, 0.000000000000000000 ) ) ;
#704 = EDGE_CURVE ( 'NONE', #377, #187, #699, .T. ) ;
#705 = APPLICATION_CONTEXT ( 'automotive_design' ) ;
#706 = PLANE ( 'NONE',  #548 ) ;
#707 = CARTESIAN_POINT ( 'NONE',  ( -45.00216095459070687, -55.38405065197243715, 0.000000000000000000 ) ) ;
#708 = ORIENTED_EDGE ( 'NONE', *, *, #512, .F. ) ;
#709 = CARTESIAN_POINT ( 'NONE',  ( -45.97019124704024762, -23.48742477751052959, 10.00000000000000000 ) ) ;
#710 = CARTESIAN_POINT ( 'NONE',  ( -54.50216124145443786, -55.56762386136612974, 10.00000000000000000 ) ) ;
#711 = CARTESIAN_POINT ( 'NONE',  ( -52.95671152489575917, -57.53838679990973048, 0.000000000000000000 ) ) ;
#712 = CARTESIAN_POINT ( 'NONE',  ( -45.00216110052550533, -36.67916024150690646, 10.00000000000000000 ) ) ;
#713 = DIRECTION ( 'NONE',  ( 0.6834995288751100073, -0.7299509531656922512, 0.000000000000000000 ) ) ;
#714 = VERTEX_POINT ( 'NONE', #532 ) ;
#715 = EDGE_CURVE ( 'NONE', #665, #724, #812, .T. ) ;
#716 = CARTESIAN_POINT ( 'NONE',  ( -45.00216124145443786, -41.57917835302662724, 10.00000000000000000 ) ) ;
#717 = AXIS2_PLACEMENT_3D ( 'NONE', #387, #1035, #133 ) ;
#718 = LINE ( 'NONE', #625, #918 ) ;
#719 = CARTESIAN_POINT ( 'NONE',  ( -47.62215972547526377, -24.03980923444895623, 10.00000000000000000 ) ) ;
#720 = EDGE_LOOP ( 'NONE', ( #199, #659, #120, #290, #643, #360, #990, #99, #1059, #982, #871, #56, #965, #1011, #9, #260, #786, #631, #683, #595, #1070, #117, #255, #84 ) ) ;
#721 = CARTESIAN_POINT ( 'NONE',  ( -56.00216095459069265, -29.83160517038484372, 0.000000000000000000 ) ) ;
#722 = CARTESIAN_POINT ( 'NONE',  ( -52.68823767180686701, -31.17615766798084564, 9.999999999999998224 ) ) ;
#723 = CARTESIAN_POINT ( 'NONE',  ( -52.25879298418784913, -34.50052306212467812, 10.00000000000000000 ) ) ;
#724 = VERTEX_POINT ( 'NONE', #721 ) ;
#725 = CARTESIAN_POINT ( 'NONE',  ( -51.04225933512215363, -56.93462291911536965, 10.00000000000000000 ) ) ;
#726 = EDGE_CURVE ( 'NONE', #464, #535, #20, .T. ) ;
#727 = CARTESIAN_POINT ( 'NONE',  ( -52.82188590699016828, -30.96481776025515487, 10.00000000000000178 ) ) ;
#728 = CARTESIAN_POINT ( 'NONE',  ( -51.04225933512215363, -56.93462291911536965, 10.00000000000000000 ) ) ;
#729 = VERTEX_POINT ( 'NONE', #632 ) ;
#730 = CARTESIAN_POINT ( 'NONE',  ( -52.45802672059772931, -57.57699222518523641, 10.00000000000000000 ) ) ;
#731 = B_SPLINE_CURVE_WITH_KNOTS ( 'NONE', 2,
 ( #574, #311, #599, #432, #937, #176, #102, #711, #1136, #681, #219, #491, #1038, #225, #1044, #409, #591 ),
 .UNSPECIFIED., .F., .F.,
 ( 3, 2, 2, 2, 2, 2, 2, 2, 3 ),
 ( 0.000000000000000000, 0.1250000000000000000, 0.2500000000000000000, 0.3750000000000000000, 0.5000000000000000000, 0.6250000000000000000, 0.7500000000000000000, 0.8750000000000000000, 1.000000000000000000 ),
 .UNSPECIFIED. ) ;
#732 = CARTESIAN_POINT ( 'NONE',  ( -46.69108518216074089, -68.54856156394679090, 0.000000000000000000 ) ) ;
#733 = FACE_OUTER_BOUND ( 'NONE', #34, .T. ) ;
#734 = ORIENTED_EDGE ( 'NONE', *, *, #411, .T. ) ;
#735 = CARTESIAN_POINT ( 'NONE',  ( -51.04225933512323365, -35.12858815592307593, 10.00000000000000000 ) ) ;
#736 = AXIS2_PLACEMENT_3D ( 'NONE', #1157, #148, #244 ) ;
#737 = CARTESIAN_POINT ( 'NONE',  ( -52.35788084542085130, -34.47823605747036169, 0.000000000000000000 ) ) ;
#738 = VECTOR ( 'NONE', #160, 1000.000000000000114 ) ;
#739 = DIRECTION ( 'NONE',  ( 2.876090087443516436E-08, 0.9999999999999995559, 0.000000000000000000 ) ) ;
#740 = CARTESIAN_POINT ( 'NONE',  ( -52.42208332519494007, -63.52892709169888263, 10.00000000000000000 ) ) ;
#741 = LINE ( 'NONE', #835, #266 ) ;
#742 = EDGE_LOOP ( 'NONE', ( #792, #506, #423, #5 ) ) ;
#743 = CARTESIAN_POINT ( 'NONE',  ( -52.65728977927880550, -57.56159856951877174, 0.000000000000000000 ) ) ;
#744 = LINE ( 'NONE', #282, #996 ) ;
#745 = LINE ( 'NONE', #928, #902 ) ;
#746 = ORIENTED_EDGE ( 'NONE', *, *, #46, .T. ) ;
#747 = VERTEX_POINT ( 'NONE', #995 ) ;
#748 = CARTESIAN_POINT ( 'NONE',  ( -54.47265471845532403, -55.96471437729122300, 10.00000000000000000 ) ) ;
#749 = ADVANCED_FACE ( 'NONE', ( #907 ), #1081, .F. ) ;
#750 = CARTESIAN_POINT ( 'NONE',  ( -51.04225933512215363, -56.93462291911536965, 0.000000000000000000 ) ) ;
#751 = VECTOR ( 'NONE', #1100, 1000.000000000000000 ) ;
#752 = CARTESIAN_POINT ( 'NONE',  ( -56.00216095459069265, -62.23160517038778750, 10.00000000000000000 ) ) ;
#753 = ORIENTED_EDGE ( 'NONE', *, *, #813, .T. ) ;
#754 = EDGE_CURVE ( 'NONE', #419, #800, #559, .T. ) ;
#755 = LINE ( 'NONE', #385, #184 ) ;
#756 = VECTOR ( 'NONE', #142, 1000.000000000000000 ) ;
#757 = CARTESIAN_POINT ( 'NONE',  ( -52.51498588691242730, -31.36118384602298192, 10.00000000000000000 ) ) ;
#758 = DIRECTION ( 'NONE',  ( 0.6834995288745882025, 0.7299509531661808603, 0.000000000000000000 ) ) ;
#759 = DIRECTION ( 'NONE',  ( -0.000000000000000000, 0.000000000000000000, -1.000000000000000000 ) ) ;
#760 = EDGE_CURVE ( 'NONE', #17, #929, #171, .T. ) ;
#761 = CARTESIAN_POINT ( 'NONE',  ( -46.69108518216074089, -68.54856156394679090, 0.000000000000000000 ) ) ;
#762 = CARTESIAN_POINT ( 'NONE',  ( -52.35788084542085130, -34.47823605747036169, 10.00000000000000000 ) ) ;
#763 = EDGE_CURVE ( 'NONE', #108, #326, #448, .T. ) ;
#764 = EDGE_CURVE ( 'NONE', #440, #893, #6, .T. ) ;
#765 = CARTESIAN_POINT ( 'NONE',  ( -45.39877256187232035, -68.38661030348212932, 10.00000000000000178 ) ) ;
#766 = PRODUCT_CONTEXT ( 'NONE', #281, 'mechanical' ) ;
#767 = CARTESIAN_POINT ( 'NONE',  ( -53.23707490554548372, -57.42770501721182796, 10.00000000000000000 ) ) ;
#768 = ORIENTED_EDGE ( 'NONE', *, *, #760, .F. ) ;
#769 = CARTESIAN_POINT ( 'NONE',  ( -54.50216124145443786, -36.49558721367348113, 0.000000000000000000 ) ) ;
#770 = CARTESIAN_POINT ( 'NONE',  ( -45.00216095459070687, -55.38405065197243715, 10.00000000000000000 ) ) ;
#771 = VECTOR ( 'NONE', #229, 1000.000000000000114 ) ;
#772 = CARTESIAN_POINT ( 'NONE',  ( -45.19899041505112791, -55.22583886331790382, 10.00000000000000000 ) ) ;
#773 = EDGE_LOOP ( 'NONE', ( #193, #1138, #162, #906 ) ) ;
#774 = CARTESIAN_POINT ( 'NONE',  ( -52.35788084542085130, -34.47823605747036169, 0.000000000000000000 ) ) ;
#775 = ADVANCED_BREP_SHAPE_REPRESENTATION ( 'Pieza2', ( #96, #661 ), #287 ) ;
#776 = VECTOR ( 'NONE', #957, 1000.000000000000000 ) ;
#777 = ORIENTED_EDGE ( 'NONE', *, *, #177, .F. ) ;
#778 = CARTESIAN_POINT ( 'NONE',  ( -52.51498588691242730, -31.36118384602298192, 0.000000000000000000 ) ) ;
#779 = ADVANCED_FACE ( 'NONE', ( #1090 ), #545, .F. ) ;
#780 = CARTESIAN_POINT ( 'NONE',  ( -56.00216095459069265, -29.83160517038484372, 0.000000000000000000 ) ) ;
#781 = ORIENTED_EDGE ( 'NONE', *, *, #1147, .T. ) ;
#782 = DIRECTION ( 'NONE',  ( 0.7299509531665820949, -0.6834995288741597674, 0.000000000000000000 ) ) ;
#783 = ORIENTED_EDGE ( 'NONE', *, *, #495, .T. ) ;
#784 = ORIENTED_EDGE ( 'NONE', *, *, #10, .T. ) ;
#785 = CARTESIAN_POINT ( 'NONE',  ( -54.50216124145443786, -55.56762386136612974, 10.00000000000000000 ) ) ;
#786 = ORIENTED_EDGE ( 'NONE', *, *, #85, .F. ) ;
#787 = CARTESIAN_POINT ( 'NONE',  ( -46.69217661381258466, -23.51488846824869228, 10.00000000000000000 ) ) ;
#788 = ORIENTED_EDGE ( 'NONE', *, *, #1042, .T. ) ;
#789 = DIRECTION ( 'NONE',  ( 0.7299509531665798745, 0.6834995288741619879, 0.000000000000000000 ) ) ;
#790 = PLANE ( 'NONE',  #839 ) ;
#791 = DIRECTION ( 'NONE',  ( 1.000000000000000000, 0.000000000000000000, 0.000000000000000000 ) ) ;
#792 = ORIENTED_EDGE ( 'NONE', *, *, #589, .T. ) ;
#793 = CARTESIAN_POINT ( 'NONE',  ( -45.29719216833890982, -55.14690416014728669, 0.000000000000000000 ) ) ;
#794 = ORIENTED_EDGE ( 'NONE', *, *, #246, .F. ) ;
#795 = AXIS2_PLACEMENT_3D ( 'NONE', #104, #186, #542 ) ;
#796 = EDGE_CURVE ( 'NONE', #858, #464, #252, .T. ) ;
#797 = FACE_OUTER_BOUND ( 'NONE', #742, .T. ) ;
#798 = ORIENTED_EDGE ( 'NONE', *, *, #763, .T. ) ;
#799 = PLANE ( 'NONE',  #861 ) ;
#800 = VERTEX_POINT ( 'NONE', #355 ) ;
#801 = EDGE_CURVE ( 'NONE', #729, #1087, #361, .T. ) ;
#802 = DIRECTION ( 'NONE',  ( -1.309086623305272471E-16, 1.000000000000000000, 0.000000000000000000 ) ) ;
#803 = ORIENTED_EDGE ( 'NONE', *, *, #197, .T. ) ;
#804 = DIRECTION ( 'NONE',  ( -0.000000000000000000, -0.000000000000000000, -1.000000000000000000 ) ) ;
#805 = DIRECTION ( 'NONE',  ( 0.7299509531656044325, 0.6834995288752038212, -0.000000000000000000 ) ) ;
#806 = VERTEX_POINT ( 'NONE', #640 ) ;
#807 = CARTESIAN_POINT ( 'NONE',  ( -51.86880002642080711, -57.47507311330907243, 10.00000000000000000 ) ) ;
#808 = CARTESIAN_POINT ( 'NONE',  ( -43.50216095459069265, -19.53160517038779176, -0.005624131340004057122 ) ) ;
#809 = FACE_OUTER_BOUND ( 'NONE', #864, .T. ) ;
#810 = ORIENTED_EDGE ( 'NONE', *, *, #1042, .F. ) ;
#811 = EDGE_CURVE ( 'NONE', #873, #1046, #1083, .T. ) ;
#812 = LINE ( 'NONE', #917, #827 ) ;
#813 = EDGE_CURVE ( 'NONE', #531, #428, #755, .T. ) ;
#814 = CARTESIAN_POINT ( 'NONE',  ( -47.35825534075254239, -68.27051147713129353, 0.000000000000000000 ) ) ;
#815 = CARTESIAN_POINT ( 'NONE',  ( -53.42290995303663692, -34.70904561394264221, 10.00000000000000000 ) ) ;
#816 = EDGE_LOOP ( 'NONE', ( #633, #487, #216, #122, #166 ) ) ;
#817 = CARTESIAN_POINT ( 'NONE',  ( -52.91516513642650921, -30.72909845236441484, 0.000000000000000000 ) ) ;
#818 = CARTESIAN_POINT ( 'NONE',  ( -51.05508426744655281, -62.06902518536573865, 10.00000000000000000 ) ) ;
#819 = DIRECTION ( 'NONE',  ( -0.000000000000000000, -0.000000000000000000, -1.000000000000000000 ) ) ;
#820 = VERTEX_POINT ( 'NONE', #573 ) ;
#821 = DIRECTION ( 'NONE',  ( 1.000000000000000000, 0.000000000000000000, 0.000000000000000000 ) ) ;
#822 = VECTOR ( 'NONE', #1031, 1000.000000000000000 ) ;
#823 = CARTESIAN_POINT ( 'NONE',  ( -53.00844436586286434, -30.49337914447368547, 10.00000000000000000 ) ) ;
#824 = DIRECTION ( 'NONE',  ( -0.000000000000000000, -0.000000000000000000, -1.000000000000000000 ) ) ;
#825 = ORIENTED_EDGE ( 'NONE', *, *, #243, .F. ) ;
#826 = CARTESIAN_POINT ( 'NONE',  ( -45.00216095459069265, -68.12234167291609310, 10.00000000000000000 ) ) ;
#827 = VECTOR ( 'NONE', #191, 1000.000000000000000 ) ;
#828 = CARTESIAN_POINT ( 'NONE',  ( -53.05508398058105257, -30.24840792310979509, 10.00000000000000000 ) ) ;
#829 =( NAMED_UNIT ( * ) SI_UNIT ( $, .STERADIAN. ) SOLID_ANGLE_UNIT ( ) );
#830 = EDGE_LOOP ( 'NONE', ( #567, #798, #335, #277, #457, #676, #610 ) ) ;
#831 = ADVANCED_FACE ( 'NONE', ( #1012 ), #481, .F. ) ;
#832 = CARTESIAN_POINT ( 'NONE',  ( -47.35825534075254239, -68.27051147713129353, 10.00000000000000000 ) ) ;
#833 = LINE ( 'NONE', #31, #19 ) ;
#834 = CARTESIAN_POINT ( 'NONE',  ( -45.62668373366825136, -23.60102297698160356, 0.000000000000000000 ) ) ;
#835 = CARTESIAN_POINT ( 'NONE',  ( -47.62215972547526377, -24.03980923444895623, 10.00000000000000000 ) ) ;
#836 = ORIENTED_EDGE ( 'NONE', *, *, #715, .T. ) ;
#837 = CARTESIAN_POINT ( 'NONE',  ( -53.75180579101655098, -57.12915788268932715, 0.000000000000000000 ) ) ;
#838 = LINE ( 'NONE', #677, #363 ) ;
#839 = AXIS2_PLACEMENT_3D ( 'NONE', #1009, #450, #192 ) ;
#840 = CARTESIAN_POINT ( 'NONE',  ( -45.00216095459069976, -72.53160517038779176, 10.00000000000000000 ) ) ;
#841 = LINE ( 'NONE', #276, #544 ) ;
#842 = CARTESIAN_POINT ( 'NONE',  ( -46.33063461478721479, -68.56207425715830084, 0.000000000000000000 ) ) ;
#843 = LINE ( 'NONE', #1139, #462 ) ;
#844 = ADVANCED_FACE ( 'NONE', ( #291 ), #508, .F. ) ;
#845 = VECTOR ( 'NONE', #239, 1000.000000000000000 ) ;
#846 = CARTESIAN_POINT ( 'NONE',  ( -53.98709286788205475, -35.12245190171422848, 0.000000000000000000 ) ) ;
#847 = ADVANCED_FACE ( 'NONE', ( #947 ), #967, .F. ) ;
#848 = DIRECTION ( 'NONE',  ( 0.000000000000000000, -1.000000000000000000, 0.000000000000000000 ) ) ;
#849 = PLANE ( 'NONE',  #523 ) ;
#850 = CARTESIAN_POINT ( 'NONE',  ( -51.76970097623870259, -57.45283591309742377, 10.00000000000000000 ) ) ;
#851 = ORIENTED_EDGE ( 'NONE', *, *, #267, .F. ) ;
#852 = CARTESIAN_POINT ( 'NONE',  ( -53.51737736881086960, -34.74634202363612445, 0.000000000000000000 ) ) ;
#853 = LINE ( 'NONE', #1105, #880 ) ;
#854 = CARTESIAN_POINT ( 'NONE',  ( -45.41758852305596861, -55.10920150019848052, 10.00000000000000000 ) ) ;
#855 = EDGE_LOOP ( 'NONE', ( #445, #692, #803, #316 ) ) ;
#856 = DIRECTION ( 'NONE',  ( -0.000000000000000000, -0.000000000000000000, -1.000000000000000000 ) ) ;
#857 = CARTESIAN_POINT ( 'NONE',  ( -54.50216124145443786, -36.49558721367348113, 10.00000000000000000 ) ) ;
#858 = VERTEX_POINT ( 'NONE', #152 ) ;
#859 = EDGE_CURVE ( 'NONE', #714, #1087, #1137, .T. ) ;
#860 = CARTESIAN_POINT ( 'NONE',  ( -47.71506257405836493, -36.48731553934891991, 10.00000000000000000 ) ) ;
#861 = AXIS2_PLACEMENT_3D ( 'NONE', #962, #436, #1133 ) ;
#862 = CARTESIAN_POINT ( 'NONE',  ( -54.41364167245714611, -35.90716341920752086, 0.000000000000000000 ) ) ;
#863 = CARTESIAN_POINT ( 'NONE',  ( -45.00216095459070687, -55.38405065197243715, 10.00000000000000000 ) ) ;
#864 = EDGE_LOOP ( 'NONE', ( #382, #1142, #153, #746 ) ) ;
#865 = DIRECTION ( 'NONE',  ( -0.7299509531665820949, 0.6834995288741597674, 0.000000000000000000 ) ) ;
#866 = FACE_OUTER_BOUND ( 'NONE', #62, .T. ) ;
#867 = ORIENTED_EDGE ( 'NONE', *, *, #555, .T. ) ;
#868 = DIRECTION ( 'NONE',  ( -0.000000000000000000, -0.000000000000000000, -1.000000000000000000 ) ) ;
#869 = CARTESIAN_POINT ( 'NONE',  ( -45.00216066772695456, -23.94086830072414074, 0.000000000000000000 ) ) ;
#870 = CARTESIAN_POINT ( 'NONE',  ( -46.25516035094678102, -35.12031664950765730, 0.000000000000000000 ) ) ;
#871 = ORIENTED_EDGE ( 'NONE', *, *, #411, .F. ) ;
#872 = CARTESIAN_POINT ( 'NONE',  ( -43.50216095459069265, -19.53160517038779176, -0.005624131340004057122 ) ) ;
#873 = VERTEX_POINT ( 'NONE', #52 ) ;
#874 = ADVANCED_FACE ( 'NONE', ( #797 ), #879, .F. ) ;
#875 = CARTESIAN_POINT ( 'NONE',  ( -46.39623933320920912, -54.94787547429568519, 10.00000000000000000 ) ) ;
#876 = ORIENTED_EDGE ( 'NONE', *, *, #1082, .F. ) ;
#877 = CARTESIAN_POINT ( 'NONE',  ( -45.97019124704024762, -23.48742477751052959, 0.000000000000000000 ) ) ;
#878 = EDGE_LOOP ( 'NONE', ( #1125, #1103, #456, #781, #898, #366, #1056 ) ) ;
#879 = B_SPLINE_SURFACE_WITH_KNOTS ( 'NONE', 2, 1, ( 
 ( #1050, #693 ),
 ( #338, #611 ),
 ( #960, #1143 ),
 ( #1045, #427 ),
 ( #875, #226 ),
 ( #597, #232 ),
 ( #687, #59 ),
 ( #606, #964 ),
 ( #513, #707 ) ),
 .UNSPECIFIED., .F., .F., .F.,
 ( 3, 2, 2, 2, 3 ),
 ( 2, 2 ),
 ( 0.000000000000000000, 0.2500000000000000000, 0.5000000000000000000, 0.7500000000000000000, 1.000000000000000000 ),
 ( 0.000000000000000000, 1.000000000000000000 ),
 .UNSPECIFIED. ) ;
#880 = VECTOR ( 'NONE', #848, 1000.000000000000000 ) ;
#881 = DIRECTION ( 'NONE',  ( -0.000000000000000000, -0.000000000000000000, -1.000000000000000000 ) ) ;
#882 = ORIENTED_EDGE ( 'NONE', *, *, #425, .T. ) ;
#883 = CARTESIAN_POINT ( 'NONE',  ( -45.28395077018111436, -23.71436503220867564, 0.000000000000000000 ) ) ;
#884 = ADVANCED_FACE ( 'NONE', ( #70 ), #401, .F. ) ;
#885 = EDGE_CURVE ( 'NONE', #724, #914, #1062, .T. ) ;
#886 = FACE_OUTER_BOUND ( 'NONE', #855, .T. ) ;
#887 = VECTOR ( 'NONE', #88, 1000.000000000000114 ) ;
#888 = CARTESIAN_POINT ( 'NONE',  ( -53.59583197500666074, -34.80909359924594071, 10.00000000000000000 ) ) ;
#889 = ORIENTED_EDGE ( 'NONE', *, *, #12, .F. ) ;
#890 = CARTESIAN_POINT ( 'NONE',  ( -47.62216001233899476, -68.02340073919124563, 10.00000000000000000 ) ) ;
#891 = LINE ( 'NONE', #1165, #410 ) ;
#892 = CARTESIAN_POINT ( 'NONE',  ( -52.42208303832934746, -28.53428288193960682, 10.00000000000000000 ) ) ;
#893 = VERTEX_POINT ( 'NONE', #505 ) ;
#894 = DIRECTION ( 'NONE',  ( -0.000000000000000000, -0.000000000000000000, -1.000000000000000000 ) ) ;
#895 = EDGE_CURVE ( 'NONE', #224, #1158, #1155, .T. ) ;
#896 = CARTESIAN_POINT ( 'NONE',  ( -45.00216110052550533, -36.67916024150690646, 10.00000000000000000 ) ) ;
#897 = DIRECTION ( 'NONE',  ( 1.000000000000000000, 0.000000000000000000, 0.000000000000000000 ) ) ;
#898 = ORIENTED_EDGE ( 'NONE', *, *, #210, .T. ) ;
#899 = DIRECTION ( 'NONE',  ( -0.000000000000000000, -0.000000000000000000, -1.000000000000000000 ) ) ;
#900 = VECTOR ( 'NONE', #275, 1000.000000000000000 ) ;
#901 = SURFACE_STYLE_USAGE ( .BOTH. , #437 ) ;
#902 = VECTOR ( 'NONE', #650, 1000.000000000000114 ) ;
#903 = CARTESIAN_POINT ( 'NONE',  ( -45.62668402053199657, -68.46218699665858765, 0.000000000000000000 ) ) ;
#904 = AXIS2_PLACEMENT_3D ( 'NONE', #630, #1095, #713 ) ;
#905 = CARTESIAN_POINT ( 'NONE',  ( -54.47233819508710440, -36.09820630648576412, 10.00000000000000178 ) ) ;
#906 = ORIENTED_EDGE ( 'NONE', *, *, #624, .T. ) ;
#907 = FACE_OUTER_BOUND ( 'NONE', #1065, .T. ) ;
#908 = CARTESIAN_POINT ( 'NONE',  ( -53.23707490554620847, -34.63550605782808134, 0.000000000000000000 ) ) ;
#909 = EDGE_CURVE ( 'NONE', #17, #1080, #647, .T. ) ;
#910 = LINE ( 'NONE', #740, #404 ) ;
#911 = DIRECTION ( 'NONE',  ( -0.000000000000000000, -0.000000000000000000, -1.000000000000000000 ) ) ;
#912 = ORIENTED_EDGE ( 'NONE', *, *, #362, .T. ) ;
#913 = CARTESIAN_POINT ( 'NONE',  ( -53.42298962755653235, -57.35436711888328887, 10.00000000000000000 ) ) ;
#914 = VERTEX_POINT ( 'NONE', #615 ) ;
#915 = CYLINDRICAL_SURFACE ( 'NONE', #145, 2.000000000000036415 ) ;
#916 = ORIENTED_EDGE ( 'NONE', *, *, #386, .F. ) ;
#917 = CARTESIAN_POINT ( 'NONE',  ( -56.00216095459069265, -29.83160517038484372, 10.00000000000000000 ) ) ;
#918 = VECTOR ( 'NONE', #636, 1000.000000000000000 ) ;
#919 = EDGE_CURVE ( 'NONE', #616, #1096, #1130, .T. ) ;
#920 = CARTESIAN_POINT ( 'NONE',  ( -47.24660883628224184, -23.74638086881769539, 10.00000000000000178 ) ) ;
#921 = APPLICATION_PROTOCOL_DEFINITION ( 'draft international standard', 'automotive_design', 1998, #281 ) ;
#922 = ORIENTED_EDGE ( 'NONE', *, *, #334, .T. ) ;
#923 = CARTESIAN_POINT ( 'NONE',  ( -54.15591867956047878, -56.69238442962453206, 10.00000000000000000 ) ) ;
#924 = CARTESIAN_POINT ( 'NONE',  ( -52.65728977927978605, -34.50161250552093151, 0.000000000000000000 ) ) ;
#925 = B_SPLINE_SURFACE_WITH_KNOTS ( 'NONE', 2, 1, ( 
 ( #527, #418 ),
 ( #424, #235 ),
 ( #154, #332 ),
 ( #787, #76 ),
 ( #83, #516 ),
 ( #709, #877 ),
 ( #1060, #241 ),
 ( #430, #883 ),
 ( #601, #1064 ) ),
 .UNSPECIFIED., .F., .F., .F.,
 ( 3, 2, 2, 2, 3 ),
 ( 2, 2 ),
 ( 0.000000000000000000, 0.2500000000000000000, 0.5000000000000000000, 0.7500000000000000000, 1.000000000000000000 ),
 ( 0.000000000000000000, 1.000000000000000000 ),
 .UNSPECIFIED. ) ;
#926 = B_SPLINE_CURVE_WITH_KNOTS ( 'NONE', 3,
 ( #258, #680, #765, #946, #399, #127, #295, #202, #390, #1128 ),
 .UNSPECIFIED., .F., .F.,
 ( 4, 2, 2, 2, 4 ),
 ( 0.000000000000000000, 0.2500000000000000000, 0.5000000000000000000, 0.7500000000000000000, 1.000000000000000000 ),
 .UNSPECIFIED. ) ;
#927 = CARTESIAN_POINT ( 'NONE',  ( -46.69217661381258466, -23.51488846824869228, 0.000000000000000000 ) ) ;
#928 = CARTESIAN_POINT ( 'NONE',  ( -45.00216124145444496, -50.48403272200277314, 0.000000000000000000 ) ) ;
#929 = VERTEX_POINT ( 'NONE', #309 ) ;
#930 = CARTESIAN_POINT ( 'NONE',  ( -52.35677132415870716, -57.58489535823112249, 0.000000000000000000 ) ) ;
#931 = CARTESIAN_POINT ( 'NONE',  ( -53.51737736881086960, -34.74634202363612445, 10.00000000000000000 ) ) ;
#932 = EDGE_CURVE ( 'NONE', #1134, #929, #137, .T. ) ;
#933 = LINE ( 'NONE', #657, #695 ) ;
#934 = EDGE_CURVE ( 'NONE', #493, #543, #129, .T. ) ;
#935 = EDGE_LOOP ( 'NONE', ( #1040, #768, #1016, #1076 ) ) ;
#936 = CARTESIAN_POINT ( 'NONE',  ( -51.04225933512215363, -56.93462291911536965, 0.000000000000000000 ) ) ;
#937 = CARTESIAN_POINT ( 'NONE',  ( -52.06377274170472447, -57.51898634006842315, 0.000000000000000000 ) ) ;
#938 = CARTESIAN_POINT ( 'NONE',  ( -54.50216124145443786, -36.19499856799447457, 0.000000000000000000 ) ) ;
#939 = CARTESIAN_POINT ( 'NONE',  ( -56.00216095459069265, -29.83160517038484372, 10.00000000000000000 ) ) ;
#940 = CARTESIAN_POINT ( 'NONE',  ( -47.71506257405836493, -36.48731553934891991, 0.000000000000000000 ) ) ;
#941 = STYLED_ITEM ( 'NONE', ( #95 ), #96 ) ;
#942 = CARTESIAN_POINT ( 'NONE',  ( -53.98633741890185433, -56.94157567799228303, 10.00000000000000000 ) ) ;
#943 = ORIENTED_EDGE ( 'NONE', *, *, #327, .T. ) ;
#944 = AXIS2_PLACEMENT_3D ( 'NONE', #101, #273, #1164 ) ;
#945 = LINE ( 'NONE', #206, #618 ) ;
#946 = CARTESIAN_POINT ( 'NONE',  ( -45.85459547919165146, -68.53776368983503176, 10.00000000000000000 ) ) ;
#947 = FACE_OUTER_BOUND ( 'NONE', #105, .T. ) ;
#948 = ORIENTED_EDGE ( 'NONE', *, *, #279, .T. ) ;
#949 = CARTESIAN_POINT ( 'NONE',  ( -53.05508398058105257, -29.99418478827275791, 10.00000000000000000 ) ) ;
#950 = CARTESIAN_POINT ( 'NONE',  ( -51.50906166518308282, -34.75957072999322861, 10.00000000000000000 ) ) ;
#951 = DIRECTION ( 'NONE',  ( 1.000000000000000000, 0.000000000000000000, 0.000000000000000000 ) ) ;
#952 = CARTESIAN_POINT ( 'NONE',  ( -52.91516513642650921, -30.72909845236441484, 0.000000000000000000 ) ) ;
#953 = PLANE ( 'NONE',  #1000 ) ;
#954 = ORIENTED_EDGE ( 'NONE', *, *, #461, .T. ) ;
#955 = CARTESIAN_POINT ( 'NONE',  ( -52.51498588691242730, -31.36118384602297482, 10.00000000000000000 ) ) ;
#956 = ADVANCED_FACE ( 'NONE', ( #972 ), #953, .T. ) ;
#957 = DIRECTION ( 'NONE',  ( -0.000000000000000000, -0.000000000000000000, -1.000000000000000000 ) ) ;
#958 = VECTOR ( 'NONE', #1047, 1000.000000000000000 ) ;
#959 = LINE ( 'NONE', #869, #500 ) ;
#960 = CARTESIAN_POINT ( 'NONE',  ( -47.11503677220954955, -55.13717657670999017, 10.00000000000000000 ) ) ;
#961 = VERTEX_POINT ( 'NONE', #719 ) ;
#962 = CARTESIAN_POINT ( 'NONE',  ( -45.00216095459069976, -19.53160517038779176, -0.005624131340004057122 ) ) ;
#963 = ORIENTED_EDGE ( 'NONE', *, *, #100, .T. ) ;
#964 = CARTESIAN_POINT ( 'NONE',  ( -45.29719216833890982, -55.14690416014728669, 0.000000000000000000 ) ) ;
#965 = ORIENTED_EDGE ( 'NONE', *, *, #1057, .F. ) ;
#966 = CARTESIAN_POINT ( 'NONE',  ( -52.95779537570833639, -34.52507457585152650, 0.000000000000000000 ) ) ;
#967 = B_SPLINE_SURFACE_WITH_KNOTS ( 'NONE', 2, 1, ( 
 ( #1024, #936 ),
 ( #195, #35 ),
 ( #652, #486 ),
 ( #850, #278 ),
 ( #1124, #124 ),
 ( #41, #930 ),
 ( #660, #743 ),
 ( #118, #297 ),
 ( #767, #475 ),
 ( #563, #211 ),
 ( #579, #837 ),
 ( #942, #130 ),
 ( #923, #47 ),
 ( #396, #301 ),
 ( #1032, #215 ),
 ( #585, #416 ),
 ( #785, #315 ) ),
 .UNSPECIFIED., .F., .F., .F.,
 ( 3, 2, 2, 2, 2, 2, 2, 2, 3 ),
 ( 2, 2 ),
 ( 0.000000000000000000, 0.1250000000000000000, 0.2500000000000000000, 0.3750000000000000000, 0.5000000000000000000, 0.6250000000000000000, 0.7500000000000000000, 0.8750000000000000000, 1.000000000000000000 ),
 ( 0.000000000000000000, 1.000000000000000000 ),
 .UNSPECIFIED. ) ;
#968 = FACE_OUTER_BOUND ( 'NONE', #138, .T. ) ;
#969 = ADVANCED_FACE ( 'NONE', ( #524 ), #621, .F. ) ;
#970 = VERTEX_POINT ( 'NONE', #263 ) ;
#971 = EDGE_CURVE ( 'NONE', #63, #616, #984, .T. ) ;
#972 = FACE_OUTER_BOUND ( 'NONE', #609, .T. ) ;
#973 = EDGE_LOOP ( 'NONE', ( #519, #284, #810, #627 ) ) ;
#974 = CARTESIAN_POINT ( 'NONE',  ( -45.65795527860523606, -55.03413856261418147, 0.000000000000000000 ) ) ;
#975 = DIRECTION ( 'NONE',  ( -1.000000000000000000, -0.000000000000000000, -0.000000000000000000 ) ) ;
#976 = LINE ( 'NONE', #80, #248 ) ;
#977 = B_SPLINE_CURVE_WITH_KNOTS ( 'NONE', 3,
 ( #550, #629, #920, #992, #185, #1101, #443, #1004, #253, #988 ),
 .UNSPECIFIED., .F., .F.,
 ( 4, 2, 2, 2, 4 ),
 ( 0.000000000000000000, 0.2500000000000000000, 0.5000000000000000000, 0.7500000000000000000, 1.000000000000000000 ),
 .UNSPECIFIED. ) ;
#978 = AXIS2_PLACEMENT_3D ( 'NONE', #890, #324, #782 ) ;
#979 = CARTESIAN_POINT ( 'NONE',  ( -53.05123985805579423, -34.56196650171352758, 10.00000000000000000 ) ) ;
#980 = ORIENTED_EDGE ( 'NONE', *, *, #763, .F. ) ;
#981 = CARTESIAN_POINT ( 'NONE',  ( -47.11503677220954955, -55.13717657670999017, 0.000000000000000000 ) ) ;
#982 = ORIENTED_EDGE ( 'NONE', *, *, #134, .F. ) ;
#983 = ORIENTED_EDGE ( 'NONE', *, *, #279, .F. ) ;
#984 = LINE ( 'NONE', #626, #1094 ) ;
#985 = EDGE_LOOP ( 'NONE', ( #67, #71, #459, #622 ) ) ;
#986 = CARTESIAN_POINT ( 'NONE',  ( -51.33563835908672246, -57.20430745294547137, 10.00000000000000178 ) ) ;
#987 = ADVANCED_FACE ( 'NONE', ( #250 ), #534, .T. ) ;
#988 = CARTESIAN_POINT ( 'NONE',  ( -45.00216066772695456, -23.94086830072414074, 10.00000000000000000 ) ) ;
#989 = CARTESIAN_POINT ( 'NONE',  ( -54.50216124145441654, -36.29537777779100338, 9.999999999999998224 ) ) ;
#990 = ORIENTED_EDGE ( 'NONE', *, *, #1089, .F. ) ;
#991 = CARTESIAN_POINT ( 'NONE',  ( -51.17910239022903340, -57.08076598767593879, 9.999999999999998224 ) ) ;
#992 = CARTESIAN_POINT ( 'NONE',  ( -46.80348413840068389, -23.56127986857471868, 10.00000000000000000 ) ) ;
#993 = CARTESIAN_POINT ( 'NONE',  ( -45.00216124145444496, -50.48403272200277314, 10.00000000000000000 ) ) ;
#994 = ORIENTED_EDGE ( 'NONE', *, *, #1109, .T. ) ;
#995 = CARTESIAN_POINT ( 'NONE',  ( -45.00216095459069976, -19.53160517038779176, -0.005624131340004057122 ) ) ;
#996 = VECTOR ( 'NONE', #1015, 1000.000000000000000 ) ;
#997 = ADVANCED_FACE ( 'NONE', ( #169 ), #1075, .F. ) ;
#998 = B_SPLINE_CURVE_WITH_KNOTS ( 'NONE', 2,
 ( #314, #400, #862, #58, #686, #183, #374, #537, #908, #966, #1013, #737, #1099, #1088, #482, #575, #494 ),
 .UNSPECIFIED., .F., .F.,
 ( 3, 2, 2, 2, 2, 2, 2, 2, 3 ),
 ( 0.000000000000000000, 0.1250000000000000000, 0.2500000000000000000, 0.3750000000000000000, 0.5000000000000000000, 0.6250000000000000000, 0.7500000000000000000, 0.8750000000000000000, 1.000000000000000000 ),
 .UNSPECIFIED. ) ;
#999 = CARTESIAN_POINT ( 'NONE',  ( -45.00216095459069976, -68.12234167291609310, 0.000000000000000000 ) ) ;
#1000 = AXIS2_PLACEMENT_3D ( 'NONE', #156, #74, #802 ) ;
#1001 = CARTESIAN_POINT ( 'NONE',  ( -51.04225933512323365, -35.12858815592307593, 0.000000000000000000 ) ) ;
#1002 = ORIENTED_EDGE ( 'NONE', *, *, #796, .T. ) ;
#1003 = CARTESIAN_POINT ( 'NONE',  ( -53.05508398058105257, -29.99418478827275791, 0.000000000000000000 ) ) ;
#1004 = CARTESIAN_POINT ( 'NONE',  ( -45.39833703146147315, -23.67647025547265827, 10.00000000000000000 ) ) ;
#1005 = LINE ( 'NONE', #578, #678 ) ;
#1006 = ORIENTED_EDGE ( 'NONE', *, *, #350, .T. ) ;
#1007 = DIRECTION ( 'NONE',  ( -0.000000000000000000, -0.000000000000000000, -1.000000000000000000 ) ) ;
#1008 = EDGE_CURVE ( 'NONE', #402, #535, #180, .T. ) ;
#1009 = CARTESIAN_POINT ( 'NONE',  ( -45.00216095459069976, -19.53160517038779176, -0.005624131340004057122 ) ) ;
#1010 = LINE ( 'NONE', #33, #307 ) ;
#1011 = ORIENTED_EDGE ( 'NONE', *, *, #495, .F. ) ;
#1012 = FACE_OUTER_BOUND ( 'NONE', #112, .T. ) ;
#1013 = CARTESIAN_POINT ( 'NONE',  ( -52.65728977927978605, -34.50161250552093151, 0.000000000000000000 ) ) ;
#1014 = CARTESIAN_POINT ( 'NONE',  ( -52.65728977927978605, -34.50161250552093151, 10.00000000000000000 ) ) ;
#1015 = DIRECTION ( 'NONE',  ( 0.000000000000000000, 0.000000000000000000, 1.000000000000000000 ) ) ;
#1016 = ORIENTED_EDGE ( 'NONE', *, *, #425, .F. ) ;
#1017 = VECTOR ( 'NONE', #478, 1000.000000000000000 ) ;
#1018 = CARTESIAN_POINT ( 'NONE',  ( -45.62668402053199657, -68.46218699665858765, 10.00000000000000000 ) ) ;
#1019 = CARTESIAN_POINT ( 'NONE',  ( -45.00216095459069976, -19.53160517038779176, 10.00000000000000000 ) ) ;
#1020 = ADVANCED_FACE ( 'NONE', ( #809 ), #16, .F. ) ;
#1021 = CARTESIAN_POINT ( 'NONE',  ( -51.04225933512323365, -35.12858815592307593, 0.000000000000000000 ) ) ;
#1022 = CARTESIAN_POINT ( 'NONE',  ( -52.51498617377899336, -60.70202612761653427, 0.000000000000000000 ) ) ;
#1023 = ORIENTED_EDGE ( 'NONE', *, *, #909, .T. ) ;
#1024 = CARTESIAN_POINT ( 'NONE',  ( -51.04225933512215363, -56.93462291911536965, 10.00000000000000000 ) ) ;
#1025 = LINE ( 'NONE', #949, #304 ) ;
#1026 = CARTESIAN_POINT ( 'NONE',  ( -54.15591867956070615, -35.37082664541542698, 10.00000000000000000 ) ) ;
#1027 = FACE_OUTER_BOUND ( 'NONE', #935, .T. ) ;
#1028 = CARTESIAN_POINT ( 'NONE',  ( -45.62668402053199657, -68.46218699665858765, 0.000000000000000000 ) ) ;
#1029 = CARTESIAN_POINT ( 'NONE',  ( -54.32536285939121257, -35.62011112578367289, 10.00000000000000000 ) ) ;
#1030 = AXIS2_PLACEMENT_3D ( 'NONE', #121, #577, #484 ) ;
#1031 = DIRECTION ( 'NONE',  ( 0.000000000000000000, -1.000000000000000000, 0.000000000000000000 ) ) ;
#1032 = CARTESIAN_POINT ( 'NONE',  ( -54.41364167245708217, -56.15604765583233160, 10.00000000000000000 ) ) ;
#1033 = EDGE_LOOP ( 'NONE', ( #734, #341, #82, #994 ) ) ;
#1034 = VECTOR ( 'NONE', #911, 1000.000000000000000 ) ;
#1035 = DIRECTION ( 'NONE',  ( 0.6834995288741616548, 0.7299509531665803186, -0.000000000000000000 ) ) ;
#1036 = VECTOR ( 'NONE', #975, 1000.000000000000000 ) ;
#1037 = CARTESIAN_POINT ( 'NONE',  ( -47.62215972547526377, -24.03980923444895623, 0.000000000000000000 ) ) ;
#1038 = CARTESIAN_POINT ( 'NONE',  ( -54.15591867956047878, -56.69238442962453206, 0.000000000000000000 ) ) ;
#1039 = DIRECTION ( 'NONE',  ( 0.6834995288745882025, 0.7299509531661808603, 0.000000000000000000 ) ) ;
#1040 = ORIENTED_EDGE ( 'NONE', *, *, #932, .T. ) ;
#1041 = CARTESIAN_POINT ( 'NONE',  ( -45.00216095459069976, -19.53160517038779176, 10.00000000000000000 ) ) ;
#1042 = EDGE_CURVE ( 'NONE', #714, #858, #488, .T. ) ;
#1043 = DIRECTION ( 'NONE',  ( 0.000000000000000000, 0.000000000000000000, 1.000000000000000000 ) ) ;
#1044 = CARTESIAN_POINT ( 'NONE',  ( -54.41364167245708217, -56.15604765583233160, 0.000000000000000000 ) ) ;
#1045 = CARTESIAN_POINT ( 'NONE',  ( -46.77407967942439626, -54.97469901079533372, 10.00000000000000000 ) ) ;
#1046 = VERTEX_POINT ( 'NONE', #259 ) ;
#1047 = DIRECTION ( 'NONE',  ( 0.000000000000000000, 0.000000000000000000, 1.000000000000000000 ) ) ;
#1048 = FACE_BOUND ( 'NONE', #607, .T. ) ;
#1049 = VECTOR ( 'NONE', #584, 1000.000000000000000 ) ;
#1050 = CARTESIAN_POINT ( 'NONE',  ( -47.71506286092306226, -55.57589443428124554, 10.00000000000000000 ) ) ;
#1051 = ORIENTED_EDGE ( 'NONE', *, *, #704, .F. ) ;
#1052 = CARTESIAN_POINT ( 'NONE',  ( -47.71506286092305515, -55.57589443428125264, 0.000000000000000000 ) ) ;
#1053 = AXIS2_PLACEMENT_3D ( 'NONE', #61, #684, #222 ) ;
#1054 = EDGE_CURVE ( 'NONE', #873, #572, #161, .T. ) ;
#1055 = VECTOR ( 'NONE', #151, 1000.000000000000000 ) ;
#1056 = ORIENTED_EDGE ( 'NONE', *, *, #919, .T. ) ;
#1057 = EDGE_CURVE ( 'NONE', #970, #349, #679, .T. ) ;
#1058 = CARTESIAN_POINT ( 'NONE',  ( -43.50216095459069265, -19.53160517038779176, 10.00000000000000000 ) ) ;
#1059 = ORIENTED_EDGE ( 'NONE', *, *, #547, .F. ) ;
#1060 = CARTESIAN_POINT ( 'NONE',  ( -45.62668373366825136, -23.60102297698160356, 10.00000000000000000 ) ) ;
#1061 = CARTESIAN_POINT ( 'NONE',  ( -54.50216124145443786, -55.56762386136612974, 10.00000000000000000 ) ) ;
#1062 = LINE ( 'NONE', #780, #40 ) ;
#1063 = ORIENTED_EDGE ( 'NONE', *, *, #1054, .T. ) ;
#1064 = CARTESIAN_POINT ( 'NONE',  ( -45.00216066772695456, -23.94086830072414074, 0.000000000000000000 ) ) ;
#1065 = EDGE_LOOP ( 'NONE', ( #691, #876, #302, #954 ) ) ;
#1066 = ORIENTED_EDGE ( 'NONE', *, *, #553, .F. ) ;
#1067 = FACE_OUTER_BOUND ( 'NONE', #354, .T. ) ;
#1068 = VECTOR ( 'NONE', #570, 1000.000000000000000 ) ;
#1069 = LINE ( 'NONE', #892, #446 ) ;
#1070 = ORIENTED_EDGE ( 'NONE', *, *, #473, .F. ) ;
#1071 = ADVANCED_FACE ( 'NONE', ( #733 ), #344, .F. ) ;
#1072 = CARTESIAN_POINT ( 'NONE',  ( -45.00216095459070687, -55.38405065197243715, 0.000000000000000000 ) ) ;
#1073 = COLOUR_RGB ( '',0.7921568627450980005, 0.8196078431372548767, 0.9333333333333333481 ) ;
#1074 = LINE ( 'NONE', #896, #159 ) ;
#1075 = PLANE ( 'NONE',  #795 ) ;
#1076 = ORIENTED_EDGE ( 'NONE', *, *, #512, .T. ) ;
#1077 = CARTESIAN_POINT ( 'NONE',  ( -52.85655283795987458, -57.54620491385229286, 10.00000000000000000 ) ) ;
#1078 = DIRECTION ( 'NONE',  ( -1.309086623305272471E-16, 1.000000000000000000, -0.000000000000000000 ) ) ;
#1079 = CARTESIAN_POINT ( 'NONE',  ( -51.05508398058121600, -29.99418478827272239, 0.000000000000000000 ) ) ;
#1080 = VERTEX_POINT ( 'NONE', #271 ) ;
#1081 = CYLINDRICAL_SURFACE ( 'NONE', #389, 1.999999999999835243 ) ;
#1082 = EDGE_CURVE ( 'NONE', #1148, #349, #1069, .T. ) ;
#1083 = B_SPLINE_CURVE_WITH_KNOTS ( 'NONE', 3,
 ( #725, #991, #986, #106, #807, #367, #730, #1077, #265, #913, #628, #175, #93, #447, #465, #748, #1104, #113 ),
 .UNSPECIFIED., .F., .F.,
 ( 4, 2, 2, 2, 2, 2, 2, 2, 4 ),
 ( 0.000000000000000000, 0.1250000000000000000, 0.2500000000000000000, 0.3750000000000000000, 0.5000000000000000000, 0.6250000000000000000, 0.7500000000000000000, 0.8750000000000000000, 1.000000000000000000 ),
 .UNSPECIFIED. ) ;
#1084 =( NAMED_UNIT ( * ) SI_UNIT ( $, .STERADIAN. ) SOLID_ANGLE_UNIT ( ) );
#1085 = DIRECTION ( 'NONE',  ( -0.000000000000000000, -0.000000000000000000, -1.000000000000000000 ) ) ;
#1086 = DIRECTION ( 'NONE',  ( -0.6834995288752038212, 0.7299509531656044325, 0.000000000000000000 ) ) ;
#1087 = VERTEX_POINT ( 'NONE', #439 ) ;
#1088 = CARTESIAN_POINT ( 'NONE',  ( -51.77073795360646358, -34.60997259395232817, 0.000000000000000000 ) ) ;
#1089 = EDGE_CURVE ( 'NONE', #914, #383, #841, .T. ) ;
#1090 = FACE_OUTER_BOUND ( 'NONE', #1153, .T. ) ;
#1091 = LINE ( 'NONE', #269, #751 ) ;
#1092 = EDGE_CURVE ( 'NONE', #800, #572, #745, .T. ) ;
#1093 = CARTESIAN_POINT ( 'NONE',  ( -45.28350838881303986, -68.34848912410328126, 0.000000000000000000 ) ) ;
#1094 = VECTOR ( 'NONE', #897, 1000.000000000000000 ) ;
#1095 = DIRECTION ( 'NONE',  ( -0.7299509531656922512, -0.6834995288751100073, 0.000000000000000000 ) ) ;
#1096 = VERTEX_POINT ( 'NONE', #116 ) ;
#1097 = ADVANCED_FACE ( 'NONE', ( #472 ), #849, .F. ) ;
#1098 = CARTESIAN_POINT ( 'NONE',  ( -52.91516513642650921, -30.72909845236441484, 10.00000000000000000 ) ) ;
#1099 = CARTESIAN_POINT ( 'NONE',  ( -52.06377274170586844, -34.54422473497093193, 0.000000000000000000 ) ) ;
#1100 = DIRECTION ( 'NONE',  ( -0.000000000000000000, -0.000000000000000000, -1.000000000000000000 ) ) ;
#1101 = CARTESIAN_POINT ( 'NONE',  ( -46.09069462111844473, -23.49194491684803054, 10.00000000000000000 ) ) ;
#1102 = DIRECTION ( 'NONE',  ( -0.000000000000000000, -0.000000000000000000, -1.000000000000000000 ) ) ;
#1103 = ORIENTED_EDGE ( 'NONE', *, *, #126, .T. ) ;
#1104 = CARTESIAN_POINT ( 'NONE',  ( -54.50216124145444496, -55.76857311246918414, 10.00000000000000000 ) ) ;
#1105 = CARTESIAN_POINT ( 'NONE',  ( -45.00216095459069976, -19.53160517038779176, 10.00000000000000000 ) ) ;
#1106 = CARTESIAN_POINT ( 'NONE',  ( -56.00216095459069265, -29.83160517038484372, 10.00000000000000000 ) ) ;
#1107 = ORIENTED_EDGE ( 'NONE', *, *, #362, .F. ) ;
#1108 = CARTESIAN_POINT ( 'NONE',  ( -45.00216095459069265, -68.12234167291609310, 0.000000000000000000 ) ) ;
#1109 = EDGE_CURVE ( 'NONE', #961, #339, #741, .T. ) ;
#1110 = CARTESIAN_POINT ( 'NONE',  ( -51.77073795360646358, -34.60997259395232817, 10.00000000000000000 ) ) ;
#1111 = AXIS2_PLACEMENT_3D ( 'NONE', #1161, #303, #403 ) ;
#1112 = CARTESIAN_POINT ( 'NONE',  ( -45.00216095459070687, -55.38405065197243715, 0.000000000000000000 ) ) ;
#1113 = DIRECTION ( 'NONE',  ( 0.000000000000000000, -1.000000000000000000, 0.000000000000000000 ) ) ;
#1114 = ORIENTED_EDGE ( 'NONE', *, *, #323, .F. ) ;
#1115 = CARTESIAN_POINT ( 'NONE',  ( -47.62216001233900187, -68.02340073919128827, 10.00000000000000000 ) ) ;
#1116 = CARTESIAN_POINT ( 'NONE',  ( -54.50216124145443786, -36.19499856799447457, 10.00000000000000000 ) ) ;
#1117 = CARTESIAN_POINT ( 'NONE',  ( -52.51498588691242730, -31.36118384602298192, 0.000000000000000000 ) ) ;
#1118 = CARTESIAN_POINT ( 'NONE',  ( -56.00216095459069265, -62.23160517038778750, 10.00000000000000000 ) ) ;
#1119 = ORIENTED_EDGE ( 'NONE', *, *, #547, .T. ) ;
#1120 = CARTESIAN_POINT ( 'NONE',  ( -47.02504677420521517, -68.40937960494399306, 10.00000000000000000 ) ) ;
#1121 = EDGE_CURVE ( 'NONE', #806, #638, #283, .T. ) ;
#1122 = CARTESIAN_POINT ( 'NONE',  ( -52.06377274170586844, -34.54422473497093193, 0.000000000000000000 ) ) ;
#1123 = FACE_OUTER_BOUND ( 'NONE', #720, .T. ) ;
#1124 = CARTESIAN_POINT ( 'NONE',  ( -52.06377274170472447, -57.51898634006842315, 10.00000000000000000 ) ) ;
#1125 = ORIENTED_EDGE ( 'NONE', *, *, #14, .T. ) ;
#1126 = CARTESIAN_POINT ( 'NONE',  ( -53.05508426744658834, -62.06902518536573865, 0.000000000000000000 ) ) ;
#1127 = VECTOR ( 'NONE', #703, 1000.000000000000000 ) ;
#1128 = CARTESIAN_POINT ( 'NONE',  ( -47.62216001233900187, -68.02340073919128827, 10.00000000000000000 ) ) ;
#1129 = EDGE_CURVE ( 'NONE', #413, #914, #557, .T. ) ;
#1130 = LINE ( 'NONE', #1058, #845 ) ;
#1131 = ORIENTED_EDGE ( 'NONE', *, *, #372, .F. ) ;
#1132 = CARTESIAN_POINT ( 'NONE',  ( -47.62216001233900187, -68.02340073919128827, 10.00000000000000000 ) ) ;
#1133 = DIRECTION ( 'NONE',  ( 0.000000000000000000, 0.000000000000000000, 1.000000000000000000 ) ) ;
#1134 = VERTEX_POINT ( 'NONE', #1022 ) ;
#1135 = LINE ( 'NONE', #242, #738 ) ;
#1136 = CARTESIAN_POINT ( 'NONE',  ( -53.23707490554548372, -57.42770501721182796, 0.000000000000000000 ) ) ;
#1137 = LINE ( 'NONE', #321, #756 ) ;
#1138 = ORIENTED_EDGE ( 'NONE', *, *, #388, .F. ) ;
#1139 = CARTESIAN_POINT ( 'NONE',  ( -47.62216001233899476, -68.02340073919124563, 10.00000000000000000 ) ) ;
#1140 = CARTESIAN_POINT ( 'NONE',  ( -47.45672994022562818, -55.30000490732314233, 0.000000000000000000 ) ) ;
#1141 = B_SPLINE_CURVE_WITH_KNOTS ( 'NONE', 2,
 ( #198, #477, #566, #927, #115, #471, #834, #380, #668 ),
 .UNSPECIFIED., .F., .F.,
 ( 3, 2, 2, 2, 3 ),
 ( 0.000000000000000000, 0.2500000000000000000, 0.5000000000000000000, 0.7500000000000000000, 1.000000000000000000 ),
 .UNSPECIFIED. ) ;
#1142 = ORIENTED_EDGE ( 'NONE', *, *, #726, .F. ) ;
#1143 = CARTESIAN_POINT ( 'NONE',  ( -47.11503677220954955, -55.13717657670999017, 0.000000000000000000 ) ) ;
#1144 = ORIENTED_EDGE ( 'NONE', *, *, #1121, .T. ) ;
#1145 = CARTESIAN_POINT ( 'NONE',  ( -56.00216095459069265, -29.83160517038484372, 10.00000000000000000 ) ) ;
#1146 = EDGE_CURVE ( 'NONE', #1080, #60, #1010, .T. ) ;
#1147 = EDGE_CURVE ( 'NONE', #413, #415, #1005, .T. ) ;
#1148 = VERTEX_POINT ( 'NONE', #381 ) ;
#1149 = B_SPLINE_CURVE_WITH_KNOTS ( 'NONE', 2,
 ( #999, #1093, #903, #103, #454, #732, #561, #814, #466 ),
 .UNSPECIFIED., .F., .F.,
 ( 3, 2, 2, 2, 3 ),
 ( 0.000000000000000000, 0.2500000000000000000, 0.5000000000000000000, 0.7500000000000000000, 1.000000000000000000 ),
 .UNSPECIFIED. ) ;
#1150 = ORIENTED_EDGE ( 'NONE', *, *, #553, .T. ) ;
#1151 = UNCERTAINTY_MEASURE_WITH_UNIT (LENGTH_MEASURE( 1.000000000000000082E-05 ), #289, 'distance_accuracy_value', 'NONE');
#1152 = CARTESIAN_POINT ( 'NONE',  ( -47.71506286092305515, -55.57589443428125264, 10.00000000000000000 ) ) ;
#1153 = EDGE_LOOP ( 'NONE', ( #452, #29, #75, #92 ) ) ;
#1154 = CARTESIAN_POINT ( 'NONE',  ( -46.01949622550935715, -54.92112983264667747, 0.000000000000000000 ) ) ;
#1155 = CIRCLE ( 'NONE', #429, 2.000000116468350519 ) ;
#1156 = FACE_BOUND ( 'NONE', #322, .T. ) ;
#1157 = CARTESIAN_POINT ( 'NONE',  ( -45.00216095459069976, -19.53160517038779176, 10.00000000000000000 ) ) ;
#1158 = VERTEX_POINT ( 'NONE', #940 ) ;
#1159 = LINE ( 'NONE', #312, #442 ) ;
#1160 = CARTESIAN_POINT ( 'NONE',  ( -52.51498588691242730, -31.36118384602298192, 10.00000000000000000 ) ) ;
#1161 = CARTESIAN_POINT ( 'NONE',  ( -52.51498617377899336, -60.70202612761653427, 10.00000000000000000 ) ) ;
#1162 = CARTESIAN_POINT ( 'NONE',  ( -51.04225933512323365, -35.12858815592307593, 10.00000000000000000 ) ) ;
#1163 = ORIENTED_EDGE ( 'NONE', *, *, #1129, .F. ) ;
#1164 = DIRECTION ( 'NONE',  ( -0.7299509531665798745, -0.6834995288741619879, 0.000000000000000000 ) ) ;
#1165 = CARTESIAN_POINT ( 'NONE',  ( -45.00216124145443786, -41.57917835302662724, 0.000000000000000000 ) ) ;
#1166 = CIRCLE ( 'NONE', #1053, 1.999999999999835243 ) ;
#1167 = CARTESIAN_POINT ( 'NONE',  ( -45.00216095459069976, -72.53721824729350942, -0.005624131340004057122 ) ) ;
#1168 = ORIENTED_EDGE ( 'NONE', *, *, #726, .T. ) ;
#1169 = EDGE_CURVE ( 'NONE', #694, #377, #697, .T. ) ;
#1170 = CARTESIAN_POINT ( 'NONE',  ( -53.05508398058105257, -30.37524583433051717, 0.000000000000000000 ) ) ;
ENDSEC;
END-ISO-10303-21;
