ISO-10303-21;
HEADER;
FILE_DESCRIPTION(('FreeCAD Model'),'2;1');
FILE_NAME('Open CASCADE Shape Model','2026-04-23T11:21:28',(''),(''),
  'Open CASCADE STEP processor 7.8','FreeCAD','Unknown');
FILE_SCHEMA(('AUTOMOTIVE_DESIGN { 1 0 10303 214 1 1 1 1 }'));
ENDSEC;
DATA;
#1 = APPLICATION_PROTOCOL_DEFINITION('international standard',
  'automotive_design',2000,#2);
#2 = APPLICATION_CONTEXT(
  'core data for automotive mechanical design processes');
#3 = SHAPE_DEFINITION_REPRESENTATION(#4,#10);
#4 = PRODUCT_DEFINITION_SHAPE('','',#5);
#5 = PRODUCT_DEFINITION('design','',#6,#9);
#6 = PRODUCT_DEFINITION_FORMATION('','',#7);
#7 = PRODUCT('PartDesignExample','PartDesignExample','',(#8));
#8 = PRODUCT_CONTEXT('',#2,'mechanical');
#9 = PRODUCT_DEFINITION_CONTEXT('part definition',#2,'design');
#10 = SHAPE_REPRESENTATION('',(#11,#15,#19,#23,#27,#31,#35),#39);
#11 = AXIS2_PLACEMENT_3D('',#12,#13,#14);
#12 = CARTESIAN_POINT('',(0.,0.,0.));
#13 = DIRECTION('',(0.,0.,1.));
#14 = DIRECTION('',(1.,0.,-0.));
#15 = AXIS2_PLACEMENT_3D('',#16,#17,#18);
#16 = CARTESIAN_POINT('',(0.,0.,0.));
#17 = DIRECTION('',(0.,0.,1.));
#18 = DIRECTION('',(1.,0.,0.));
#19 = AXIS2_PLACEMENT_3D('',#20,#21,#22);
#20 = CARTESIAN_POINT('',(0.,0.,0.));
#21 = DIRECTION('',(0.,0.,1.));
#22 = DIRECTION('',(1.,0.,0.));
#23 = AXIS2_PLACEMENT_3D('',#24,#25,#26);
#24 = CARTESIAN_POINT('',(0.,0.,0.));
#25 = DIRECTION('',(0.,0.,1.));
#26 = DIRECTION('',(1.,0.,0.));
#27 = AXIS2_PLACEMENT_3D('',#28,#29,#30);
#28 = CARTESIAN_POINT('',(0.,0.,0.));
#29 = DIRECTION('',(0.,0.,1.));
#30 = DIRECTION('',(1.,0.,0.));
#31 = AXIS2_PLACEMENT_3D('',#32,#33,#34);
#32 = CARTESIAN_POINT('',(0.,0.,0.));
#33 = DIRECTION('',(0.,0.,1.));
#34 = DIRECTION('',(1.,0.,0.));
#35 = AXIS2_PLACEMENT_3D('',#36,#37,#38);
#36 = CARTESIAN_POINT('',(0.,0.,0.));
#37 = DIRECTION('',(0.,0.,1.));
#38 = DIRECTION('',(1.,0.,0.));
#39 = ( GEOMETRIC_REPRESENTATION_CONTEXT(3) 
GLOBAL_UNCERTAINTY_ASSIGNED_CONTEXT((#43)) GLOBAL_UNIT_ASSIGNED_CONTEXT(
(#40,#41,#42)) REPRESENTATION_CONTEXT('Context #1',
  '3D Context with UNIT and UNCERTAINTY') );
#40 = ( LENGTH_UNIT() NAMED_UNIT(*) SI_UNIT(.MILLI.,.METRE.) );
#41 = ( NAMED_UNIT(*) PLANE_ANGLE_UNIT() SI_UNIT($,.RADIAN.) );
#42 = ( NAMED_UNIT(*) SI_UNIT($,.STERADIAN.) SOLID_ANGLE_UNIT() );
#43 = UNCERTAINTY_MEASURE_WITH_UNIT(LENGTH_MEASURE(1.E-06),#40,
  'distance_accuracy_value','confusion accuracy');
#44 = PRODUCT_RELATED_PRODUCT_CATEGORY('part',$,(#7));
#45 = SHAPE_DEFINITION_REPRESENTATION(#46,#52);
#46 = PRODUCT_DEFINITION_SHAPE('','',#47);
#47 = PRODUCT_DEFINITION('design','',#48,#51);
#48 = PRODUCT_DEFINITION_FORMATION('','',#49);
#49 = PRODUCT('Body','Body','',(#50));
#50 = PRODUCT_CONTEXT('',#2,'mechanical');
#51 = PRODUCT_DEFINITION_CONTEXT('part definition',#2,'design');
#52 = ADVANCED_BREP_SHAPE_REPRESENTATION('',(#11,#53),#770);
#53 = MANIFOLD_SOLID_BREP('',#54);
#54 = CLOSED_SHELL('',(#55,#95,#128,#159,#250,#267,#366,#390,#501,#543,
    #567,#584,#601,#618,#635,#652,#669,#686,#703,#720,#737,#749,#761));
#55 = ADVANCED_FACE('',(#56),#90,.T.);
#56 = FACE_BOUND('',#57,.T.);
#57 = EDGE_LOOP('',(#58,#68,#76,#84));
#58 = ORIENTED_EDGE('',*,*,#59,.T.);
#59 = EDGE_CURVE('',#60,#62,#64,.T.);
#60 = VERTEX_POINT('',#61);
#61 = CARTESIAN_POINT('',(20.358962517357,20.,0.));
#62 = VERTEX_POINT('',#63);
#63 = CARTESIAN_POINT('',(20.358962517357,20.,-100.));
#64 = LINE('',#65,#66);
#65 = CARTESIAN_POINT('',(20.358962517357,20.,0.));
#66 = VECTOR('',#67,1.);
#67 = DIRECTION('',(-0.,-0.,-1.));
#68 = ORIENTED_EDGE('',*,*,#69,.T.);
#69 = EDGE_CURVE('',#62,#70,#72,.T.);
#70 = VERTEX_POINT('',#71);
#71 = CARTESIAN_POINT('',(-55.,20.,-100.));
#72 = LINE('',#73,#74);
#73 = CARTESIAN_POINT('',(20.358962517357,20.,-100.));
#74 = VECTOR('',#75,1.);
#75 = DIRECTION('',(-1.,0.,0.));
#76 = ORIENTED_EDGE('',*,*,#77,.F.);
#77 = EDGE_CURVE('',#78,#70,#80,.T.);
#78 = VERTEX_POINT('',#79);
#79 = CARTESIAN_POINT('',(-55.,20.,0.));
#80 = LINE('',#81,#82);
#81 = CARTESIAN_POINT('',(-55.,20.,0.));
#82 = VECTOR('',#83,1.);
#83 = DIRECTION('',(-0.,-0.,-1.));
#84 = ORIENTED_EDGE('',*,*,#85,.F.);
#85 = EDGE_CURVE('',#60,#78,#86,.T.);
#86 = LINE('',#87,#88);
#87 = CARTESIAN_POINT('',(20.358962517357,20.,0.));
#88 = VECTOR('',#89,1.);
#89 = DIRECTION('',(-1.,0.,0.));
#90 = PLANE('',#91);
#91 = AXIS2_PLACEMENT_3D('',#92,#93,#94);
#92 = CARTESIAN_POINT('',(20.358962517357,20.,0.));
#93 = DIRECTION('',(0.,1.,0.));
#94 = DIRECTION('',(-1.,0.,0.));
#95 = ADVANCED_FACE('',(#96),#123,.T.);
#96 = FACE_BOUND('',#97,.T.);
#97 = EDGE_LOOP('',(#98,#108,#115,#116));
#98 = ORIENTED_EDGE('',*,*,#99,.T.);
#99 = EDGE_CURVE('',#100,#102,#104,.T.);
#100 = VERTEX_POINT('',#101);
#101 = CARTESIAN_POINT('',(55.,-19.99999999999,0.));
#102 = VERTEX_POINT('',#103);
#103 = CARTESIAN_POINT('',(55.,-19.99999999999,-100.));
#104 = LINE('',#105,#106);
#105 = CARTESIAN_POINT('',(55.,-19.99999999999,0.));
#106 = VECTOR('',#107,1.);
#107 = DIRECTION('',(-0.,-0.,-1.));
#108 = ORIENTED_EDGE('',*,*,#109,.T.);
#109 = EDGE_CURVE('',#102,#62,#110,.T.);
#110 = CIRCLE('',#111,35.);
#111 = AXIS2_PLACEMENT_3D('',#112,#113,#114);
#112 = CARTESIAN_POINT('',(54.999978668735,15.,-100.));
#113 = DIRECTION('',(0.,0.,1.));
#114 = DIRECTION('',(1.,0.,0.));
#115 = ORIENTED_EDGE('',*,*,#59,.F.);
#116 = ORIENTED_EDGE('',*,*,#117,.F.);
#117 = EDGE_CURVE('',#100,#60,#118,.T.);
#118 = CIRCLE('',#119,35.);
#119 = AXIS2_PLACEMENT_3D('',#120,#121,#122);
#120 = CARTESIAN_POINT('',(54.999978668735,15.,0.));
#121 = DIRECTION('',(0.,0.,1.));
#122 = DIRECTION('',(1.,0.,0.));
#123 = CYLINDRICAL_SURFACE('',#124,35.);
#124 = AXIS2_PLACEMENT_3D('',#125,#126,#127);
#125 = CARTESIAN_POINT('',(54.999978668735,15.,0.));
#126 = DIRECTION('',(0.,0.,1.));
#127 = DIRECTION('',(1.,0.,0.));
#128 = ADVANCED_FACE('',(#129),#154,.T.);
#129 = FACE_BOUND('',#130,.T.);
#130 = EDGE_LOOP('',(#131,#132,#140,#148));
#131 = ORIENTED_EDGE('',*,*,#77,.T.);
#132 = ORIENTED_EDGE('',*,*,#133,.T.);
#133 = EDGE_CURVE('',#70,#134,#136,.T.);
#134 = VERTEX_POINT('',#135);
#135 = CARTESIAN_POINT('',(-55.,-19.99999999999,-100.));
#136 = LINE('',#137,#138);
#137 = CARTESIAN_POINT('',(-55.,20.,-100.));
#138 = VECTOR('',#139,1.);
#139 = DIRECTION('',(0.,-1.,0.));
#140 = ORIENTED_EDGE('',*,*,#141,.F.);
#141 = EDGE_CURVE('',#142,#134,#144,.T.);
#142 = VERTEX_POINT('',#143);
#143 = CARTESIAN_POINT('',(-55.,-19.99999999999,0.));
#144 = LINE('',#145,#146);
#145 = CARTESIAN_POINT('',(-55.,-19.99999999999,0.));
#146 = VECTOR('',#147,1.);
#147 = DIRECTION('',(-0.,-0.,-1.));
#148 = ORIENTED_EDGE('',*,*,#149,.F.);
#149 = EDGE_CURVE('',#78,#142,#150,.T.);
#150 = LINE('',#151,#152);
#151 = CARTESIAN_POINT('',(-55.,20.,0.));
#152 = VECTOR('',#153,1.);
#153 = DIRECTION('',(0.,-1.,0.));
#154 = PLANE('',#155);
#155 = AXIS2_PLACEMENT_3D('',#156,#157,#158);
#156 = CARTESIAN_POINT('',(-55.,20.,0.));
#157 = DIRECTION('',(-1.,0.,0.));
#158 = DIRECTION('',(0.,-1.,0.));
#159 = ADVANCED_FACE('',(#160),#245,.T.);
#160 = FACE_BOUND('',#161,.T.);
#161 = EDGE_LOOP('',(#162,#163,#164,#165,#173,#181,#189,#197,#205,#214,
    #223,#231,#239));
#162 = ORIENTED_EDGE('',*,*,#117,.T.);
#163 = ORIENTED_EDGE('',*,*,#85,.T.);
#164 = ORIENTED_EDGE('',*,*,#149,.T.);
#165 = ORIENTED_EDGE('',*,*,#166,.T.);
#166 = EDGE_CURVE('',#142,#167,#169,.T.);
#167 = VERTEX_POINT('',#168);
#168 = CARTESIAN_POINT('',(-40.,-19.99999999999,0.));
#169 = LINE('',#170,#171);
#170 = CARTESIAN_POINT('',(-55.,-19.99999999999,0.));
#171 = VECTOR('',#172,1.);
#172 = DIRECTION('',(1.,0.,0.));
#173 = ORIENTED_EDGE('',*,*,#174,.T.);
#174 = EDGE_CURVE('',#167,#175,#177,.T.);
#175 = VERTEX_POINT('',#176);
#176 = CARTESIAN_POINT('',(-40.,-10.,0.));
#177 = LINE('',#178,#179);
#178 = CARTESIAN_POINT('',(-40.,3.18460953518,0.));
#179 = VECTOR('',#180,1.);
#180 = DIRECTION('',(0.,1.,0.));
#181 = ORIENTED_EDGE('',*,*,#182,.T.);
#182 = EDGE_CURVE('',#175,#183,#185,.T.);
#183 = VERTEX_POINT('',#184);
#184 = CARTESIAN_POINT('',(-45.,-10.,0.));
#185 = LINE('',#186,#187);
#186 = CARTESIAN_POINT('',(55.,-10.,0.));
#187 = VECTOR('',#188,1.);
#188 = DIRECTION('',(-1.,0.,0.));
#189 = ORIENTED_EDGE('',*,*,#190,.T.);
#190 = EDGE_CURVE('',#183,#191,#193,.T.);
#191 = VERTEX_POINT('',#192);
#192 = CARTESIAN_POINT('',(-45.,10.,0.));
#193 = LINE('',#194,#195);
#194 = CARTESIAN_POINT('',(-45.,-10.,0.));
#195 = VECTOR('',#196,1.);
#196 = DIRECTION('',(0.,1.,0.));
#197 = ORIENTED_EDGE('',*,*,#198,.T.);
#198 = EDGE_CURVE('',#191,#199,#201,.T.);
#199 = VERTEX_POINT('',#200);
#200 = CARTESIAN_POINT('',(30.505081240903,10.,0.));
#201 = LINE('',#202,#203);
#202 = CARTESIAN_POINT('',(-45.,10.,0.));
#203 = VECTOR('',#204,1.);
#204 = DIRECTION('',(1.,0.,0.));
#205 = ORIENTED_EDGE('',*,*,#206,.F.);
#206 = EDGE_CURVE('',#207,#199,#209,.T.);
#207 = VERTEX_POINT('',#208);
#208 = CARTESIAN_POINT('',(79.999978668735,15.,0.));
#209 = CIRCLE('',#210,25.);
#210 = AXIS2_PLACEMENT_3D('',#211,#212,#213);
#211 = CARTESIAN_POINT('',(54.999978668735,15.,0.));
#212 = DIRECTION('',(0.,0.,1.));
#213 = DIRECTION('',(1.,0.,0.));
#214 = ORIENTED_EDGE('',*,*,#215,.F.);
#215 = EDGE_CURVE('',#216,#207,#218,.T.);
#216 = VERTEX_POINT('',#217);
#217 = CARTESIAN_POINT('',(55.,-10.,0.));
#218 = CIRCLE('',#219,25.);
#219 = AXIS2_PLACEMENT_3D('',#220,#221,#222);
#220 = CARTESIAN_POINT('',(54.999978668735,15.,0.));
#221 = DIRECTION('',(0.,0.,1.));
#222 = DIRECTION('',(1.,0.,0.));
#223 = ORIENTED_EDGE('',*,*,#224,.T.);
#224 = EDGE_CURVE('',#216,#225,#227,.T.);
#225 = VERTEX_POINT('',#226);
#226 = CARTESIAN_POINT('',(40.,-10.,0.));
#227 = LINE('',#228,#229);
#228 = CARTESIAN_POINT('',(55.,-10.,0.));
#229 = VECTOR('',#230,1.);
#230 = DIRECTION('',(-1.,0.,0.));
#231 = ORIENTED_EDGE('',*,*,#232,.T.);
#232 = EDGE_CURVE('',#225,#233,#235,.T.);
#233 = VERTEX_POINT('',#234);
#234 = CARTESIAN_POINT('',(40.,-19.99999999999,0.));
#235 = LINE('',#236,#237);
#236 = CARTESIAN_POINT('',(40.,3.18460953518,0.));
#237 = VECTOR('',#238,1.);
#238 = DIRECTION('',(0.,-1.,0.));
#239 = ORIENTED_EDGE('',*,*,#240,.T.);
#240 = EDGE_CURVE('',#233,#100,#241,.T.);
#241 = LINE('',#242,#243);
#242 = CARTESIAN_POINT('',(-55.,-19.99999999999,0.));
#243 = VECTOR('',#244,1.);
#244 = DIRECTION('',(1.,0.,0.));
#245 = PLANE('',#246);
#246 = AXIS2_PLACEMENT_3D('',#247,#248,#249);
#247 = CARTESIAN_POINT('',(14.794145639613,6.369219070359,0.));
#248 = DIRECTION('',(0.,0.,1.));
#249 = DIRECTION('',(1.,0.,0.));
#250 = ADVANCED_FACE('',(#251),#262,.F.);
#251 = FACE_BOUND('',#252,.F.);
#252 = EDGE_LOOP('',(#253,#254,#255,#261));
#253 = ORIENTED_EDGE('',*,*,#69,.T.);
#254 = ORIENTED_EDGE('',*,*,#133,.T.);
#255 = ORIENTED_EDGE('',*,*,#256,.T.);
#256 = EDGE_CURVE('',#134,#102,#257,.T.);
#257 = LINE('',#258,#259);
#258 = CARTESIAN_POINT('',(-55.,-19.99999999999,-100.));
#259 = VECTOR('',#260,1.);
#260 = DIRECTION('',(1.,0.,0.));
#261 = ORIENTED_EDGE('',*,*,#109,.T.);
#262 = PLANE('',#263);
#263 = AXIS2_PLACEMENT_3D('',#264,#265,#266);
#264 = CARTESIAN_POINT('',(14.794145639613,6.369219070359,-100.));
#265 = DIRECTION('',(0.,0.,1.));
#266 = DIRECTION('',(1.,0.,0.));
#267 = ADVANCED_FACE('',(#268),#361,.T.);
#268 = FACE_BOUND('',#269,.T.);
#269 = EDGE_LOOP('',(#270,#271,#272,#273,#274,#275,#283,#291,#299,#307,
    #315,#323,#331,#339,#347,#355));
#270 = ORIENTED_EDGE('',*,*,#166,.F.);
#271 = ORIENTED_EDGE('',*,*,#141,.T.);
#272 = ORIENTED_EDGE('',*,*,#256,.T.);
#273 = ORIENTED_EDGE('',*,*,#99,.F.);
#274 = ORIENTED_EDGE('',*,*,#240,.F.);
#275 = ORIENTED_EDGE('',*,*,#276,.T.);
#276 = EDGE_CURVE('',#233,#277,#279,.T.);
#277 = VERTEX_POINT('',#278);
#278 = CARTESIAN_POINT('',(40.,-19.99999999999,-10.));
#279 = LINE('',#280,#281);
#280 = CARTESIAN_POINT('',(40.,-19.99999999999,-5.));
#281 = VECTOR('',#282,1.);
#282 = DIRECTION('',(-0.,-0.,-1.));
#283 = ORIENTED_EDGE('',*,*,#284,.T.);
#284 = EDGE_CURVE('',#277,#285,#287,.T.);
#285 = VERTEX_POINT('',#286);
#286 = CARTESIAN_POINT('',(24.,-19.99999999999,-10.));
#287 = LINE('',#288,#289);
#288 = CARTESIAN_POINT('',(-15.5,-19.99999999999,-10.));
#289 = VECTOR('',#290,1.);
#290 = DIRECTION('',(-1.,0.,0.));
#291 = ORIENTED_EDGE('',*,*,#292,.T.);
#292 = EDGE_CURVE('',#285,#293,#295,.T.);
#293 = VERTEX_POINT('',#294);
#294 = CARTESIAN_POINT('',(24.,-19.99999999999,0.));
#295 = LINE('',#296,#297);
#296 = CARTESIAN_POINT('',(24.,-19.99999999999,5.));
#297 = VECTOR('',#298,1.);
#298 = DIRECTION('',(0.,0.,1.));
#299 = ORIENTED_EDGE('',*,*,#300,.F.);
#300 = EDGE_CURVE('',#301,#293,#303,.T.);
#301 = VERTEX_POINT('',#302);
#302 = CARTESIAN_POINT('',(8.,-19.99999999999,0.));
#303 = LINE('',#304,#305);
#304 = CARTESIAN_POINT('',(-55.,-19.99999999999,0.));
#305 = VECTOR('',#306,1.);
#306 = DIRECTION('',(1.,0.,0.));
#307 = ORIENTED_EDGE('',*,*,#308,.T.);
#308 = EDGE_CURVE('',#301,#309,#311,.T.);
#309 = VERTEX_POINT('',#310);
#310 = CARTESIAN_POINT('',(8.,-19.99999999999,-10.));
#311 = LINE('',#312,#313);
#312 = CARTESIAN_POINT('',(8.,-19.99999999999,-5.));
#313 = VECTOR('',#314,1.);
#314 = DIRECTION('',(-0.,-0.,-1.));
#315 = ORIENTED_EDGE('',*,*,#316,.T.);
#316 = EDGE_CURVE('',#309,#317,#319,.T.);
#317 = VERTEX_POINT('',#318);
#318 = CARTESIAN_POINT('',(-8.,-19.99999999999,-10.));
#319 = LINE('',#320,#321);
#320 = CARTESIAN_POINT('',(-31.5,-19.99999999999,-10.));
#321 = VECTOR('',#322,1.);
#322 = DIRECTION('',(-1.,0.,0.));
#323 = ORIENTED_EDGE('',*,*,#324,.T.);
#324 = EDGE_CURVE('',#317,#325,#327,.T.);
#325 = VERTEX_POINT('',#326);
#326 = CARTESIAN_POINT('',(-8.,-19.99999999999,0.));
#327 = LINE('',#328,#329);
#328 = CARTESIAN_POINT('',(-8.,-19.99999999999,5.));
#329 = VECTOR('',#330,1.);
#330 = DIRECTION('',(0.,0.,1.));
#331 = ORIENTED_EDGE('',*,*,#332,.F.);
#332 = EDGE_CURVE('',#333,#325,#335,.T.);
#333 = VERTEX_POINT('',#334);
#334 = CARTESIAN_POINT('',(-24.,-19.99999999999,0.));
#335 = LINE('',#336,#337);
#336 = CARTESIAN_POINT('',(-55.,-19.99999999999,0.));
#337 = VECTOR('',#338,1.);
#338 = DIRECTION('',(1.,0.,0.));
#339 = ORIENTED_EDGE('',*,*,#340,.T.);
#340 = EDGE_CURVE('',#333,#341,#343,.T.);
#341 = VERTEX_POINT('',#342);
#342 = CARTESIAN_POINT('',(-24.,-19.99999999999,-10.));
#343 = LINE('',#344,#345);
#344 = CARTESIAN_POINT('',(-24.,-19.99999999999,-5.));
#345 = VECTOR('',#346,1.);
#346 = DIRECTION('',(-0.,-0.,-1.));
#347 = ORIENTED_EDGE('',*,*,#348,.T.);
#348 = EDGE_CURVE('',#341,#349,#351,.T.);
#349 = VERTEX_POINT('',#350);
#350 = CARTESIAN_POINT('',(-40.,-19.99999999999,-10.));
#351 = LINE('',#352,#353);
#352 = CARTESIAN_POINT('',(-47.5,-19.99999999999,-10.));
#353 = VECTOR('',#354,1.);
#354 = DIRECTION('',(-1.,0.,1.1E-16));
#355 = ORIENTED_EDGE('',*,*,#356,.T.);
#356 = EDGE_CURVE('',#349,#167,#357,.T.);
#357 = LINE('',#358,#359);
#358 = CARTESIAN_POINT('',(-40.,-19.99999999999,10.));
#359 = VECTOR('',#360,1.);
#360 = DIRECTION('',(0.,0.,1.));
#361 = PLANE('',#362);
#362 = AXIS2_PLACEMENT_3D('',#363,#364,#365);
#363 = CARTESIAN_POINT('',(-55.,-19.99999999999,0.));
#364 = DIRECTION('',(0.,-1.,0.));
#365 = DIRECTION('',(1.,0.,0.));
#366 = ADVANCED_FACE('',(#367),#385,.T.);
#367 = FACE_BOUND('',#368,.T.);
#368 = EDGE_LOOP('',(#369,#377,#383,#384));
#369 = ORIENTED_EDGE('',*,*,#370,.F.);
#370 = EDGE_CURVE('',#371,#225,#373,.T.);
#371 = VERTEX_POINT('',#372);
#372 = CARTESIAN_POINT('',(40.,-10.,-10.));
#373 = LINE('',#374,#375);
#374 = CARTESIAN_POINT('',(40.,-10.,-5.));
#375 = VECTOR('',#376,1.);
#376 = DIRECTION('',(0.,0.,1.));
#377 = ORIENTED_EDGE('',*,*,#378,.T.);
#378 = EDGE_CURVE('',#371,#277,#379,.T.);
#379 = LINE('',#380,#381);
#380 = CARTESIAN_POINT('',(40.,-2.22E-15,-10.));
#381 = VECTOR('',#382,1.);
#382 = DIRECTION('',(0.,-1.,2.2E-16));
#383 = ORIENTED_EDGE('',*,*,#276,.F.);
#384 = ORIENTED_EDGE('',*,*,#232,.F.);
#385 = PLANE('',#386);
#386 = AXIS2_PLACEMENT_3D('',#387,#388,#389);
#387 = CARTESIAN_POINT('',(40.,-2.22E-15,-10.));
#388 = DIRECTION('',(-1.,0.,0.));
#389 = DIRECTION('',(0.,2.2E-16,1.));
#390 = ADVANCED_FACE('',(#391),#496,.T.);
#391 = FACE_BOUND('',#392,.T.);
#392 = EDGE_LOOP('',(#393,#394,#402,#410,#416,#417,#425,#433,#441,#449,
    #457,#465,#473,#481,#489,#495));
#393 = ORIENTED_EDGE('',*,*,#224,.F.);
#394 = ORIENTED_EDGE('',*,*,#395,.T.);
#395 = EDGE_CURVE('',#216,#396,#398,.T.);
#396 = VERTEX_POINT('',#397);
#397 = CARTESIAN_POINT('',(55.,-10.,-15.));
#398 = LINE('',#399,#400);
#399 = CARTESIAN_POINT('',(55.,-10.,0.));
#400 = VECTOR('',#401,1.);
#401 = DIRECTION('',(-0.,-0.,-1.));
#402 = ORIENTED_EDGE('',*,*,#403,.T.);
#403 = EDGE_CURVE('',#396,#404,#406,.T.);
#404 = VERTEX_POINT('',#405);
#405 = CARTESIAN_POINT('',(-45.,-10.,-15.));
#406 = LINE('',#407,#408);
#407 = CARTESIAN_POINT('',(55.,-10.,-15.));
#408 = VECTOR('',#409,1.);
#409 = DIRECTION('',(-1.,0.,0.));
#410 = ORIENTED_EDGE('',*,*,#411,.F.);
#411 = EDGE_CURVE('',#183,#404,#412,.T.);
#412 = LINE('',#413,#414);
#413 = CARTESIAN_POINT('',(-45.,-10.,0.));
#414 = VECTOR('',#415,1.);
#415 = DIRECTION('',(-0.,-0.,-1.));
#416 = ORIENTED_EDGE('',*,*,#182,.F.);
#417 = ORIENTED_EDGE('',*,*,#418,.T.);
#418 = EDGE_CURVE('',#175,#419,#421,.T.);
#419 = VERTEX_POINT('',#420);
#420 = CARTESIAN_POINT('',(-40.,-10.,-10.));
#421 = LINE('',#422,#423);
#422 = CARTESIAN_POINT('',(-40.,-10.,10.));
#423 = VECTOR('',#424,1.);
#424 = DIRECTION('',(0.,0.,-1.));
#425 = ORIENTED_EDGE('',*,*,#426,.T.);
#426 = EDGE_CURVE('',#419,#427,#429,.T.);
#427 = VERTEX_POINT('',#428);
#428 = CARTESIAN_POINT('',(-24.,-10.,-10.));
#429 = LINE('',#430,#431);
#430 = CARTESIAN_POINT('',(7.5,-10.,-10.));
#431 = VECTOR('',#432,1.);
#432 = DIRECTION('',(1.,0.,-1.1E-16));
#433 = ORIENTED_EDGE('',*,*,#434,.T.);
#434 = EDGE_CURVE('',#427,#435,#437,.T.);
#435 = VERTEX_POINT('',#436);
#436 = CARTESIAN_POINT('',(-24.,-10.,0.));
#437 = LINE('',#438,#439);
#438 = CARTESIAN_POINT('',(-24.,-10.,-5.));
#439 = VECTOR('',#440,1.);
#440 = DIRECTION('',(0.,0.,1.));
#441 = ORIENTED_EDGE('',*,*,#442,.F.);
#442 = EDGE_CURVE('',#443,#435,#445,.T.);
#443 = VERTEX_POINT('',#444);
#444 = CARTESIAN_POINT('',(-8.,-10.,0.));
#445 = LINE('',#446,#447);
#446 = CARTESIAN_POINT('',(55.,-10.,0.));
#447 = VECTOR('',#448,1.);
#448 = DIRECTION('',(-1.,0.,0.));
#449 = ORIENTED_EDGE('',*,*,#450,.T.);
#450 = EDGE_CURVE('',#443,#451,#453,.T.);
#451 = VERTEX_POINT('',#452);
#452 = CARTESIAN_POINT('',(-8.,-10.,-10.));
#453 = LINE('',#454,#455);
#454 = CARTESIAN_POINT('',(-8.,-10.,5.));
#455 = VECTOR('',#456,1.);
#456 = DIRECTION('',(0.,0.,-1.));
#457 = ORIENTED_EDGE('',*,*,#458,.T.);
#458 = EDGE_CURVE('',#451,#459,#461,.T.);
#459 = VERTEX_POINT('',#460);
#460 = CARTESIAN_POINT('',(8.,-10.,-10.));
#461 = LINE('',#462,#463);
#462 = CARTESIAN_POINT('',(23.5,-10.,-10.));
#463 = VECTOR('',#464,1.);
#464 = DIRECTION('',(1.,0.,0.));
#465 = ORIENTED_EDGE('',*,*,#466,.T.);
#466 = EDGE_CURVE('',#459,#467,#469,.T.);
#467 = VERTEX_POINT('',#468);
#468 = CARTESIAN_POINT('',(8.,-10.,0.));
#469 = LINE('',#470,#471);
#470 = CARTESIAN_POINT('',(8.,-10.,-5.));
#471 = VECTOR('',#472,1.);
#472 = DIRECTION('',(0.,0.,1.));
#473 = ORIENTED_EDGE('',*,*,#474,.F.);
#474 = EDGE_CURVE('',#475,#467,#477,.T.);
#475 = VERTEX_POINT('',#476);
#476 = CARTESIAN_POINT('',(24.,-10.,0.));
#477 = LINE('',#478,#479);
#478 = CARTESIAN_POINT('',(55.,-10.,0.));
#479 = VECTOR('',#480,1.);
#480 = DIRECTION('',(-1.,0.,0.));
#481 = ORIENTED_EDGE('',*,*,#482,.T.);
#482 = EDGE_CURVE('',#475,#483,#485,.T.);
#483 = VERTEX_POINT('',#484);
#484 = CARTESIAN_POINT('',(24.,-10.,-10.));
#485 = LINE('',#486,#487);
#486 = CARTESIAN_POINT('',(24.,-10.,5.));
#487 = VECTOR('',#488,1.);
#488 = DIRECTION('',(0.,0.,-1.));
#489 = ORIENTED_EDGE('',*,*,#490,.T.);
#490 = EDGE_CURVE('',#483,#371,#491,.T.);
#491 = LINE('',#492,#493);
#492 = CARTESIAN_POINT('',(39.5,-10.,-10.));
#493 = VECTOR('',#494,1.);
#494 = DIRECTION('',(1.,0.,0.));
#495 = ORIENTED_EDGE('',*,*,#370,.T.);
#496 = PLANE('',#497);
#497 = AXIS2_PLACEMENT_3D('',#498,#499,#500);
#498 = CARTESIAN_POINT('',(55.,-10.,0.));
#499 = DIRECTION('',(0.,1.,0.));
#500 = DIRECTION('',(-1.,0.,0.));
#501 = ADVANCED_FACE('',(#502),#538,.F.);
#502 = FACE_BOUND('',#503,.F.);
#503 = EDGE_LOOP('',(#504,#505,#513,#520,#521,#522,#523,#532));
#504 = ORIENTED_EDGE('',*,*,#206,.F.);
#505 = ORIENTED_EDGE('',*,*,#506,.T.);
#506 = EDGE_CURVE('',#207,#507,#509,.T.);
#507 = VERTEX_POINT('',#508);
#508 = CARTESIAN_POINT('',(79.999978668735,15.,-50.));
#509 = LINE('',#510,#511);
#510 = CARTESIAN_POINT('',(79.999978668735,15.,0.));
#511 = VECTOR('',#512,1.);
#512 = DIRECTION('',(-0.,-0.,-1.));
#513 = ORIENTED_EDGE('',*,*,#514,.T.);
#514 = EDGE_CURVE('',#507,#507,#515,.T.);
#515 = CIRCLE('',#516,25.);
#516 = AXIS2_PLACEMENT_3D('',#517,#518,#519);
#517 = CARTESIAN_POINT('',(54.999978668735,15.,-50.));
#518 = DIRECTION('',(0.,0.,1.));
#519 = DIRECTION('',(1.,0.,0.));
#520 = ORIENTED_EDGE('',*,*,#506,.F.);
#521 = ORIENTED_EDGE('',*,*,#215,.F.);
#522 = ORIENTED_EDGE('',*,*,#395,.T.);
#523 = ORIENTED_EDGE('',*,*,#524,.F.);
#524 = EDGE_CURVE('',#525,#396,#527,.T.);
#525 = VERTEX_POINT('',#526);
#526 = CARTESIAN_POINT('',(30.505081240903,10.,-15.));
#527 = CIRCLE('',#528,25.);
#528 = AXIS2_PLACEMENT_3D('',#529,#530,#531);
#529 = CARTESIAN_POINT('',(54.999978668735,15.,-15.));
#530 = DIRECTION('',(0.,0.,1.));
#531 = DIRECTION('',(1.,0.,0.));
#532 = ORIENTED_EDGE('',*,*,#533,.T.);
#533 = EDGE_CURVE('',#525,#199,#534,.T.);
#534 = LINE('',#535,#536);
#535 = CARTESIAN_POINT('',(30.505081240903,10.,0.));
#536 = VECTOR('',#537,1.);
#537 = DIRECTION('',(0.,0.,1.));
#538 = CYLINDRICAL_SURFACE('',#539,25.);
#539 = AXIS2_PLACEMENT_3D('',#540,#541,#542);
#540 = CARTESIAN_POINT('',(54.999978668735,15.,0.));
#541 = DIRECTION('',(0.,0.,1.));
#542 = DIRECTION('',(1.,0.,0.));
#543 = ADVANCED_FACE('',(#544),#562,.T.);
#544 = FACE_BOUND('',#545,.T.);
#545 = EDGE_LOOP('',(#546,#547,#555,#561));
#546 = ORIENTED_EDGE('',*,*,#198,.F.);
#547 = ORIENTED_EDGE('',*,*,#548,.T.);
#548 = EDGE_CURVE('',#191,#549,#551,.T.);
#549 = VERTEX_POINT('',#550);
#550 = CARTESIAN_POINT('',(-45.,10.,-15.));
#551 = LINE('',#552,#553);
#552 = CARTESIAN_POINT('',(-45.,10.,0.));
#553 = VECTOR('',#554,1.);
#554 = DIRECTION('',(-0.,-0.,-1.));
#555 = ORIENTED_EDGE('',*,*,#556,.T.);
#556 = EDGE_CURVE('',#549,#525,#557,.T.);
#557 = LINE('',#558,#559);
#558 = CARTESIAN_POINT('',(-45.,10.,-15.));
#559 = VECTOR('',#560,1.);
#560 = DIRECTION('',(1.,0.,0.));
#561 = ORIENTED_EDGE('',*,*,#533,.T.);
#562 = PLANE('',#563);
#563 = AXIS2_PLACEMENT_3D('',#564,#565,#566);
#564 = CARTESIAN_POINT('',(-45.,10.,0.));
#565 = DIRECTION('',(0.,-1.,0.));
#566 = DIRECTION('',(1.,0.,0.));
#567 = ADVANCED_FACE('',(#568),#579,.T.);
#568 = FACE_BOUND('',#569,.T.);
#569 = EDGE_LOOP('',(#570,#571,#577,#578));
#570 = ORIENTED_EDGE('',*,*,#411,.T.);
#571 = ORIENTED_EDGE('',*,*,#572,.T.);
#572 = EDGE_CURVE('',#404,#549,#573,.T.);
#573 = LINE('',#574,#575);
#574 = CARTESIAN_POINT('',(-45.,-10.,-15.));
#575 = VECTOR('',#576,1.);
#576 = DIRECTION('',(0.,1.,0.));
#577 = ORIENTED_EDGE('',*,*,#548,.F.);
#578 = ORIENTED_EDGE('',*,*,#190,.F.);
#579 = PLANE('',#580);
#580 = AXIS2_PLACEMENT_3D('',#581,#582,#583);
#581 = CARTESIAN_POINT('',(-45.,-10.,0.));
#582 = DIRECTION('',(1.,0.,0.));
#583 = DIRECTION('',(0.,1.,0.));
#584 = ADVANCED_FACE('',(#585),#596,.T.);
#585 = FACE_BOUND('',#586,.T.);
#586 = EDGE_LOOP('',(#587,#593,#594,#595));
#587 = ORIENTED_EDGE('',*,*,#588,.F.);
#588 = EDGE_CURVE('',#419,#349,#589,.T.);
#589 = LINE('',#590,#591);
#590 = CARTESIAN_POINT('',(-40.,-2.22E-15,-10.));
#591 = VECTOR('',#592,1.);
#592 = DIRECTION('',(0.,-1.,2.2E-16));
#593 = ORIENTED_EDGE('',*,*,#418,.F.);
#594 = ORIENTED_EDGE('',*,*,#174,.F.);
#595 = ORIENTED_EDGE('',*,*,#356,.F.);
#596 = PLANE('',#597);
#597 = AXIS2_PLACEMENT_3D('',#598,#599,#600);
#598 = CARTESIAN_POINT('',(-40.,4.44E-15,20.));
#599 = DIRECTION('',(1.,0.,0.));
#600 = DIRECTION('',(0.,-2.2E-16,-1.));
#601 = ADVANCED_FACE('',(#602),#613,.T.);
#602 = FACE_BOUND('',#603,.T.);
#603 = EDGE_LOOP('',(#604,#605,#606,#607));
#604 = ORIENTED_EDGE('',*,*,#426,.F.);
#605 = ORIENTED_EDGE('',*,*,#588,.T.);
#606 = ORIENTED_EDGE('',*,*,#348,.F.);
#607 = ORIENTED_EDGE('',*,*,#608,.F.);
#608 = EDGE_CURVE('',#427,#341,#609,.T.);
#609 = LINE('',#610,#611);
#610 = CARTESIAN_POINT('',(-24.,-2.22E-15,-10.));
#611 = VECTOR('',#612,1.);
#612 = DIRECTION('',(0.,-1.,2.2E-16));
#613 = PLANE('',#614);
#614 = AXIS2_PLACEMENT_3D('',#615,#616,#617);
#615 = CARTESIAN_POINT('',(-40.,-2.22E-15,-10.));
#616 = DIRECTION('',(1.1E-16,2.2E-16,1.));
#617 = DIRECTION('',(1.,0.,-1.1E-16));
#618 = ADVANCED_FACE('',(#619),#630,.T.);
#619 = FACE_BOUND('',#620,.T.);
#620 = EDGE_LOOP('',(#621,#622,#623,#624));
#621 = ORIENTED_EDGE('',*,*,#434,.F.);
#622 = ORIENTED_EDGE('',*,*,#608,.T.);
#623 = ORIENTED_EDGE('',*,*,#340,.F.);
#624 = ORIENTED_EDGE('',*,*,#625,.F.);
#625 = EDGE_CURVE('',#435,#333,#626,.T.);
#626 = LINE('',#627,#628);
#627 = CARTESIAN_POINT('',(-24.,3.18460953518,0.));
#628 = VECTOR('',#629,1.);
#629 = DIRECTION('',(0.,-1.,0.));
#630 = PLANE('',#631);
#631 = AXIS2_PLACEMENT_3D('',#632,#633,#634);
#632 = CARTESIAN_POINT('',(-24.,-2.22E-15,-10.));
#633 = DIRECTION('',(-1.,0.,0.));
#634 = DIRECTION('',(0.,2.2E-16,1.));
#635 = ADVANCED_FACE('',(#636),#647,.T.);
#636 = FACE_BOUND('',#637,.T.);
#637 = EDGE_LOOP('',(#638,#639,#640,#646));
#638 = ORIENTED_EDGE('',*,*,#625,.T.);
#639 = ORIENTED_EDGE('',*,*,#332,.T.);
#640 = ORIENTED_EDGE('',*,*,#641,.T.);
#641 = EDGE_CURVE('',#325,#443,#642,.T.);
#642 = LINE('',#643,#644);
#643 = CARTESIAN_POINT('',(-8.,3.18460953518,0.));
#644 = VECTOR('',#645,1.);
#645 = DIRECTION('',(0.,1.,0.));
#646 = ORIENTED_EDGE('',*,*,#442,.T.);
#647 = PLANE('',#648);
#648 = AXIS2_PLACEMENT_3D('',#649,#650,#651);
#649 = CARTESIAN_POINT('',(14.794145639613,6.369219070359,0.));
#650 = DIRECTION('',(0.,0.,1.));
#651 = DIRECTION('',(1.,0.,0.));
#652 = ADVANCED_FACE('',(#653),#664,.T.);
#653 = FACE_BOUND('',#654,.T.);
#654 = EDGE_LOOP('',(#655,#661,#662,#663));
#655 = ORIENTED_EDGE('',*,*,#656,.F.);
#656 = EDGE_CURVE('',#451,#317,#657,.T.);
#657 = LINE('',#658,#659);
#658 = CARTESIAN_POINT('',(-8.,-2.22E-15,-10.));
#659 = VECTOR('',#660,1.);
#660 = DIRECTION('',(0.,-1.,2.2E-16));
#661 = ORIENTED_EDGE('',*,*,#450,.F.);
#662 = ORIENTED_EDGE('',*,*,#641,.F.);
#663 = ORIENTED_EDGE('',*,*,#324,.F.);
#664 = PLANE('',#665);
#665 = AXIS2_PLACEMENT_3D('',#666,#667,#668);
#666 = CARTESIAN_POINT('',(-8.,2.22E-15,10.));
#667 = DIRECTION('',(1.,0.,0.));
#668 = DIRECTION('',(0.,-2.2E-16,-1.));
#669 = ADVANCED_FACE('',(#670),#681,.T.);
#670 = FACE_BOUND('',#671,.T.);
#671 = EDGE_LOOP('',(#672,#673,#674,#675));
#672 = ORIENTED_EDGE('',*,*,#458,.F.);
#673 = ORIENTED_EDGE('',*,*,#656,.T.);
#674 = ORIENTED_EDGE('',*,*,#316,.F.);
#675 = ORIENTED_EDGE('',*,*,#676,.F.);
#676 = EDGE_CURVE('',#459,#309,#677,.T.);
#677 = LINE('',#678,#679);
#678 = CARTESIAN_POINT('',(8.,-2.22E-15,-10.));
#679 = VECTOR('',#680,1.);
#680 = DIRECTION('',(0.,-1.,2.2E-16));
#681 = PLANE('',#682);
#682 = AXIS2_PLACEMENT_3D('',#683,#684,#685);
#683 = CARTESIAN_POINT('',(-8.,-2.22E-15,-10.));
#684 = DIRECTION('',(0.,2.2E-16,1.));
#685 = DIRECTION('',(1.,0.,-0.));
#686 = ADVANCED_FACE('',(#687),#698,.T.);
#687 = FACE_BOUND('',#688,.T.);
#688 = EDGE_LOOP('',(#689,#690,#691,#692));
#689 = ORIENTED_EDGE('',*,*,#466,.F.);
#690 = ORIENTED_EDGE('',*,*,#676,.T.);
#691 = ORIENTED_EDGE('',*,*,#308,.F.);
#692 = ORIENTED_EDGE('',*,*,#693,.F.);
#693 = EDGE_CURVE('',#467,#301,#694,.T.);
#694 = LINE('',#695,#696);
#695 = CARTESIAN_POINT('',(8.,3.18460953518,0.));
#696 = VECTOR('',#697,1.);
#697 = DIRECTION('',(0.,-1.,0.));
#698 = PLANE('',#699);
#699 = AXIS2_PLACEMENT_3D('',#700,#701,#702);
#700 = CARTESIAN_POINT('',(8.,-2.22E-15,-10.));
#701 = DIRECTION('',(-1.,0.,0.));
#702 = DIRECTION('',(0.,2.2E-16,1.));
#703 = ADVANCED_FACE('',(#704),#715,.T.);
#704 = FACE_BOUND('',#705,.T.);
#705 = EDGE_LOOP('',(#706,#707,#713,#714));
#706 = ORIENTED_EDGE('',*,*,#300,.T.);
#707 = ORIENTED_EDGE('',*,*,#708,.T.);
#708 = EDGE_CURVE('',#293,#475,#709,.T.);
#709 = LINE('',#710,#711);
#710 = CARTESIAN_POINT('',(24.,3.18460953518,0.));
#711 = VECTOR('',#712,1.);
#712 = DIRECTION('',(0.,1.,0.));
#713 = ORIENTED_EDGE('',*,*,#474,.T.);
#714 = ORIENTED_EDGE('',*,*,#693,.T.);
#715 = PLANE('',#716);
#716 = AXIS2_PLACEMENT_3D('',#717,#718,#719);
#717 = CARTESIAN_POINT('',(14.794145639613,6.369219070359,0.));
#718 = DIRECTION('',(0.,0.,1.));
#719 = DIRECTION('',(1.,0.,0.));
#720 = ADVANCED_FACE('',(#721),#732,.T.);
#721 = FACE_BOUND('',#722,.T.);
#722 = EDGE_LOOP('',(#723,#729,#730,#731));
#723 = ORIENTED_EDGE('',*,*,#724,.F.);
#724 = EDGE_CURVE('',#483,#285,#725,.T.);
#725 = LINE('',#726,#727);
#726 = CARTESIAN_POINT('',(24.,-2.22E-15,-10.));
#727 = VECTOR('',#728,1.);
#728 = DIRECTION('',(0.,-1.,2.2E-16));
#729 = ORIENTED_EDGE('',*,*,#482,.F.);
#730 = ORIENTED_EDGE('',*,*,#708,.F.);
#731 = ORIENTED_EDGE('',*,*,#292,.F.);
#732 = PLANE('',#733);
#733 = AXIS2_PLACEMENT_3D('',#734,#735,#736);
#734 = CARTESIAN_POINT('',(24.,2.22E-15,10.));
#735 = DIRECTION('',(1.,0.,0.));
#736 = DIRECTION('',(0.,-2.2E-16,-1.));
#737 = ADVANCED_FACE('',(#738),#744,.T.);
#738 = FACE_BOUND('',#739,.T.);
#739 = EDGE_LOOP('',(#740,#741,#742,#743));
#740 = ORIENTED_EDGE('',*,*,#490,.F.);
#741 = ORIENTED_EDGE('',*,*,#724,.T.);
#742 = ORIENTED_EDGE('',*,*,#284,.F.);
#743 = ORIENTED_EDGE('',*,*,#378,.F.);
#744 = PLANE('',#745);
#745 = AXIS2_PLACEMENT_3D('',#746,#747,#748);
#746 = CARTESIAN_POINT('',(24.,-2.22E-15,-10.));
#747 = DIRECTION('',(0.,2.2E-16,1.));
#748 = DIRECTION('',(1.,0.,-0.));
#749 = ADVANCED_FACE('',(#750),#756,.T.);
#750 = FACE_BOUND('',#751,.T.);
#751 = EDGE_LOOP('',(#752,#753,#754,#755));
#752 = ORIENTED_EDGE('',*,*,#556,.F.);
#753 = ORIENTED_EDGE('',*,*,#572,.F.);
#754 = ORIENTED_EDGE('',*,*,#403,.F.);
#755 = ORIENTED_EDGE('',*,*,#524,.F.);
#756 = PLANE('',#757);
#757 = AXIS2_PLACEMENT_3D('',#758,#759,#760);
#758 = CARTESIAN_POINT('',(5.,0.,-15.));
#759 = DIRECTION('',(0.,0.,1.));
#760 = DIRECTION('',(1.,0.,0.));
#761 = ADVANCED_FACE('',(#762),#765,.T.);
#762 = FACE_BOUND('',#763,.T.);
#763 = EDGE_LOOP('',(#764));
#764 = ORIENTED_EDGE('',*,*,#514,.T.);
#765 = PLANE('',#766);
#766 = AXIS2_PLACEMENT_3D('',#767,#768,#769);
#767 = CARTESIAN_POINT('',(54.999978668735,15.,-50.));
#768 = DIRECTION('',(0.,0.,1.));
#769 = DIRECTION('',(1.,0.,0.));
#770 = ( GEOMETRIC_REPRESENTATION_CONTEXT(3) 
GLOBAL_UNCERTAINTY_ASSIGNED_CONTEXT((#774)) GLOBAL_UNIT_ASSIGNED_CONTEXT
((#771,#772,#773)) REPRESENTATION_CONTEXT('Context #1',
  '3D Context with UNIT and UNCERTAINTY') );
#771 = ( LENGTH_UNIT() NAMED_UNIT(*) SI_UNIT(.MILLI.,.METRE.) );
#772 = ( NAMED_UNIT(*) PLANE_ANGLE_UNIT() SI_UNIT($,.RADIAN.) );
#773 = ( NAMED_UNIT(*) SI_UNIT($,.STERADIAN.) SOLID_ANGLE_UNIT() );
#774 = UNCERTAINTY_MEASURE_WITH_UNIT(LENGTH_MEASURE(1.E-06),#771,
  'distance_accuracy_value','confusion accuracy');
#775 = CONTEXT_DEPENDENT_SHAPE_REPRESENTATION(#776,#778);
#776 = ( REPRESENTATION_RELATIONSHIP('','',#52,#10) 
REPRESENTATION_RELATIONSHIP_WITH_TRANSFORMATION(#777) 
SHAPE_REPRESENTATION_RELATIONSHIP() );
#777 = ITEM_DEFINED_TRANSFORMATION('','',#11,#15);
#778 = PRODUCT_DEFINITION_SHAPE('Placement','Placement of an item',#779
  );
#779 = NEXT_ASSEMBLY_USAGE_OCCURRENCE('1','Body','',#5,#47,$);
#780 = PRODUCT_RELATED_PRODUCT_CATEGORY('part',$,(#49));
#781 = SHAPE_DEFINITION_REPRESENTATION(#782,#788);
#782 = PRODUCT_DEFINITION_SHAPE('','',#783);
#783 = PRODUCT_DEFINITION('design','',#784,#787);
#784 = PRODUCT_DEFINITION_FORMATION('','',#785);
#785 = PRODUCT('Pocket002','Pocket002','',(#786));
#786 = PRODUCT_CONTEXT('',#2,'mechanical');
#787 = PRODUCT_DEFINITION_CONTEXT('part definition',#2,'design');
#788 = ADVANCED_BREP_SHAPE_REPRESENTATION('',(#11,#789),#1506);
#789 = MANIFOLD_SOLID_BREP('',#790);
#790 = CLOSED_SHELL('',(#791,#831,#864,#895,#986,#1003,#1102,#1126,#1237
    ,#1279,#1303,#1320,#1337,#1354,#1371,#1388,#1405,#1422,#1439,#1456,
    #1473,#1485,#1497));
#791 = ADVANCED_FACE('',(#792),#826,.T.);
#792 = FACE_BOUND('',#793,.T.);
#793 = EDGE_LOOP('',(#794,#804,#812,#820));
#794 = ORIENTED_EDGE('',*,*,#795,.T.);
#795 = EDGE_CURVE('',#796,#798,#800,.T.);
#796 = VERTEX_POINT('',#797);
#797 = CARTESIAN_POINT('',(20.358962517357,20.,0.));
#798 = VERTEX_POINT('',#799);
#799 = CARTESIAN_POINT('',(20.358962517357,20.,-100.));
#800 = LINE('',#801,#802);
#801 = CARTESIAN_POINT('',(20.358962517357,20.,0.));
#802 = VECTOR('',#803,1.);
#803 = DIRECTION('',(-0.,-0.,-1.));
#804 = ORIENTED_EDGE('',*,*,#805,.T.);
#805 = EDGE_CURVE('',#798,#806,#808,.T.);
#806 = VERTEX_POINT('',#807);
#807 = CARTESIAN_POINT('',(-55.,20.,-100.));
#808 = LINE('',#809,#810);
#809 = CARTESIAN_POINT('',(20.358962517357,20.,-100.));
#810 = VECTOR('',#811,1.);
#811 = DIRECTION('',(-1.,0.,0.));
#812 = ORIENTED_EDGE('',*,*,#813,.F.);
#813 = EDGE_CURVE('',#814,#806,#816,.T.);
#814 = VERTEX_POINT('',#815);
#815 = CARTESIAN_POINT('',(-55.,20.,0.));
#816 = LINE('',#817,#818);
#817 = CARTESIAN_POINT('',(-55.,20.,0.));
#818 = VECTOR('',#819,1.);
#819 = DIRECTION('',(-0.,-0.,-1.));
#820 = ORIENTED_EDGE('',*,*,#821,.F.);
#821 = EDGE_CURVE('',#796,#814,#822,.T.);
#822 = LINE('',#823,#824);
#823 = CARTESIAN_POINT('',(20.358962517357,20.,0.));
#824 = VECTOR('',#825,1.);
#825 = DIRECTION('',(-1.,0.,0.));
#826 = PLANE('',#827);
#827 = AXIS2_PLACEMENT_3D('',#828,#829,#830);
#828 = CARTESIAN_POINT('',(20.358962517357,20.,0.));
#829 = DIRECTION('',(0.,1.,0.));
#830 = DIRECTION('',(-1.,0.,0.));
#831 = ADVANCED_FACE('',(#832),#859,.T.);
#832 = FACE_BOUND('',#833,.T.);
#833 = EDGE_LOOP('',(#834,#844,#851,#852));
#834 = ORIENTED_EDGE('',*,*,#835,.T.);
#835 = EDGE_CURVE('',#836,#838,#840,.T.);
#836 = VERTEX_POINT('',#837);
#837 = CARTESIAN_POINT('',(55.,-19.99999999999,0.));
#838 = VERTEX_POINT('',#839);
#839 = CARTESIAN_POINT('',(55.,-19.99999999999,-100.));
#840 = LINE('',#841,#842);
#841 = CARTESIAN_POINT('',(55.,-19.99999999999,0.));
#842 = VECTOR('',#843,1.);
#843 = DIRECTION('',(-0.,-0.,-1.));
#844 = ORIENTED_EDGE('',*,*,#845,.T.);
#845 = EDGE_CURVE('',#838,#798,#846,.T.);
#846 = CIRCLE('',#847,35.);
#847 = AXIS2_PLACEMENT_3D('',#848,#849,#850);
#848 = CARTESIAN_POINT('',(54.999978668735,15.,-100.));
#849 = DIRECTION('',(0.,0.,1.));
#850 = DIRECTION('',(1.,0.,0.));
#851 = ORIENTED_EDGE('',*,*,#795,.F.);
#852 = ORIENTED_EDGE('',*,*,#853,.F.);
#853 = EDGE_CURVE('',#836,#796,#854,.T.);
#854 = CIRCLE('',#855,35.);
#855 = AXIS2_PLACEMENT_3D('',#856,#857,#858);
#856 = CARTESIAN_POINT('',(54.999978668735,15.,0.));
#857 = DIRECTION('',(0.,0.,1.));
#858 = DIRECTION('',(1.,0.,0.));
#859 = CYLINDRICAL_SURFACE('',#860,35.);
#860 = AXIS2_PLACEMENT_3D('',#861,#862,#863);
#861 = CARTESIAN_POINT('',(54.999978668735,15.,0.));
#862 = DIRECTION('',(0.,0.,1.));
#863 = DIRECTION('',(1.,0.,0.));
#864 = ADVANCED_FACE('',(#865),#890,.T.);
#865 = FACE_BOUND('',#866,.T.);
#866 = EDGE_LOOP('',(#867,#868,#876,#884));
#867 = ORIENTED_EDGE('',*,*,#813,.T.);
#868 = ORIENTED_EDGE('',*,*,#869,.T.);
#869 = EDGE_CURVE('',#806,#870,#872,.T.);
#870 = VERTEX_POINT('',#871);
#871 = CARTESIAN_POINT('',(-55.,-19.99999999999,-100.));
#872 = LINE('',#873,#874);
#873 = CARTESIAN_POINT('',(-55.,20.,-100.));
#874 = VECTOR('',#875,1.);
#875 = DIRECTION('',(0.,-1.,0.));
#876 = ORIENTED_EDGE('',*,*,#877,.F.);
#877 = EDGE_CURVE('',#878,#870,#880,.T.);
#878 = VERTEX_POINT('',#879);
#879 = CARTESIAN_POINT('',(-55.,-19.99999999999,0.));
#880 = LINE('',#881,#882);
#881 = CARTESIAN_POINT('',(-55.,-19.99999999999,0.));
#882 = VECTOR('',#883,1.);
#883 = DIRECTION('',(-0.,-0.,-1.));
#884 = ORIENTED_EDGE('',*,*,#885,.F.);
#885 = EDGE_CURVE('',#814,#878,#886,.T.);
#886 = LINE('',#887,#888);
#887 = CARTESIAN_POINT('',(-55.,20.,0.));
#888 = VECTOR('',#889,1.);
#889 = DIRECTION('',(0.,-1.,0.));
#890 = PLANE('',#891);
#891 = AXIS2_PLACEMENT_3D('',#892,#893,#894);
#892 = CARTESIAN_POINT('',(-55.,20.,0.));
#893 = DIRECTION('',(-1.,0.,0.));
#894 = DIRECTION('',(0.,-1.,0.));
#895 = ADVANCED_FACE('',(#896),#981,.T.);
#896 = FACE_BOUND('',#897,.T.);
#897 = EDGE_LOOP('',(#898,#899,#900,#901,#909,#917,#925,#933,#941,#950,
    #959,#967,#975));
#898 = ORIENTED_EDGE('',*,*,#853,.T.);
#899 = ORIENTED_EDGE('',*,*,#821,.T.);
#900 = ORIENTED_EDGE('',*,*,#885,.T.);
#901 = ORIENTED_EDGE('',*,*,#902,.T.);
#902 = EDGE_CURVE('',#878,#903,#905,.T.);
#903 = VERTEX_POINT('',#904);
#904 = CARTESIAN_POINT('',(-40.,-19.99999999999,0.));
#905 = LINE('',#906,#907);
#906 = CARTESIAN_POINT('',(-55.,-19.99999999999,0.));
#907 = VECTOR('',#908,1.);
#908 = DIRECTION('',(1.,0.,0.));
#909 = ORIENTED_EDGE('',*,*,#910,.T.);
#910 = EDGE_CURVE('',#903,#911,#913,.T.);
#911 = VERTEX_POINT('',#912);
#912 = CARTESIAN_POINT('',(-40.,-10.,0.));
#913 = LINE('',#914,#915);
#914 = CARTESIAN_POINT('',(-40.,3.18460953518,0.));
#915 = VECTOR('',#916,1.);
#916 = DIRECTION('',(0.,1.,0.));
#917 = ORIENTED_EDGE('',*,*,#918,.T.);
#918 = EDGE_CURVE('',#911,#919,#921,.T.);
#919 = VERTEX_POINT('',#920);
#920 = CARTESIAN_POINT('',(-45.,-10.,0.));
#921 = LINE('',#922,#923);
#922 = CARTESIAN_POINT('',(55.,-10.,0.));
#923 = VECTOR('',#924,1.);
#924 = DIRECTION('',(-1.,0.,0.));
#925 = ORIENTED_EDGE('',*,*,#926,.T.);
#926 = EDGE_CURVE('',#919,#927,#929,.T.);
#927 = VERTEX_POINT('',#928);
#928 = CARTESIAN_POINT('',(-45.,10.,0.));
#929 = LINE('',#930,#931);
#930 = CARTESIAN_POINT('',(-45.,-10.,0.));
#931 = VECTOR('',#932,1.);
#932 = DIRECTION('',(0.,1.,0.));
#933 = ORIENTED_EDGE('',*,*,#934,.T.);
#934 = EDGE_CURVE('',#927,#935,#937,.T.);
#935 = VERTEX_POINT('',#936);
#936 = CARTESIAN_POINT('',(30.505081240903,10.,0.));
#937 = LINE('',#938,#939);
#938 = CARTESIAN_POINT('',(-45.,10.,0.));
#939 = VECTOR('',#940,1.);
#940 = DIRECTION('',(1.,0.,0.));
#941 = ORIENTED_EDGE('',*,*,#942,.F.);
#942 = EDGE_CURVE('',#943,#935,#945,.T.);
#943 = VERTEX_POINT('',#944);
#944 = CARTESIAN_POINT('',(79.999978668735,15.,0.));
#945 = CIRCLE('',#946,25.);
#946 = AXIS2_PLACEMENT_3D('',#947,#948,#949);
#947 = CARTESIAN_POINT('',(54.999978668735,15.,0.));
#948 = DIRECTION('',(0.,0.,1.));
#949 = DIRECTION('',(1.,0.,0.));
#950 = ORIENTED_EDGE('',*,*,#951,.F.);
#951 = EDGE_CURVE('',#952,#943,#954,.T.);
#952 = VERTEX_POINT('',#953);
#953 = CARTESIAN_POINT('',(55.,-10.,0.));
#954 = CIRCLE('',#955,25.);
#955 = AXIS2_PLACEMENT_3D('',#956,#957,#958);
#956 = CARTESIAN_POINT('',(54.999978668735,15.,0.));
#957 = DIRECTION('',(0.,0.,1.));
#958 = DIRECTION('',(1.,0.,0.));
#959 = ORIENTED_EDGE('',*,*,#960,.T.);
#960 = EDGE_CURVE('',#952,#961,#963,.T.);
#961 = VERTEX_POINT('',#962);
#962 = CARTESIAN_POINT('',(40.,-10.,0.));
#963 = LINE('',#964,#965);
#964 = CARTESIAN_POINT('',(55.,-10.,0.));
#965 = VECTOR('',#966,1.);
#966 = DIRECTION('',(-1.,0.,0.));
#967 = ORIENTED_EDGE('',*,*,#968,.T.);
#968 = EDGE_CURVE('',#961,#969,#971,.T.);
#969 = VERTEX_POINT('',#970);
#970 = CARTESIAN_POINT('',(40.,-19.99999999999,0.));
#971 = LINE('',#972,#973);
#972 = CARTESIAN_POINT('',(40.,3.18460953518,0.));
#973 = VECTOR('',#974,1.);
#974 = DIRECTION('',(0.,-1.,0.));
#975 = ORIENTED_EDGE('',*,*,#976,.T.);
#976 = EDGE_CURVE('',#969,#836,#977,.T.);
#977 = LINE('',#978,#979);
#978 = CARTESIAN_POINT('',(-55.,-19.99999999999,0.));
#979 = VECTOR('',#980,1.);
#980 = DIRECTION('',(1.,0.,0.));
#981 = PLANE('',#982);
#982 = AXIS2_PLACEMENT_3D('',#983,#984,#985);
#983 = CARTESIAN_POINT('',(14.794145639613,6.369219070359,0.));
#984 = DIRECTION('',(0.,0.,1.));
#985 = DIRECTION('',(1.,0.,0.));
#986 = ADVANCED_FACE('',(#987),#998,.F.);
#987 = FACE_BOUND('',#988,.F.);
#988 = EDGE_LOOP('',(#989,#990,#991,#997));
#989 = ORIENTED_EDGE('',*,*,#805,.T.);
#990 = ORIENTED_EDGE('',*,*,#869,.T.);
#991 = ORIENTED_EDGE('',*,*,#992,.T.);
#992 = EDGE_CURVE('',#870,#838,#993,.T.);
#993 = LINE('',#994,#995);
#994 = CARTESIAN_POINT('',(-55.,-19.99999999999,-100.));
#995 = VECTOR('',#996,1.);
#996 = DIRECTION('',(1.,0.,0.));
#997 = ORIENTED_EDGE('',*,*,#845,.T.);
#998 = PLANE('',#999);
#999 = AXIS2_PLACEMENT_3D('',#1000,#1001,#1002);
#1000 = CARTESIAN_POINT('',(14.794145639613,6.369219070359,-100.));
#1001 = DIRECTION('',(0.,0.,1.));
#1002 = DIRECTION('',(1.,0.,0.));
#1003 = ADVANCED_FACE('',(#1004),#1097,.T.);
#1004 = FACE_BOUND('',#1005,.T.);
#1005 = EDGE_LOOP('',(#1006,#1007,#1008,#1009,#1010,#1011,#1019,#1027,
    #1035,#1043,#1051,#1059,#1067,#1075,#1083,#1091));
#1006 = ORIENTED_EDGE('',*,*,#902,.F.);
#1007 = ORIENTED_EDGE('',*,*,#877,.T.);
#1008 = ORIENTED_EDGE('',*,*,#992,.T.);
#1009 = ORIENTED_EDGE('',*,*,#835,.F.);
#1010 = ORIENTED_EDGE('',*,*,#976,.F.);
#1011 = ORIENTED_EDGE('',*,*,#1012,.T.);
#1012 = EDGE_CURVE('',#969,#1013,#1015,.T.);
#1013 = VERTEX_POINT('',#1014);
#1014 = CARTESIAN_POINT('',(40.,-19.99999999999,-10.));
#1015 = LINE('',#1016,#1017);
#1016 = CARTESIAN_POINT('',(40.,-19.99999999999,-5.));
#1017 = VECTOR('',#1018,1.);
#1018 = DIRECTION('',(-0.,-0.,-1.));
#1019 = ORIENTED_EDGE('',*,*,#1020,.T.);
#1020 = EDGE_CURVE('',#1013,#1021,#1023,.T.);
#1021 = VERTEX_POINT('',#1022);
#1022 = CARTESIAN_POINT('',(24.,-19.99999999999,-10.));
#1023 = LINE('',#1024,#1025);
#1024 = CARTESIAN_POINT('',(-15.5,-19.99999999999,-10.));
#1025 = VECTOR('',#1026,1.);
#1026 = DIRECTION('',(-1.,-0.,0.));
#1027 = ORIENTED_EDGE('',*,*,#1028,.T.);
#1028 = EDGE_CURVE('',#1021,#1029,#1031,.T.);
#1029 = VERTEX_POINT('',#1030);
#1030 = CARTESIAN_POINT('',(24.,-19.99999999999,0.));
#1031 = LINE('',#1032,#1033);
#1032 = CARTESIAN_POINT('',(24.,-19.99999999999,5.));
#1033 = VECTOR('',#1034,1.);
#1034 = DIRECTION('',(-0.,0.,1.));
#1035 = ORIENTED_EDGE('',*,*,#1036,.F.);
#1036 = EDGE_CURVE('',#1037,#1029,#1039,.T.);
#1037 = VERTEX_POINT('',#1038);
#1038 = CARTESIAN_POINT('',(8.,-19.99999999999,0.));
#1039 = LINE('',#1040,#1041);
#1040 = CARTESIAN_POINT('',(-55.,-19.99999999999,0.));
#1041 = VECTOR('',#1042,1.);
#1042 = DIRECTION('',(1.,0.,0.));
#1043 = ORIENTED_EDGE('',*,*,#1044,.T.);
#1044 = EDGE_CURVE('',#1037,#1045,#1047,.T.);
#1045 = VERTEX_POINT('',#1046);
#1046 = CARTESIAN_POINT('',(8.,-19.99999999999,-10.));
#1047 = LINE('',#1048,#1049);
#1048 = CARTESIAN_POINT('',(8.,-19.99999999999,-5.));
#1049 = VECTOR('',#1050,1.);
#1050 = DIRECTION('',(-0.,-0.,-1.));
#1051 = ORIENTED_EDGE('',*,*,#1052,.T.);
#1052 = EDGE_CURVE('',#1045,#1053,#1055,.T.);
#1053 = VERTEX_POINT('',#1054);
#1054 = CARTESIAN_POINT('',(-8.,-19.99999999999,-10.));
#1055 = LINE('',#1056,#1057);
#1056 = CARTESIAN_POINT('',(-31.5,-19.99999999999,-10.));
#1057 = VECTOR('',#1058,1.);
#1058 = DIRECTION('',(-1.,-0.,0.));
#1059 = ORIENTED_EDGE('',*,*,#1060,.T.);
#1060 = EDGE_CURVE('',#1053,#1061,#1063,.T.);
#1061 = VERTEX_POINT('',#1062);
#1062 = CARTESIAN_POINT('',(-8.,-19.99999999999,0.));
#1063 = LINE('',#1064,#1065);
#1064 = CARTESIAN_POINT('',(-8.,-19.99999999999,5.));
#1065 = VECTOR('',#1066,1.);
#1066 = DIRECTION('',(-0.,0.,1.));
#1067 = ORIENTED_EDGE('',*,*,#1068,.F.);
#1068 = EDGE_CURVE('',#1069,#1061,#1071,.T.);
#1069 = VERTEX_POINT('',#1070);
#1070 = CARTESIAN_POINT('',(-24.,-19.99999999999,0.));
#1071 = LINE('',#1072,#1073);
#1072 = CARTESIAN_POINT('',(-55.,-19.99999999999,0.));
#1073 = VECTOR('',#1074,1.);
#1074 = DIRECTION('',(1.,0.,0.));
#1075 = ORIENTED_EDGE('',*,*,#1076,.T.);
#1076 = EDGE_CURVE('',#1069,#1077,#1079,.T.);
#1077 = VERTEX_POINT('',#1078);
#1078 = CARTESIAN_POINT('',(-24.,-19.99999999999,-10.));
#1079 = LINE('',#1080,#1081);
#1080 = CARTESIAN_POINT('',(-24.,-19.99999999999,-5.));
#1081 = VECTOR('',#1082,1.);
#1082 = DIRECTION('',(-0.,-0.,-1.));
#1083 = ORIENTED_EDGE('',*,*,#1084,.T.);
#1084 = EDGE_CURVE('',#1077,#1085,#1087,.T.);
#1085 = VERTEX_POINT('',#1086);
#1086 = CARTESIAN_POINT('',(-40.,-19.99999999999,-10.));
#1087 = LINE('',#1088,#1089);
#1088 = CARTESIAN_POINT('',(-47.5,-19.99999999999,-10.));
#1089 = VECTOR('',#1090,1.);
#1090 = DIRECTION('',(-1.,0.,1.1E-16));
#1091 = ORIENTED_EDGE('',*,*,#1092,.T.);
#1092 = EDGE_CURVE('',#1085,#903,#1093,.T.);
#1093 = LINE('',#1094,#1095);
#1094 = CARTESIAN_POINT('',(-40.,-19.99999999999,10.));
#1095 = VECTOR('',#1096,1.);
#1096 = DIRECTION('',(-0.,0.,1.));
#1097 = PLANE('',#1098);
#1098 = AXIS2_PLACEMENT_3D('',#1099,#1100,#1101);
#1099 = CARTESIAN_POINT('',(-55.,-19.99999999999,0.));
#1100 = DIRECTION('',(0.,-1.,0.));
#1101 = DIRECTION('',(1.,0.,0.));
#1102 = ADVANCED_FACE('',(#1103),#1121,.T.);
#1103 = FACE_BOUND('',#1104,.T.);
#1104 = EDGE_LOOP('',(#1105,#1113,#1119,#1120));
#1105 = ORIENTED_EDGE('',*,*,#1106,.F.);
#1106 = EDGE_CURVE('',#1107,#961,#1109,.T.);
#1107 = VERTEX_POINT('',#1108);
#1108 = CARTESIAN_POINT('',(40.,-10.,-10.));
#1109 = LINE('',#1110,#1111);
#1110 = CARTESIAN_POINT('',(40.,-10.,-5.));
#1111 = VECTOR('',#1112,1.);
#1112 = DIRECTION('',(0.,-0.,1.));
#1113 = ORIENTED_EDGE('',*,*,#1114,.T.);
#1114 = EDGE_CURVE('',#1107,#1013,#1115,.T.);
#1115 = LINE('',#1116,#1117);
#1116 = CARTESIAN_POINT('',(40.,-2.22E-15,-10.));
#1117 = VECTOR('',#1118,1.);
#1118 = DIRECTION('',(-0.,-1.,2.2E-16));
#1119 = ORIENTED_EDGE('',*,*,#1012,.F.);
#1120 = ORIENTED_EDGE('',*,*,#968,.F.);
#1121 = PLANE('',#1122);
#1122 = AXIS2_PLACEMENT_3D('',#1123,#1124,#1125);
#1123 = CARTESIAN_POINT('',(40.,-2.22E-15,-10.));
#1124 = DIRECTION('',(-1.,0.,0.));
#1125 = DIRECTION('',(0.,2.2E-16,1.));
#1126 = ADVANCED_FACE('',(#1127),#1232,.T.);
#1127 = FACE_BOUND('',#1128,.T.);
#1128 = EDGE_LOOP('',(#1129,#1130,#1138,#1146,#1152,#1153,#1161,#1169,
    #1177,#1185,#1193,#1201,#1209,#1217,#1225,#1231));
#1129 = ORIENTED_EDGE('',*,*,#960,.F.);
#1130 = ORIENTED_EDGE('',*,*,#1131,.T.);
#1131 = EDGE_CURVE('',#952,#1132,#1134,.T.);
#1132 = VERTEX_POINT('',#1133);
#1133 = CARTESIAN_POINT('',(55.,-10.,-15.));
#1134 = LINE('',#1135,#1136);
#1135 = CARTESIAN_POINT('',(55.,-10.,0.));
#1136 = VECTOR('',#1137,1.);
#1137 = DIRECTION('',(-0.,-0.,-1.));
#1138 = ORIENTED_EDGE('',*,*,#1139,.T.);
#1139 = EDGE_CURVE('',#1132,#1140,#1142,.T.);
#1140 = VERTEX_POINT('',#1141);
#1141 = CARTESIAN_POINT('',(-45.,-10.,-15.));
#1142 = LINE('',#1143,#1144);
#1143 = CARTESIAN_POINT('',(55.,-10.,-15.));
#1144 = VECTOR('',#1145,1.);
#1145 = DIRECTION('',(-1.,0.,0.));
#1146 = ORIENTED_EDGE('',*,*,#1147,.F.);
#1147 = EDGE_CURVE('',#919,#1140,#1148,.T.);
#1148 = LINE('',#1149,#1150);
#1149 = CARTESIAN_POINT('',(-45.,-10.,0.));
#1150 = VECTOR('',#1151,1.);
#1151 = DIRECTION('',(-0.,-0.,-1.));
#1152 = ORIENTED_EDGE('',*,*,#918,.F.);
#1153 = ORIENTED_EDGE('',*,*,#1154,.T.);
#1154 = EDGE_CURVE('',#911,#1155,#1157,.T.);
#1155 = VERTEX_POINT('',#1156);
#1156 = CARTESIAN_POINT('',(-40.,-10.,-10.));
#1157 = LINE('',#1158,#1159);
#1158 = CARTESIAN_POINT('',(-40.,-10.,10.));
#1159 = VECTOR('',#1160,1.);
#1160 = DIRECTION('',(0.,0.,-1.));
#1161 = ORIENTED_EDGE('',*,*,#1162,.T.);
#1162 = EDGE_CURVE('',#1155,#1163,#1165,.T.);
#1163 = VERTEX_POINT('',#1164);
#1164 = CARTESIAN_POINT('',(-24.,-10.,-10.));
#1165 = LINE('',#1166,#1167);
#1166 = CARTESIAN_POINT('',(7.5,-10.,-10.));
#1167 = VECTOR('',#1168,1.);
#1168 = DIRECTION('',(1.,0.,-1.1E-16));
#1169 = ORIENTED_EDGE('',*,*,#1170,.T.);
#1170 = EDGE_CURVE('',#1163,#1171,#1173,.T.);
#1171 = VERTEX_POINT('',#1172);
#1172 = CARTESIAN_POINT('',(-24.,-10.,0.));
#1173 = LINE('',#1174,#1175);
#1174 = CARTESIAN_POINT('',(-24.,-10.,-5.));
#1175 = VECTOR('',#1176,1.);
#1176 = DIRECTION('',(0.,-0.,1.));
#1177 = ORIENTED_EDGE('',*,*,#1178,.F.);
#1178 = EDGE_CURVE('',#1179,#1171,#1181,.T.);
#1179 = VERTEX_POINT('',#1180);
#1180 = CARTESIAN_POINT('',(-8.,-10.,0.));
#1181 = LINE('',#1182,#1183);
#1182 = CARTESIAN_POINT('',(55.,-10.,0.));
#1183 = VECTOR('',#1184,1.);
#1184 = DIRECTION('',(-1.,0.,0.));
#1185 = ORIENTED_EDGE('',*,*,#1186,.T.);
#1186 = EDGE_CURVE('',#1179,#1187,#1189,.T.);
#1187 = VERTEX_POINT('',#1188);
#1188 = CARTESIAN_POINT('',(-8.,-10.,-10.));
#1189 = LINE('',#1190,#1191);
#1190 = CARTESIAN_POINT('',(-8.,-10.,5.));
#1191 = VECTOR('',#1192,1.);
#1192 = DIRECTION('',(0.,0.,-1.));
#1193 = ORIENTED_EDGE('',*,*,#1194,.T.);
#1194 = EDGE_CURVE('',#1187,#1195,#1197,.T.);
#1195 = VERTEX_POINT('',#1196);
#1196 = CARTESIAN_POINT('',(8.,-10.,-10.));
#1197 = LINE('',#1198,#1199);
#1198 = CARTESIAN_POINT('',(23.5,-10.,-10.));
#1199 = VECTOR('',#1200,1.);
#1200 = DIRECTION('',(1.,-0.,0.));
#1201 = ORIENTED_EDGE('',*,*,#1202,.T.);
#1202 = EDGE_CURVE('',#1195,#1203,#1205,.T.);
#1203 = VERTEX_POINT('',#1204);
#1204 = CARTESIAN_POINT('',(8.,-10.,0.));
#1205 = LINE('',#1206,#1207);
#1206 = CARTESIAN_POINT('',(8.,-10.,-5.));
#1207 = VECTOR('',#1208,1.);
#1208 = DIRECTION('',(0.,-0.,1.));
#1209 = ORIENTED_EDGE('',*,*,#1210,.F.);
#1210 = EDGE_CURVE('',#1211,#1203,#1213,.T.);
#1211 = VERTEX_POINT('',#1212);
#1212 = CARTESIAN_POINT('',(24.,-10.,0.));
#1213 = LINE('',#1214,#1215);
#1214 = CARTESIAN_POINT('',(55.,-10.,0.));
#1215 = VECTOR('',#1216,1.);
#1216 = DIRECTION('',(-1.,0.,0.));
#1217 = ORIENTED_EDGE('',*,*,#1218,.T.);
#1218 = EDGE_CURVE('',#1211,#1219,#1221,.T.);
#1219 = VERTEX_POINT('',#1220);
#1220 = CARTESIAN_POINT('',(24.,-10.,-10.));
#1221 = LINE('',#1222,#1223);
#1222 = CARTESIAN_POINT('',(24.,-10.,5.));
#1223 = VECTOR('',#1224,1.);
#1224 = DIRECTION('',(0.,0.,-1.));
#1225 = ORIENTED_EDGE('',*,*,#1226,.T.);
#1226 = EDGE_CURVE('',#1219,#1107,#1227,.T.);
#1227 = LINE('',#1228,#1229);
#1228 = CARTESIAN_POINT('',(39.5,-10.,-10.));
#1229 = VECTOR('',#1230,1.);
#1230 = DIRECTION('',(1.,-0.,0.));
#1231 = ORIENTED_EDGE('',*,*,#1106,.T.);
#1232 = PLANE('',#1233);
#1233 = AXIS2_PLACEMENT_3D('',#1234,#1235,#1236);
#1234 = CARTESIAN_POINT('',(55.,-10.,0.));
#1235 = DIRECTION('',(0.,1.,0.));
#1236 = DIRECTION('',(-1.,0.,0.));
#1237 = ADVANCED_FACE('',(#1238),#1274,.F.);
#1238 = FACE_BOUND('',#1239,.F.);
#1239 = EDGE_LOOP('',(#1240,#1241,#1249,#1256,#1257,#1258,#1259,#1268));
#1240 = ORIENTED_EDGE('',*,*,#942,.F.);
#1241 = ORIENTED_EDGE('',*,*,#1242,.T.);
#1242 = EDGE_CURVE('',#943,#1243,#1245,.T.);
#1243 = VERTEX_POINT('',#1244);
#1244 = CARTESIAN_POINT('',(79.999978668735,15.,-50.));
#1245 = LINE('',#1246,#1247);
#1246 = CARTESIAN_POINT('',(79.999978668735,15.,0.));
#1247 = VECTOR('',#1248,1.);
#1248 = DIRECTION('',(-0.,-0.,-1.));
#1249 = ORIENTED_EDGE('',*,*,#1250,.T.);
#1250 = EDGE_CURVE('',#1243,#1243,#1251,.T.);
#1251 = CIRCLE('',#1252,25.);
#1252 = AXIS2_PLACEMENT_3D('',#1253,#1254,#1255);
#1253 = CARTESIAN_POINT('',(54.999978668735,15.,-50.));
#1254 = DIRECTION('',(0.,0.,1.));
#1255 = DIRECTION('',(1.,0.,0.));
#1256 = ORIENTED_EDGE('',*,*,#1242,.F.);
#1257 = ORIENTED_EDGE('',*,*,#951,.F.);
#1258 = ORIENTED_EDGE('',*,*,#1131,.T.);
#1259 = ORIENTED_EDGE('',*,*,#1260,.F.);
#1260 = EDGE_CURVE('',#1261,#1132,#1263,.T.);
#1261 = VERTEX_POINT('',#1262);
#1262 = CARTESIAN_POINT('',(30.505081240903,10.,-15.));
#1263 = CIRCLE('',#1264,25.);
#1264 = AXIS2_PLACEMENT_3D('',#1265,#1266,#1267);
#1265 = CARTESIAN_POINT('',(54.999978668735,15.,-15.));
#1266 = DIRECTION('',(0.,0.,1.));
#1267 = DIRECTION('',(1.,0.,0.));
#1268 = ORIENTED_EDGE('',*,*,#1269,.T.);
#1269 = EDGE_CURVE('',#1261,#935,#1270,.T.);
#1270 = LINE('',#1271,#1272);
#1271 = CARTESIAN_POINT('',(30.505081240903,10.,0.));
#1272 = VECTOR('',#1273,1.);
#1273 = DIRECTION('',(0.,0.,1.));
#1274 = CYLINDRICAL_SURFACE('',#1275,25.);
#1275 = AXIS2_PLACEMENT_3D('',#1276,#1277,#1278);
#1276 = CARTESIAN_POINT('',(54.999978668735,15.,0.));
#1277 = DIRECTION('',(0.,0.,1.));
#1278 = DIRECTION('',(1.,0.,0.));
#1279 = ADVANCED_FACE('',(#1280),#1298,.T.);
#1280 = FACE_BOUND('',#1281,.T.);
#1281 = EDGE_LOOP('',(#1282,#1283,#1291,#1297));
#1282 = ORIENTED_EDGE('',*,*,#934,.F.);
#1283 = ORIENTED_EDGE('',*,*,#1284,.T.);
#1284 = EDGE_CURVE('',#927,#1285,#1287,.T.);
#1285 = VERTEX_POINT('',#1286);
#1286 = CARTESIAN_POINT('',(-45.,10.,-15.));
#1287 = LINE('',#1288,#1289);
#1288 = CARTESIAN_POINT('',(-45.,10.,0.));
#1289 = VECTOR('',#1290,1.);
#1290 = DIRECTION('',(-0.,-0.,-1.));
#1291 = ORIENTED_EDGE('',*,*,#1292,.T.);
#1292 = EDGE_CURVE('',#1285,#1261,#1293,.T.);
#1293 = LINE('',#1294,#1295);
#1294 = CARTESIAN_POINT('',(-45.,10.,-15.));
#1295 = VECTOR('',#1296,1.);
#1296 = DIRECTION('',(1.,0.,0.));
#1297 = ORIENTED_EDGE('',*,*,#1269,.T.);
#1298 = PLANE('',#1299);
#1299 = AXIS2_PLACEMENT_3D('',#1300,#1301,#1302);
#1300 = CARTESIAN_POINT('',(-45.,10.,0.));
#1301 = DIRECTION('',(0.,-1.,0.));
#1302 = DIRECTION('',(1.,0.,0.));
#1303 = ADVANCED_FACE('',(#1304),#1315,.T.);
#1304 = FACE_BOUND('',#1305,.T.);
#1305 = EDGE_LOOP('',(#1306,#1307,#1313,#1314));
#1306 = ORIENTED_EDGE('',*,*,#1147,.T.);
#1307 = ORIENTED_EDGE('',*,*,#1308,.T.);
#1308 = EDGE_CURVE('',#1140,#1285,#1309,.T.);
#1309 = LINE('',#1310,#1311);
#1310 = CARTESIAN_POINT('',(-45.,-10.,-15.));
#1311 = VECTOR('',#1312,1.);
#1312 = DIRECTION('',(0.,1.,0.));
#1313 = ORIENTED_EDGE('',*,*,#1284,.F.);
#1314 = ORIENTED_EDGE('',*,*,#926,.F.);
#1315 = PLANE('',#1316);
#1316 = AXIS2_PLACEMENT_3D('',#1317,#1318,#1319);
#1317 = CARTESIAN_POINT('',(-45.,-10.,0.));
#1318 = DIRECTION('',(1.,0.,0.));
#1319 = DIRECTION('',(0.,1.,0.));
#1320 = ADVANCED_FACE('',(#1321),#1332,.T.);
#1321 = FACE_BOUND('',#1322,.T.);
#1322 = EDGE_LOOP('',(#1323,#1329,#1330,#1331));
#1323 = ORIENTED_EDGE('',*,*,#1324,.F.);
#1324 = EDGE_CURVE('',#1155,#1085,#1325,.T.);
#1325 = LINE('',#1326,#1327);
#1326 = CARTESIAN_POINT('',(-40.,-2.22E-15,-10.));
#1327 = VECTOR('',#1328,1.);
#1328 = DIRECTION('',(-0.,-1.,2.2E-16));
#1329 = ORIENTED_EDGE('',*,*,#1154,.F.);
#1330 = ORIENTED_EDGE('',*,*,#910,.F.);
#1331 = ORIENTED_EDGE('',*,*,#1092,.F.);
#1332 = PLANE('',#1333);
#1333 = AXIS2_PLACEMENT_3D('',#1334,#1335,#1336);
#1334 = CARTESIAN_POINT('',(-40.,4.44E-15,20.));
#1335 = DIRECTION('',(1.,0.,0.));
#1336 = DIRECTION('',(0.,-2.2E-16,-1.));
#1337 = ADVANCED_FACE('',(#1338),#1349,.T.);
#1338 = FACE_BOUND('',#1339,.T.);
#1339 = EDGE_LOOP('',(#1340,#1341,#1342,#1343));
#1340 = ORIENTED_EDGE('',*,*,#1162,.F.);
#1341 = ORIENTED_EDGE('',*,*,#1324,.T.);
#1342 = ORIENTED_EDGE('',*,*,#1084,.F.);
#1343 = ORIENTED_EDGE('',*,*,#1344,.F.);
#1344 = EDGE_CURVE('',#1163,#1077,#1345,.T.);
#1345 = LINE('',#1346,#1347);
#1346 = CARTESIAN_POINT('',(-24.,-2.22E-15,-10.));
#1347 = VECTOR('',#1348,1.);
#1348 = DIRECTION('',(-0.,-1.,2.2E-16));
#1349 = PLANE('',#1350);
#1350 = AXIS2_PLACEMENT_3D('',#1351,#1352,#1353);
#1351 = CARTESIAN_POINT('',(-40.,-2.22E-15,-10.));
#1352 = DIRECTION('',(1.1E-16,2.2E-16,1.));
#1353 = DIRECTION('',(1.,0.,-1.1E-16));
#1354 = ADVANCED_FACE('',(#1355),#1366,.T.);
#1355 = FACE_BOUND('',#1356,.T.);
#1356 = EDGE_LOOP('',(#1357,#1358,#1359,#1360));
#1357 = ORIENTED_EDGE('',*,*,#1170,.F.);
#1358 = ORIENTED_EDGE('',*,*,#1344,.T.);
#1359 = ORIENTED_EDGE('',*,*,#1076,.F.);
#1360 = ORIENTED_EDGE('',*,*,#1361,.F.);
#1361 = EDGE_CURVE('',#1171,#1069,#1362,.T.);
#1362 = LINE('',#1363,#1364);
#1363 = CARTESIAN_POINT('',(-24.,3.18460953518,0.));
#1364 = VECTOR('',#1365,1.);
#1365 = DIRECTION('',(0.,-1.,0.));
#1366 = PLANE('',#1367);
#1367 = AXIS2_PLACEMENT_3D('',#1368,#1369,#1370);
#1368 = CARTESIAN_POINT('',(-24.,-2.22E-15,-10.));
#1369 = DIRECTION('',(-1.,0.,0.));
#1370 = DIRECTION('',(0.,2.2E-16,1.));
#1371 = ADVANCED_FACE('',(#1372),#1383,.T.);
#1372 = FACE_BOUND('',#1373,.T.);
#1373 = EDGE_LOOP('',(#1374,#1375,#1376,#1382));
#1374 = ORIENTED_EDGE('',*,*,#1361,.T.);
#1375 = ORIENTED_EDGE('',*,*,#1068,.T.);
#1376 = ORIENTED_EDGE('',*,*,#1377,.T.);
#1377 = EDGE_CURVE('',#1061,#1179,#1378,.T.);
#1378 = LINE('',#1379,#1380);
#1379 = CARTESIAN_POINT('',(-8.,3.18460953518,0.));
#1380 = VECTOR('',#1381,1.);
#1381 = DIRECTION('',(0.,1.,0.));
#1382 = ORIENTED_EDGE('',*,*,#1178,.T.);
#1383 = PLANE('',#1384);
#1384 = AXIS2_PLACEMENT_3D('',#1385,#1386,#1387);
#1385 = CARTESIAN_POINT('',(14.794145639613,6.369219070359,0.));
#1386 = DIRECTION('',(0.,0.,1.));
#1387 = DIRECTION('',(1.,0.,0.));
#1388 = ADVANCED_FACE('',(#1389),#1400,.T.);
#1389 = FACE_BOUND('',#1390,.T.);
#1390 = EDGE_LOOP('',(#1391,#1397,#1398,#1399));
#1391 = ORIENTED_EDGE('',*,*,#1392,.F.);
#1392 = EDGE_CURVE('',#1187,#1053,#1393,.T.);
#1393 = LINE('',#1394,#1395);
#1394 = CARTESIAN_POINT('',(-8.,-2.22E-15,-10.));
#1395 = VECTOR('',#1396,1.);
#1396 = DIRECTION('',(-0.,-1.,2.2E-16));
#1397 = ORIENTED_EDGE('',*,*,#1186,.F.);
#1398 = ORIENTED_EDGE('',*,*,#1377,.F.);
#1399 = ORIENTED_EDGE('',*,*,#1060,.F.);
#1400 = PLANE('',#1401);
#1401 = AXIS2_PLACEMENT_3D('',#1402,#1403,#1404);
#1402 = CARTESIAN_POINT('',(-8.,2.22E-15,10.));
#1403 = DIRECTION('',(1.,0.,0.));
#1404 = DIRECTION('',(0.,-2.2E-16,-1.));
#1405 = ADVANCED_FACE('',(#1406),#1417,.T.);
#1406 = FACE_BOUND('',#1407,.T.);
#1407 = EDGE_LOOP('',(#1408,#1409,#1410,#1411));
#1408 = ORIENTED_EDGE('',*,*,#1194,.F.);
#1409 = ORIENTED_EDGE('',*,*,#1392,.T.);
#1410 = ORIENTED_EDGE('',*,*,#1052,.F.);
#1411 = ORIENTED_EDGE('',*,*,#1412,.F.);
#1412 = EDGE_CURVE('',#1195,#1045,#1413,.T.);
#1413 = LINE('',#1414,#1415);
#1414 = CARTESIAN_POINT('',(8.,-2.22E-15,-10.));
#1415 = VECTOR('',#1416,1.);
#1416 = DIRECTION('',(-0.,-1.,2.2E-16));
#1417 = PLANE('',#1418);
#1418 = AXIS2_PLACEMENT_3D('',#1419,#1420,#1421);
#1419 = CARTESIAN_POINT('',(-8.,-2.22E-15,-10.));
#1420 = DIRECTION('',(-0.,2.2E-16,1.));
#1421 = DIRECTION('',(1.,0.,0.));
#1422 = ADVANCED_FACE('',(#1423),#1434,.T.);
#1423 = FACE_BOUND('',#1424,.T.);
#1424 = EDGE_LOOP('',(#1425,#1426,#1427,#1428));
#1425 = ORIENTED_EDGE('',*,*,#1202,.F.);
#1426 = ORIENTED_EDGE('',*,*,#1412,.T.);
#1427 = ORIENTED_EDGE('',*,*,#1044,.F.);
#1428 = ORIENTED_EDGE('',*,*,#1429,.F.);
#1429 = EDGE_CURVE('',#1203,#1037,#1430,.T.);
#1430 = LINE('',#1431,#1432);
#1431 = CARTESIAN_POINT('',(8.,3.18460953518,0.));
#1432 = VECTOR('',#1433,1.);
#1433 = DIRECTION('',(0.,-1.,0.));
#1434 = PLANE('',#1435);
#1435 = AXIS2_PLACEMENT_3D('',#1436,#1437,#1438);
#1436 = CARTESIAN_POINT('',(8.,-2.22E-15,-10.));
#1437 = DIRECTION('',(-1.,0.,0.));
#1438 = DIRECTION('',(0.,2.2E-16,1.));
#1439 = ADVANCED_FACE('',(#1440),#1451,.T.);
#1440 = FACE_BOUND('',#1441,.T.);
#1441 = EDGE_LOOP('',(#1442,#1443,#1449,#1450));
#1442 = ORIENTED_EDGE('',*,*,#1036,.T.);
#1443 = ORIENTED_EDGE('',*,*,#1444,.T.);
#1444 = EDGE_CURVE('',#1029,#1211,#1445,.T.);
#1445 = LINE('',#1446,#1447);
#1446 = CARTESIAN_POINT('',(24.,3.18460953518,0.));
#1447 = VECTOR('',#1448,1.);
#1448 = DIRECTION('',(0.,1.,0.));
#1449 = ORIENTED_EDGE('',*,*,#1210,.T.);
#1450 = ORIENTED_EDGE('',*,*,#1429,.T.);
#1451 = PLANE('',#1452);
#1452 = AXIS2_PLACEMENT_3D('',#1453,#1454,#1455);
#1453 = CARTESIAN_POINT('',(14.794145639613,6.369219070359,0.));
#1454 = DIRECTION('',(0.,0.,1.));
#1455 = DIRECTION('',(1.,0.,0.));
#1456 = ADVANCED_FACE('',(#1457),#1468,.T.);
#1457 = FACE_BOUND('',#1458,.T.);
#1458 = EDGE_LOOP('',(#1459,#1465,#1466,#1467));
#1459 = ORIENTED_EDGE('',*,*,#1460,.F.);
#1460 = EDGE_CURVE('',#1219,#1021,#1461,.T.);
#1461 = LINE('',#1462,#1463);
#1462 = CARTESIAN_POINT('',(24.,-2.22E-15,-10.));
#1463 = VECTOR('',#1464,1.);
#1464 = DIRECTION('',(-0.,-1.,2.2E-16));
#1465 = ORIENTED_EDGE('',*,*,#1218,.F.);
#1466 = ORIENTED_EDGE('',*,*,#1444,.F.);
#1467 = ORIENTED_EDGE('',*,*,#1028,.F.);
#1468 = PLANE('',#1469);
#1469 = AXIS2_PLACEMENT_3D('',#1470,#1471,#1472);
#1470 = CARTESIAN_POINT('',(24.,2.22E-15,10.));
#1471 = DIRECTION('',(1.,0.,0.));
#1472 = DIRECTION('',(0.,-2.2E-16,-1.));
#1473 = ADVANCED_FACE('',(#1474),#1480,.T.);
#1474 = FACE_BOUND('',#1475,.T.);
#1475 = EDGE_LOOP('',(#1476,#1477,#1478,#1479));
#1476 = ORIENTED_EDGE('',*,*,#1226,.F.);
#1477 = ORIENTED_EDGE('',*,*,#1460,.T.);
#1478 = ORIENTED_EDGE('',*,*,#1020,.F.);
#1479 = ORIENTED_EDGE('',*,*,#1114,.F.);
#1480 = PLANE('',#1481);
#1481 = AXIS2_PLACEMENT_3D('',#1482,#1483,#1484);
#1482 = CARTESIAN_POINT('',(24.,-2.22E-15,-10.));
#1483 = DIRECTION('',(-0.,2.2E-16,1.));
#1484 = DIRECTION('',(1.,0.,0.));
#1485 = ADVANCED_FACE('',(#1486),#1492,.T.);
#1486 = FACE_BOUND('',#1487,.T.);
#1487 = EDGE_LOOP('',(#1488,#1489,#1490,#1491));
#1488 = ORIENTED_EDGE('',*,*,#1292,.F.);
#1489 = ORIENTED_EDGE('',*,*,#1308,.F.);
#1490 = ORIENTED_EDGE('',*,*,#1139,.F.);
#1491 = ORIENTED_EDGE('',*,*,#1260,.F.);
#1492 = PLANE('',#1493);
#1493 = AXIS2_PLACEMENT_3D('',#1494,#1495,#1496);
#1494 = CARTESIAN_POINT('',(5.,0.,-15.));
#1495 = DIRECTION('',(0.,0.,1.));
#1496 = DIRECTION('',(1.,0.,0.));
#1497 = ADVANCED_FACE('',(#1498),#1501,.T.);
#1498 = FACE_BOUND('',#1499,.T.);
#1499 = EDGE_LOOP('',(#1500));
#1500 = ORIENTED_EDGE('',*,*,#1250,.T.);
#1501 = PLANE('',#1502);
#1502 = AXIS2_PLACEMENT_3D('',#1503,#1504,#1505);
#1503 = CARTESIAN_POINT('',(54.999978668735,15.,-50.));
#1504 = DIRECTION('',(0.,0.,1.));
#1505 = DIRECTION('',(1.,0.,0.));
#1506 = ( GEOMETRIC_REPRESENTATION_CONTEXT(3) 
GLOBAL_UNCERTAINTY_ASSIGNED_CONTEXT((#1510)) 
GLOBAL_UNIT_ASSIGNED_CONTEXT((#1507,#1508,#1509)) REPRESENTATION_CONTEXT
('Context #1','3D Context with UNIT and UNCERTAINTY') );
#1507 = ( LENGTH_UNIT() NAMED_UNIT(*) SI_UNIT(.MILLI.,.METRE.) );
#1508 = ( NAMED_UNIT(*) PLANE_ANGLE_UNIT() SI_UNIT($,.RADIAN.) );
#1509 = ( NAMED_UNIT(*) SI_UNIT($,.STERADIAN.) SOLID_ANGLE_UNIT() );
#1510 = UNCERTAINTY_MEASURE_WITH_UNIT(LENGTH_MEASURE(1.E-06),#1507,
  'distance_accuracy_value','confusion accuracy');
#1511 = CONTEXT_DEPENDENT_SHAPE_REPRESENTATION(#1512,#1514);
#1512 = ( REPRESENTATION_RELATIONSHIP('','',#788,#10) 
REPRESENTATION_RELATIONSHIP_WITH_TRANSFORMATION(#1513) 
SHAPE_REPRESENTATION_RELATIONSHIP() );
#1513 = ITEM_DEFINED_TRANSFORMATION('','',#11,#19);
#1514 = PRODUCT_DEFINITION_SHAPE('Placement','Placement of an item',
  #1515);
#1515 = NEXT_ASSEMBLY_USAGE_OCCURRENCE('2','Pocket002','',#5,#783,$);
#1516 = PRODUCT_RELATED_PRODUCT_CATEGORY('part',$,(#785));
#1517 = SHAPE_DEFINITION_REPRESENTATION(#1518,#1524);
#1518 = PRODUCT_DEFINITION_SHAPE('','',#1519);
#1519 = PRODUCT_DEFINITION('design','',#1520,#1523);
#1520 = PRODUCT_DEFINITION_FORMATION('','',#1521);
#1521 = PRODUCT('WAAM_WCS','WAAM_WCS','',(#1522));
#1522 = PRODUCT_CONTEXT('',#2,'mechanical');
#1523 = PRODUCT_DEFINITION_CONTEXT('part definition',#2,'design');
#1524 = SHAPE_REPRESENTATION('',(#11,#1525,#1529,#1533),#1537);
#1525 = AXIS2_PLACEMENT_3D('',#1526,#1527,#1528);
#1526 = CARTESIAN_POINT('',(0.,0.,0.));
#1527 = DIRECTION('',(0.,0.,1.));
#1528 = DIRECTION('',(1.,0.,0.));
#1529 = AXIS2_PLACEMENT_3D('',#1530,#1531,#1532);
#1530 = CARTESIAN_POINT('',(0.,0.,0.));
#1531 = DIRECTION('',(0.,0.,1.));
#1532 = DIRECTION('',(1.,0.,0.));
#1533 = AXIS2_PLACEMENT_3D('',#1534,#1535,#1536);
#1534 = CARTESIAN_POINT('',(0.,0.,0.));
#1535 = DIRECTION('',(0.,0.,1.));
#1536 = DIRECTION('',(1.,0.,0.));
#1537 = ( GEOMETRIC_REPRESENTATION_CONTEXT(3) 
GLOBAL_UNCERTAINTY_ASSIGNED_CONTEXT((#1541)) 
GLOBAL_UNIT_ASSIGNED_CONTEXT((#1538,#1539,#1540)) REPRESENTATION_CONTEXT
('Context #1','3D Context with UNIT and UNCERTAINTY') );
#1538 = ( LENGTH_UNIT() NAMED_UNIT(*) SI_UNIT(.MILLI.,.METRE.) );
#1539 = ( NAMED_UNIT(*) PLANE_ANGLE_UNIT() SI_UNIT($,.RADIAN.) );
#1540 = ( NAMED_UNIT(*) SI_UNIT($,.STERADIAN.) SOLID_ANGLE_UNIT() );
#1541 = UNCERTAINTY_MEASURE_WITH_UNIT(LENGTH_MEASURE(1.E-07),#1538,
  'distance_accuracy_value','confusion accuracy');
#1542 = CONTEXT_DEPENDENT_SHAPE_REPRESENTATION(#1543,#1545);
#1543 = ( REPRESENTATION_RELATIONSHIP('','',#1524,#10) 
REPRESENTATION_RELATIONSHIP_WITH_TRANSFORMATION(#1544) 
SHAPE_REPRESENTATION_RELATIONSHIP() );
#1544 = ITEM_DEFINED_TRANSFORMATION('','',#11,#23);
#1545 = PRODUCT_DEFINITION_SHAPE('Placement','Placement of an item',
  #1546);
#1546 = NEXT_ASSEMBLY_USAGE_OCCURRENCE('6','WAAM_WCS','',#5,#1519,$);
#1547 = PRODUCT_RELATED_PRODUCT_CATEGORY('part',$,(#1521));
#1548 = SHAPE_DEFINITION_REPRESENTATION(#1549,#1555);
#1549 = PRODUCT_DEFINITION_SHAPE('','',#1550);
#1550 = PRODUCT_DEFINITION('design','',#1551,#1554);
#1551 = PRODUCT_DEFINITION_FORMATION('','',#1552);
#1552 = PRODUCT('WAAM_WCS_X','WAAM_WCS_X','',(#1553));
#1553 = PRODUCT_CONTEXT('',#2,'mechanical');
#1554 = PRODUCT_DEFINITION_CONTEXT('part definition',#2,'design');
#1555 = GEOMETRICALLY_BOUNDED_WIREFRAME_SHAPE_REPRESENTATION('',(#11,
    #1556),#1564);
#1556 = GEOMETRIC_CURVE_SET('',(#1557));
#1557 = TRIMMED_CURVE('',#1558,(#1562,PARAMETER_VALUE(0.)),(#1563,
    PARAMETER_VALUE(20.)),.T.,.PARAMETER.);
#1558 = LINE('',#1559,#1560);
#1559 = CARTESIAN_POINT('',(-55.,-19.99999999999,-100.));
#1560 = VECTOR('',#1561,1.);
#1561 = DIRECTION('',(1.,0.,0.));
#1562 = CARTESIAN_POINT('',(-55.,-19.99999999999,-100.));
#1563 = CARTESIAN_POINT('',(-35.,-19.99999999999,-100.));
#1564 = ( GEOMETRIC_REPRESENTATION_CONTEXT(3) 
GLOBAL_UNCERTAINTY_ASSIGNED_CONTEXT((#1568)) 
GLOBAL_UNIT_ASSIGNED_CONTEXT((#1565,#1566,#1567)) REPRESENTATION_CONTEXT
('Context #1','3D Context with UNIT and UNCERTAINTY') );
#1565 = ( LENGTH_UNIT() NAMED_UNIT(*) SI_UNIT(.MILLI.,.METRE.) );
#1566 = ( NAMED_UNIT(*) PLANE_ANGLE_UNIT() SI_UNIT($,.RADIAN.) );
#1567 = ( NAMED_UNIT(*) SI_UNIT($,.STERADIAN.) SOLID_ANGLE_UNIT() );
#1568 = UNCERTAINTY_MEASURE_WITH_UNIT(LENGTH_MEASURE(1.E-07),#1565,
  'distance_accuracy_value','confusion accuracy');
#1569 = CONTEXT_DEPENDENT_SHAPE_REPRESENTATION(#1570,#1572);
#1570 = ( REPRESENTATION_RELATIONSHIP('','',#1555,#1524) 
REPRESENTATION_RELATIONSHIP_WITH_TRANSFORMATION(#1571) 
SHAPE_REPRESENTATION_RELATIONSHIP() );
#1571 = ITEM_DEFINED_TRANSFORMATION('','',#11,#1525);
#1572 = PRODUCT_DEFINITION_SHAPE('Placement','Placement of an item',
  #1573);
#1573 = NEXT_ASSEMBLY_USAGE_OCCURRENCE('3','WAAM_WCS_X','',#1519,#1550,$
  );
#1574 = PRODUCT_RELATED_PRODUCT_CATEGORY('part',$,(#1552));
#1575 = SHAPE_DEFINITION_REPRESENTATION(#1576,#1582);
#1576 = PRODUCT_DEFINITION_SHAPE('','',#1577);
#1577 = PRODUCT_DEFINITION('design','',#1578,#1581);
#1578 = PRODUCT_DEFINITION_FORMATION('','',#1579);
#1579 = PRODUCT('WAAM_WCS_Y','WAAM_WCS_Y','',(#1580));
#1580 = PRODUCT_CONTEXT('',#2,'mechanical');
#1581 = PRODUCT_DEFINITION_CONTEXT('part definition',#2,'design');
#1582 = GEOMETRICALLY_BOUNDED_WIREFRAME_SHAPE_REPRESENTATION('',(#11,
    #1583),#1591);
#1583 = GEOMETRIC_CURVE_SET('',(#1584));
#1584 = TRIMMED_CURVE('',#1585,(#1589,PARAMETER_VALUE(0.)),(#1590,
    PARAMETER_VALUE(20.)),.T.,.PARAMETER.);
#1585 = LINE('',#1586,#1587);
#1586 = CARTESIAN_POINT('',(-55.,-19.99999999999,-100.));
#1587 = VECTOR('',#1588,1.);
#1588 = DIRECTION('',(0.,1.,0.));
#1589 = CARTESIAN_POINT('',(-55.,-19.99999999999,-100.));
#1590 = CARTESIAN_POINT('',(-55.,6.465938895417E-12,-100.));
#1591 = ( GEOMETRIC_REPRESENTATION_CONTEXT(3) 
GLOBAL_UNCERTAINTY_ASSIGNED_CONTEXT((#1595)) 
GLOBAL_UNIT_ASSIGNED_CONTEXT((#1592,#1593,#1594)) REPRESENTATION_CONTEXT
('Context #1','3D Context with UNIT and UNCERTAINTY') );
#1592 = ( LENGTH_UNIT() NAMED_UNIT(*) SI_UNIT(.MILLI.,.METRE.) );
#1593 = ( NAMED_UNIT(*) PLANE_ANGLE_UNIT() SI_UNIT($,.RADIAN.) );
#1594 = ( NAMED_UNIT(*) SI_UNIT($,.STERADIAN.) SOLID_ANGLE_UNIT() );
#1595 = UNCERTAINTY_MEASURE_WITH_UNIT(LENGTH_MEASURE(1.E-07),#1592,
  'distance_accuracy_value','confusion accuracy');
#1596 = CONTEXT_DEPENDENT_SHAPE_REPRESENTATION(#1597,#1599);
#1597 = ( REPRESENTATION_RELATIONSHIP('','',#1582,#1524) 
REPRESENTATION_RELATIONSHIP_WITH_TRANSFORMATION(#1598) 
SHAPE_REPRESENTATION_RELATIONSHIP() );
#1598 = ITEM_DEFINED_TRANSFORMATION('','',#11,#1529);
#1599 = PRODUCT_DEFINITION_SHAPE('Placement','Placement of an item',
  #1600);
#1600 = NEXT_ASSEMBLY_USAGE_OCCURRENCE('4','WAAM_WCS_Y','',#1519,#1577,$
  );
#1601 = PRODUCT_RELATED_PRODUCT_CATEGORY('part',$,(#1579));
#1602 = SHAPE_DEFINITION_REPRESENTATION(#1603,#1609);
#1603 = PRODUCT_DEFINITION_SHAPE('','',#1604);
#1604 = PRODUCT_DEFINITION('design','',#1605,#1608);
#1605 = PRODUCT_DEFINITION_FORMATION('','',#1606);
#1606 = PRODUCT('WAAM_WCS_Z','WAAM_WCS_Z','',(#1607));
#1607 = PRODUCT_CONTEXT('',#2,'mechanical');
#1608 = PRODUCT_DEFINITION_CONTEXT('part definition',#2,'design');
#1609 = GEOMETRICALLY_BOUNDED_WIREFRAME_SHAPE_REPRESENTATION('',(#11,
    #1610),#1618);
#1610 = GEOMETRIC_CURVE_SET('',(#1611));
#1611 = TRIMMED_CURVE('',#1612,(#1616,PARAMETER_VALUE(0.)),(#1617,
    PARAMETER_VALUE(20.)),.T.,.PARAMETER.);
#1612 = LINE('',#1613,#1614);
#1613 = CARTESIAN_POINT('',(-55.,-19.99999999999,-100.));
#1614 = VECTOR('',#1615,1.);
#1615 = DIRECTION('',(0.,0.,1.));
#1616 = CARTESIAN_POINT('',(-55.,-19.99999999999,-100.));
#1617 = CARTESIAN_POINT('',(-55.,-19.99999999999,-80.));
#1618 = ( GEOMETRIC_REPRESENTATION_CONTEXT(3) 
GLOBAL_UNCERTAINTY_ASSIGNED_CONTEXT((#1622)) 
GLOBAL_UNIT_ASSIGNED_CONTEXT((#1619,#1620,#1621)) REPRESENTATION_CONTEXT
('Context #1','3D Context with UNIT and UNCERTAINTY') );
#1619 = ( LENGTH_UNIT() NAMED_UNIT(*) SI_UNIT(.MILLI.,.METRE.) );
#1620 = ( NAMED_UNIT(*) PLANE_ANGLE_UNIT() SI_UNIT($,.RADIAN.) );
#1621 = ( NAMED_UNIT(*) SI_UNIT($,.STERADIAN.) SOLID_ANGLE_UNIT() );
#1622 = UNCERTAINTY_MEASURE_WITH_UNIT(LENGTH_MEASURE(1.E-07),#1619,
  'distance_accuracy_value','confusion accuracy');
#1623 = CONTEXT_DEPENDENT_SHAPE_REPRESENTATION(#1624,#1626);
#1624 = ( REPRESENTATION_RELATIONSHIP('','',#1609,#1524) 
REPRESENTATION_RELATIONSHIP_WITH_TRANSFORMATION(#1625) 
SHAPE_REPRESENTATION_RELATIONSHIP() );
#1625 = ITEM_DEFINED_TRANSFORMATION('','',#11,#1533);
#1626 = PRODUCT_DEFINITION_SHAPE('Placement','Placement of an item',
  #1627);
#1627 = NEXT_ASSEMBLY_USAGE_OCCURRENCE('5','WAAM_WCS_Z','',#1519,#1604,$
  );
#1628 = PRODUCT_RELATED_PRODUCT_CATEGORY('part',$,(#1606));
#1629 = CONTEXT_DEPENDENT_SHAPE_REPRESENTATION(#1630,#1632);
#1630 = ( REPRESENTATION_RELATIONSHIP('','',#1555,#10) 
REPRESENTATION_RELATIONSHIP_WITH_TRANSFORMATION(#1631) 
SHAPE_REPRESENTATION_RELATIONSHIP() );
#1631 = ITEM_DEFINED_TRANSFORMATION('','',#11,#27);
#1632 = PRODUCT_DEFINITION_SHAPE('Placement','Placement of an item',
  #1633);
#1633 = NEXT_ASSEMBLY_USAGE_OCCURRENCE('7','WAAM_WCS_X','',#5,#1550,$);
#1634 = CONTEXT_DEPENDENT_SHAPE_REPRESENTATION(#1635,#1637);
#1635 = ( REPRESENTATION_RELATIONSHIP('','',#1582,#10) 
REPRESENTATION_RELATIONSHIP_WITH_TRANSFORMATION(#1636) 
SHAPE_REPRESENTATION_RELATIONSHIP() );
#1636 = ITEM_DEFINED_TRANSFORMATION('','',#11,#31);
#1637 = PRODUCT_DEFINITION_SHAPE('Placement','Placement of an item',
  #1638);
#1638 = NEXT_ASSEMBLY_USAGE_OCCURRENCE('8','WAAM_WCS_Y','',#5,#1577,$);
#1639 = CONTEXT_DEPENDENT_SHAPE_REPRESENTATION(#1640,#1642);
#1640 = ( REPRESENTATION_RELATIONSHIP('','',#1609,#10) 
REPRESENTATION_RELATIONSHIP_WITH_TRANSFORMATION(#1641) 
SHAPE_REPRESENTATION_RELATIONSHIP() );
#1641 = ITEM_DEFINED_TRANSFORMATION('','',#11,#35);
#1642 = PRODUCT_DEFINITION_SHAPE('Placement','Placement of an item',
  #1643);
#1643 = NEXT_ASSEMBLY_USAGE_OCCURRENCE('9','WAAM_WCS_Z','',#5,#1604,$);
#1644 = MECHANICAL_DESIGN_GEOMETRIC_PRESENTATION_REPRESENTATION('',(
    #1645),#1591);
#1645 = STYLED_ITEM('color',(#1646),#1583);
#1646 = PRESENTATION_STYLE_ASSIGNMENT((#1647,#1653));
#1647 = SURFACE_STYLE_USAGE(.BOTH.,#1648);
#1648 = SURFACE_SIDE_STYLE('',(#1649));
#1649 = SURFACE_STYLE_FILL_AREA(#1650);
#1650 = FILL_AREA_STYLE('',(#1651));
#1651 = FILL_AREA_STYLE_COLOUR('',#1652);
#1652 = COLOUR_RGB('',0.678430976034,0.709803998361,0.741176010593);
#1653 = CURVE_STYLE('',#1654,POSITIVE_LENGTH_MEASURE(0.1),#1655);
#1654 = DRAUGHTING_PRE_DEFINED_CURVE_FONT('continuous');
#1655 = COLOUR_RGB('',0.199999998682,1.,0.199999998682);
#1656 = MECHANICAL_DESIGN_GEOMETRIC_PRESENTATION_REPRESENTATION('',(
    #1657),#1506);
#1657 = STYLED_ITEM('color',(#1658),#789);
#1658 = PRESENTATION_STYLE_ASSIGNMENT((#1659,#1665));
#1659 = SURFACE_STYLE_USAGE(.BOTH.,#1660);
#1660 = SURFACE_SIDE_STYLE('',(#1661));
#1661 = SURFACE_STYLE_FILL_AREA(#1662);
#1662 = FILL_AREA_STYLE('',(#1663));
#1663 = FILL_AREA_STYLE_COLOUR('',#1664);
#1664 = COLOUR_RGB('',0.800000010877,0.800000010877,0.800000010877);
#1665 = CURVE_STYLE('',#1666,POSITIVE_LENGTH_MEASURE(0.1),#1667);
#1666 = DRAUGHTING_PRE_DEFINED_CURVE_FONT('continuous');
#1667 = COLOUR_RGB('',9.803921802644E-02,9.803921802644E-02,
  9.803921802644E-02);
#1668 = MECHANICAL_DESIGN_GEOMETRIC_PRESENTATION_REPRESENTATION('',(
    #1669),#1564);
#1669 = STYLED_ITEM('color',(#1670),#1556);
#1670 = PRESENTATION_STYLE_ASSIGNMENT((#1671,#1676));
#1671 = SURFACE_STYLE_USAGE(.BOTH.,#1672);
#1672 = SURFACE_SIDE_STYLE('',(#1673));
#1673 = SURFACE_STYLE_FILL_AREA(#1674);
#1674 = FILL_AREA_STYLE('',(#1675));
#1675 = FILL_AREA_STYLE_COLOUR('',#1652);
#1676 = CURVE_STYLE('',#1677,POSITIVE_LENGTH_MEASURE(0.1),#1678);
#1677 = DRAUGHTING_PRE_DEFINED_CURVE_FONT('continuous');
#1678 = COLOUR_RGB('',1.,0.199999998682,0.199999998682);
#1679 = MECHANICAL_DESIGN_GEOMETRIC_PRESENTATION_REPRESENTATION('',(
    #1680),#1618);
#1680 = STYLED_ITEM('color',(#1681),#1610);
#1681 = PRESENTATION_STYLE_ASSIGNMENT((#1682,#1687));
#1682 = SURFACE_STYLE_USAGE(.BOTH.,#1683);
#1683 = SURFACE_SIDE_STYLE('',(#1684));
#1684 = SURFACE_STYLE_FILL_AREA(#1685);
#1685 = FILL_AREA_STYLE('',(#1686));
#1686 = FILL_AREA_STYLE_COLOUR('',#1652);
#1687 = CURVE_STYLE('',#1688,POSITIVE_LENGTH_MEASURE(0.1),#1689);
#1688 = DRAUGHTING_PRE_DEFINED_CURVE_FONT('continuous');
#1689 = COLOUR_RGB('',0.199999998682,0.399999997426,1.);
#1690 = MECHANICAL_DESIGN_GEOMETRIC_PRESENTATION_REPRESENTATION('',(
    #1691),#770);
#1691 = STYLED_ITEM('color',(#1692),#53);
#1692 = PRESENTATION_STYLE_ASSIGNMENT((#1693,#1698));
#1693 = SURFACE_STYLE_USAGE(.BOTH.,#1694);
#1694 = SURFACE_SIDE_STYLE('',(#1695));
#1695 = SURFACE_STYLE_FILL_AREA(#1696);
#1696 = FILL_AREA_STYLE('',(#1697));
#1697 = FILL_AREA_STYLE_COLOUR('',#1664);
#1698 = CURVE_STYLE('',#1699,POSITIVE_LENGTH_MEASURE(0.1),#1667);
#1699 = DRAUGHTING_PRE_DEFINED_CURVE_FONT('continuous');
ENDSEC;
END-ISO-10303-21;
