ISO-10303-21;
HEADER;
/* Generated by software containing ST-Developer
 * from STEP Tools, Inc. (www.steptools.com) 
 */

FILE_DESCRIPTION(
/* description */ (''),
/* implementation_level */ '2;1');

FILE_NAME(
/* name */ 'Sustipieza.step',
/* time_stamp */ '2026-07-21T08:56:38+02:00',
/* author */ (''),
/* organization */ (''),
/* preprocessor_version */ 'ST-DEVELOPER v20.1',
/* originating_system */ 'Autodesk Translation Framework v15.8.0.0',
/* authorisation */ '');

FILE_SCHEMA (('AUTOMOTIVE_DESIGN { 1 0 10303 214 3 1 1 }'));
ENDSEC;

DATA;
#10=MECHANICAL_DESIGN_GEOMETRIC_PRESENTATION_REPRESENTATION('',(#13),#517);
#11=SHAPE_REPRESENTATION_RELATIONSHIP('SRR','None',#524,#12);
#12=ADVANCED_BREP_SHAPE_REPRESENTATION('',(#14),#516);
#13=STYLED_ITEM('',(#533),#14);
#14=MANIFOLD_SOLID_BREP('Cuerpo1',#321);
#15=FACE_BOUND('',#39,.T.);
#16=FACE_BOUND('',#46,.T.);
#17=FACE_OUTER_BOUND('',#33,.T.);
#18=FACE_OUTER_BOUND('',#34,.T.);
#19=FACE_OUTER_BOUND('',#35,.T.);
#20=FACE_OUTER_BOUND('',#36,.T.);
#21=FACE_OUTER_BOUND('',#37,.T.);
#22=FACE_OUTER_BOUND('',#38,.T.);
#23=FACE_OUTER_BOUND('',#40,.T.);
#24=FACE_OUTER_BOUND('',#41,.T.);
#25=FACE_OUTER_BOUND('',#42,.T.);
#26=FACE_OUTER_BOUND('',#43,.T.);
#27=FACE_OUTER_BOUND('',#44,.T.);
#28=FACE_OUTER_BOUND('',#45,.T.);
#29=FACE_OUTER_BOUND('',#47,.T.);
#30=FACE_OUTER_BOUND('',#48,.T.);
#31=FACE_OUTER_BOUND('',#49,.T.);
#32=FACE_OUTER_BOUND('',#50,.T.);
#33=EDGE_LOOP('',(#205,#206,#207,#208));
#34=EDGE_LOOP('',(#209,#210,#211,#212));
#35=EDGE_LOOP('',(#213,#214,#215,#216));
#36=EDGE_LOOP('',(#217,#218,#219,#220));
#37=EDGE_LOOP('',(#221,#222,#223,#224));
#38=EDGE_LOOP('',(#225,#226,#227,#228));
#39=EDGE_LOOP('',(#229,#230,#231,#232));
#40=EDGE_LOOP('',(#233,#234,#235,#236));
#41=EDGE_LOOP('',(#237,#238,#239,#240));
#42=EDGE_LOOP('',(#241,#242,#243,#244));
#43=EDGE_LOOP('',(#245,#246,#247,#248));
#44=EDGE_LOOP('',(#249,#250,#251,#252));
#45=EDGE_LOOP('',(#253,#254,#255,#256));
#46=EDGE_LOOP('',(#257,#258,#259,#260));
#47=EDGE_LOOP('',(#261,#262,#263,#264));
#48=EDGE_LOOP('',(#265,#266,#267,#268));
#49=EDGE_LOOP('',(#269,#270,#271,#272,#273,#274,#275,#276,#277,#278));
#50=EDGE_LOOP('',(#279,#280,#281,#282,#283,#284,#285,#286,#287,#288));
#51=LINE('',#431,#93);
#52=LINE('',#433,#94);
#53=LINE('',#435,#95);
#54=LINE('',#436,#96);
#55=LINE('',#439,#97);
#56=LINE('',#441,#98);
#57=LINE('',#442,#99);
#58=LINE('',#445,#100);
#59=LINE('',#447,#101);
#60=LINE('',#448,#102);
#61=LINE('',#450,#103);
#62=LINE('',#451,#104);
#63=LINE('',#455,#105);
#64=LINE('',#457,#106);
#65=LINE('',#459,#107);
#66=LINE('',#460,#108);
#67=LINE('',#463,#109);
#68=LINE('',#465,#110);
#69=LINE('',#466,#111);
#70=LINE('',#469,#112);
#71=LINE('',#471,#113);
#72=LINE('',#472,#114);
#73=LINE('',#475,#115);
#74=LINE('',#477,#116);
#75=LINE('',#478,#117);
#76=LINE('',#481,#118);
#77=LINE('',#483,#119);
#78=LINE('',#484,#120);
#79=LINE('',#487,#121);
#80=LINE('',#489,#122);
#81=LINE('',#490,#123);
#82=LINE('',#493,#124);
#83=LINE('',#495,#125);
#84=LINE('',#496,#126);
#85=LINE('',#499,#127);
#86=LINE('',#501,#128);
#87=LINE('',#502,#129);
#88=LINE('',#505,#130);
#89=LINE('',#507,#131);
#90=LINE('',#508,#132);
#91=LINE('',#510,#133);
#92=LINE('',#511,#134);
#93=VECTOR('',#355,10.);
#94=VECTOR('',#356,10.);
#95=VECTOR('',#357,10.);
#96=VECTOR('',#358,10.);
#97=VECTOR('',#361,10.);
#98=VECTOR('',#362,10.);
#99=VECTOR('',#363,10.);
#100=VECTOR('',#366,10.);
#101=VECTOR('',#367,10.);
#102=VECTOR('',#368,10.);
#103=VECTOR('',#371,10.);
#104=VECTOR('',#372,10.);
#105=VECTOR('',#375,10.);
#106=VECTOR('',#376,10.);
#107=VECTOR('',#377,10.);
#108=VECTOR('',#378,10.);
#109=VECTOR('',#381,10.);
#110=VECTOR('',#382,10.);
#111=VECTOR('',#383,10.);
#112=VECTOR('',#386,10.);
#113=VECTOR('',#387,10.);
#114=VECTOR('',#388,10.);
#115=VECTOR('',#391,10.);
#116=VECTOR('',#392,10.);
#117=VECTOR('',#393,10.);
#118=VECTOR('',#396,10.);
#119=VECTOR('',#397,10.);
#120=VECTOR('',#398,10.);
#121=VECTOR('',#401,10.);
#122=VECTOR('',#402,10.);
#123=VECTOR('',#403,10.);
#124=VECTOR('',#406,10.);
#125=VECTOR('',#407,10.);
#126=VECTOR('',#408,10.);
#127=VECTOR('',#411,10.);
#128=VECTOR('',#412,10.);
#129=VECTOR('',#413,10.);
#130=VECTOR('',#416,10.);
#131=VECTOR('',#417,10.);
#132=VECTOR('',#418,10.);
#133=VECTOR('',#421,10.);
#134=VECTOR('',#422,10.);
#135=VERTEX_POINT('',#429);
#136=VERTEX_POINT('',#430);
#137=VERTEX_POINT('',#432);
#138=VERTEX_POINT('',#434);
#139=VERTEX_POINT('',#438);
#140=VERTEX_POINT('',#440);
#141=VERTEX_POINT('',#444);
#142=VERTEX_POINT('',#446);
#143=VERTEX_POINT('',#453);
#144=VERTEX_POINT('',#454);
#145=VERTEX_POINT('',#456);
#146=VERTEX_POINT('',#458);
#147=VERTEX_POINT('',#462);
#148=VERTEX_POINT('',#464);
#149=VERTEX_POINT('',#468);
#150=VERTEX_POINT('',#470);
#151=VERTEX_POINT('',#474);
#152=VERTEX_POINT('',#476);
#153=VERTEX_POINT('',#480);
#154=VERTEX_POINT('',#482);
#155=VERTEX_POINT('',#486);
#156=VERTEX_POINT('',#488);
#157=VERTEX_POINT('',#492);
#158=VERTEX_POINT('',#494);
#159=VERTEX_POINT('',#498);
#160=VERTEX_POINT('',#500);
#161=VERTEX_POINT('',#504);
#162=VERTEX_POINT('',#506);
#163=EDGE_CURVE('',#135,#136,#51,.T.);
#164=EDGE_CURVE('',#137,#135,#52,.T.);
#165=EDGE_CURVE('',#138,#137,#53,.T.);
#166=EDGE_CURVE('',#138,#136,#54,.T.);
#167=EDGE_CURVE('',#136,#139,#55,.T.);
#168=EDGE_CURVE('',#140,#138,#56,.T.);
#169=EDGE_CURVE('',#140,#139,#57,.T.);
#170=EDGE_CURVE('',#139,#141,#58,.T.);
#171=EDGE_CURVE('',#142,#140,#59,.T.);
#172=EDGE_CURVE('',#142,#141,#60,.T.);
#173=EDGE_CURVE('',#141,#135,#61,.T.);
#174=EDGE_CURVE('',#137,#142,#62,.T.);
#175=EDGE_CURVE('',#143,#144,#63,.T.);
#176=EDGE_CURVE('',#144,#145,#64,.T.);
#177=EDGE_CURVE('',#146,#145,#65,.T.);
#178=EDGE_CURVE('',#143,#146,#66,.T.);
#179=EDGE_CURVE('',#147,#143,#67,.T.);
#180=EDGE_CURVE('',#148,#146,#68,.T.);
#181=EDGE_CURVE('',#147,#148,#69,.T.);
#182=EDGE_CURVE('',#149,#147,#70,.T.);
#183=EDGE_CURVE('',#150,#148,#71,.T.);
#184=EDGE_CURVE('',#149,#150,#72,.T.);
#185=EDGE_CURVE('',#151,#149,#73,.T.);
#186=EDGE_CURVE('',#152,#150,#74,.T.);
#187=EDGE_CURVE('',#151,#152,#75,.T.);
#188=EDGE_CURVE('',#153,#151,#76,.T.);
#189=EDGE_CURVE('',#154,#152,#77,.T.);
#190=EDGE_CURVE('',#153,#154,#78,.T.);
#191=EDGE_CURVE('',#155,#153,#79,.T.);
#192=EDGE_CURVE('',#156,#154,#80,.T.);
#193=EDGE_CURVE('',#155,#156,#81,.T.);
#194=EDGE_CURVE('',#157,#155,#82,.T.);
#195=EDGE_CURVE('',#158,#156,#83,.T.);
#196=EDGE_CURVE('',#157,#158,#84,.T.);
#197=EDGE_CURVE('',#159,#157,#85,.T.);
#198=EDGE_CURVE('',#160,#158,#86,.T.);
#199=EDGE_CURVE('',#159,#160,#87,.T.);
#200=EDGE_CURVE('',#161,#159,#88,.T.);
#201=EDGE_CURVE('',#162,#160,#89,.T.);
#202=EDGE_CURVE('',#161,#162,#90,.T.);
#203=EDGE_CURVE('',#144,#161,#91,.T.);
#204=EDGE_CURVE('',#145,#162,#92,.T.);
#205=ORIENTED_EDGE('',*,*,#163,.F.);
#206=ORIENTED_EDGE('',*,*,#164,.F.);
#207=ORIENTED_EDGE('',*,*,#165,.F.);
#208=ORIENTED_EDGE('',*,*,#166,.T.);
#209=ORIENTED_EDGE('',*,*,#167,.F.);
#210=ORIENTED_EDGE('',*,*,#166,.F.);
#211=ORIENTED_EDGE('',*,*,#168,.F.);
#212=ORIENTED_EDGE('',*,*,#169,.T.);
#213=ORIENTED_EDGE('',*,*,#170,.F.);
#214=ORIENTED_EDGE('',*,*,#169,.F.);
#215=ORIENTED_EDGE('',*,*,#171,.F.);
#216=ORIENTED_EDGE('',*,*,#172,.T.);
#217=ORIENTED_EDGE('',*,*,#173,.F.);
#218=ORIENTED_EDGE('',*,*,#172,.F.);
#219=ORIENTED_EDGE('',*,*,#174,.F.);
#220=ORIENTED_EDGE('',*,*,#164,.T.);
#221=ORIENTED_EDGE('',*,*,#175,.T.);
#222=ORIENTED_EDGE('',*,*,#176,.T.);
#223=ORIENTED_EDGE('',*,*,#177,.F.);
#224=ORIENTED_EDGE('',*,*,#178,.F.);
#225=ORIENTED_EDGE('',*,*,#179,.T.);
#226=ORIENTED_EDGE('',*,*,#178,.T.);
#227=ORIENTED_EDGE('',*,*,#180,.F.);
#228=ORIENTED_EDGE('',*,*,#181,.F.);
#229=ORIENTED_EDGE('',*,*,#165,.T.);
#230=ORIENTED_EDGE('',*,*,#174,.T.);
#231=ORIENTED_EDGE('',*,*,#171,.T.);
#232=ORIENTED_EDGE('',*,*,#168,.T.);
#233=ORIENTED_EDGE('',*,*,#182,.T.);
#234=ORIENTED_EDGE('',*,*,#181,.T.);
#235=ORIENTED_EDGE('',*,*,#183,.F.);
#236=ORIENTED_EDGE('',*,*,#184,.F.);
#237=ORIENTED_EDGE('',*,*,#185,.T.);
#238=ORIENTED_EDGE('',*,*,#184,.T.);
#239=ORIENTED_EDGE('',*,*,#186,.F.);
#240=ORIENTED_EDGE('',*,*,#187,.F.);
#241=ORIENTED_EDGE('',*,*,#188,.T.);
#242=ORIENTED_EDGE('',*,*,#187,.T.);
#243=ORIENTED_EDGE('',*,*,#189,.F.);
#244=ORIENTED_EDGE('',*,*,#190,.F.);
#245=ORIENTED_EDGE('',*,*,#191,.T.);
#246=ORIENTED_EDGE('',*,*,#190,.T.);
#247=ORIENTED_EDGE('',*,*,#192,.F.);
#248=ORIENTED_EDGE('',*,*,#193,.F.);
#249=ORIENTED_EDGE('',*,*,#194,.T.);
#250=ORIENTED_EDGE('',*,*,#193,.T.);
#251=ORIENTED_EDGE('',*,*,#195,.F.);
#252=ORIENTED_EDGE('',*,*,#196,.F.);
#253=ORIENTED_EDGE('',*,*,#197,.T.);
#254=ORIENTED_EDGE('',*,*,#196,.T.);
#255=ORIENTED_EDGE('',*,*,#198,.F.);
#256=ORIENTED_EDGE('',*,*,#199,.F.);
#257=ORIENTED_EDGE('',*,*,#163,.T.);
#258=ORIENTED_EDGE('',*,*,#167,.T.);
#259=ORIENTED_EDGE('',*,*,#170,.T.);
#260=ORIENTED_EDGE('',*,*,#173,.T.);
#261=ORIENTED_EDGE('',*,*,#200,.T.);
#262=ORIENTED_EDGE('',*,*,#199,.T.);
#263=ORIENTED_EDGE('',*,*,#201,.F.);
#264=ORIENTED_EDGE('',*,*,#202,.F.);
#265=ORIENTED_EDGE('',*,*,#203,.T.);
#266=ORIENTED_EDGE('',*,*,#202,.T.);
#267=ORIENTED_EDGE('',*,*,#204,.F.);
#268=ORIENTED_EDGE('',*,*,#176,.F.);
#269=ORIENTED_EDGE('',*,*,#204,.T.);
#270=ORIENTED_EDGE('',*,*,#201,.T.);
#271=ORIENTED_EDGE('',*,*,#198,.T.);
#272=ORIENTED_EDGE('',*,*,#195,.T.);
#273=ORIENTED_EDGE('',*,*,#192,.T.);
#274=ORIENTED_EDGE('',*,*,#189,.T.);
#275=ORIENTED_EDGE('',*,*,#186,.T.);
#276=ORIENTED_EDGE('',*,*,#183,.T.);
#277=ORIENTED_EDGE('',*,*,#180,.T.);
#278=ORIENTED_EDGE('',*,*,#177,.T.);
#279=ORIENTED_EDGE('',*,*,#203,.F.);
#280=ORIENTED_EDGE('',*,*,#175,.F.);
#281=ORIENTED_EDGE('',*,*,#179,.F.);
#282=ORIENTED_EDGE('',*,*,#182,.F.);
#283=ORIENTED_EDGE('',*,*,#185,.F.);
#284=ORIENTED_EDGE('',*,*,#188,.F.);
#285=ORIENTED_EDGE('',*,*,#191,.F.);
#286=ORIENTED_EDGE('',*,*,#194,.F.);
#287=ORIENTED_EDGE('',*,*,#197,.F.);
#288=ORIENTED_EDGE('',*,*,#200,.F.);
#289=PLANE('',#335);
#290=PLANE('',#336);
#291=PLANE('',#337);
#292=PLANE('',#338);
#293=PLANE('',#339);
#294=PLANE('',#340);
#295=PLANE('',#341);
#296=PLANE('',#342);
#297=PLANE('',#343);
#298=PLANE('',#344);
#299=PLANE('',#345);
#300=PLANE('',#346);
#301=PLANE('',#347);
#302=PLANE('',#348);
#303=PLANE('',#349);
#304=PLANE('',#350);
#305=ADVANCED_FACE('',(#17),#289,.F.);
#306=ADVANCED_FACE('',(#18),#290,.F.);
#307=ADVANCED_FACE('',(#19),#291,.F.);
#308=ADVANCED_FACE('',(#20),#292,.F.);
#309=ADVANCED_FACE('',(#21),#293,.T.);
#310=ADVANCED_FACE('',(#22,#15),#294,.T.);
#311=ADVANCED_FACE('',(#23),#295,.T.);
#312=ADVANCED_FACE('',(#24),#296,.T.);
#313=ADVANCED_FACE('',(#25),#297,.T.);
#314=ADVANCED_FACE('',(#26),#298,.T.);
#315=ADVANCED_FACE('',(#27),#299,.T.);
#316=ADVANCED_FACE('',(#28,#16),#300,.T.);
#317=ADVANCED_FACE('',(#29),#301,.T.);
#318=ADVANCED_FACE('',(#30),#302,.T.);
#319=ADVANCED_FACE('',(#31),#303,.T.);
#320=ADVANCED_FACE('',(#32),#304,.F.);
#321=CLOSED_SHELL('',(#305,#306,#307,#308,#309,#310,#311,#312,#313,#314,
#315,#316,#317,#318,#319,#320));
#322=DERIVED_UNIT_ELEMENT(#324,1.);
#323=DERIVED_UNIT_ELEMENT(#519,-3.);
#324=(
MASS_UNIT()
NAMED_UNIT(*)
SI_UNIT(.KILO.,.GRAM.)
);
#325=DERIVED_UNIT((#322,#323));
#326=MEASURE_REPRESENTATION_ITEM('density measure',
POSITIVE_RATIO_MEASURE(7850.),#325);
#327=PROPERTY_DEFINITION_REPRESENTATION(#332,#329);
#328=PROPERTY_DEFINITION_REPRESENTATION(#333,#330);
#329=REPRESENTATION('material name',(#331),#516);
#330=REPRESENTATION('density',(#326),#516);
#331=DESCRIPTIVE_REPRESENTATION_ITEM('Acero','Acero');
#332=PROPERTY_DEFINITION('material property','material name',#526);
#333=PROPERTY_DEFINITION('material property','density of part',#526);
#334=AXIS2_PLACEMENT_3D('',#427,#351,#352);
#335=AXIS2_PLACEMENT_3D('',#428,#353,#354);
#336=AXIS2_PLACEMENT_3D('',#437,#359,#360);
#337=AXIS2_PLACEMENT_3D('',#443,#364,#365);
#338=AXIS2_PLACEMENT_3D('',#449,#369,#370);
#339=AXIS2_PLACEMENT_3D('',#452,#373,#374);
#340=AXIS2_PLACEMENT_3D('',#461,#379,#380);
#341=AXIS2_PLACEMENT_3D('',#467,#384,#385);
#342=AXIS2_PLACEMENT_3D('',#473,#389,#390);
#343=AXIS2_PLACEMENT_3D('',#479,#394,#395);
#344=AXIS2_PLACEMENT_3D('',#485,#399,#400);
#345=AXIS2_PLACEMENT_3D('',#491,#404,#405);
#346=AXIS2_PLACEMENT_3D('',#497,#409,#410);
#347=AXIS2_PLACEMENT_3D('',#503,#414,#415);
#348=AXIS2_PLACEMENT_3D('',#509,#419,#420);
#349=AXIS2_PLACEMENT_3D('',#512,#423,#424);
#350=AXIS2_PLACEMENT_3D('',#513,#425,#426);
#351=DIRECTION('axis',(0.,0.,1.));
#352=DIRECTION('refdir',(1.,0.,0.));
#353=DIRECTION('center_axis',(1.,0.,0.));
#354=DIRECTION('ref_axis',(0.,0.,1.));
#355=DIRECTION('',(0.,0.,-1.));
#356=DIRECTION('',(0.,-1.,0.));
#357=DIRECTION('',(0.,0.,1.));
#358=DIRECTION('',(0.,-1.,0.));
#359=DIRECTION('center_axis',(0.,0.,-1.));
#360=DIRECTION('ref_axis',(1.,0.,0.));
#361=DIRECTION('',(-1.,0.,0.));
#362=DIRECTION('',(1.,-9.86864910777917E-17,0.));
#363=DIRECTION('',(0.,-1.,0.));
#364=DIRECTION('center_axis',(-1.,0.,1.26882631385732E-16));
#365=DIRECTION('ref_axis',(-1.26882631385732E-16,0.,-1.));
#366=DIRECTION('',(1.26882631385732E-16,0.,1.));
#367=DIRECTION('',(-1.26882631385732E-16,1.25216016701748E-32,-1.));
#368=DIRECTION('',(0.,-1.,0.));
#369=DIRECTION('center_axis',(0.,0.,1.));
#370=DIRECTION('ref_axis',(-1.,0.,0.));
#371=DIRECTION('',(1.,0.,0.));
#372=DIRECTION('',(-1.,9.86864910777917E-17,0.));
#373=DIRECTION('center_axis',(1.,1.77635683940025E-16,0.));
#374=DIRECTION('ref_axis',(-1.77635683940025E-16,1.,0.));
#375=DIRECTION('',(-1.77635683940025E-16,1.,0.));
#376=DIRECTION('',(0.,0.,1.));
#377=DIRECTION('',(-1.77635683940025E-16,1.,0.));
#378=DIRECTION('',(0.,0.,1.));
#379=DIRECTION('center_axis',(9.86864910777917E-17,1.,0.));
#380=DIRECTION('ref_axis',(-1.,9.86864910777917E-17,0.));
#381=DIRECTION('',(-1.,9.86864910777917E-17,0.));
#382=DIRECTION('',(-1.,9.86864910777917E-17,0.));
#383=DIRECTION('',(0.,0.,1.));
#384=DIRECTION('center_axis',(-1.,0.,0.));
#385=DIRECTION('ref_axis',(0.,-1.,0.));
#386=DIRECTION('',(0.,-1.,0.));
#387=DIRECTION('',(0.,-1.,0.));
#388=DIRECTION('',(0.,0.,1.));
#389=DIRECTION('center_axis',(0.,1.,0.));
#390=DIRECTION('ref_axis',(-1.,0.,0.));
#391=DIRECTION('',(-1.,0.,0.));
#392=DIRECTION('',(-1.,0.,0.));
#393=DIRECTION('',(0.,0.,1.));
#394=DIRECTION('center_axis',(1.,0.,0.));
#395=DIRECTION('ref_axis',(0.,1.,0.));
#396=DIRECTION('',(0.,1.,0.));
#397=DIRECTION('',(0.,1.,0.));
#398=DIRECTION('',(0.,0.,1.));
#399=DIRECTION('center_axis',(-1.26882631385732E-16,1.,0.));
#400=DIRECTION('ref_axis',(-1.,-1.26882631385732E-16,0.));
#401=DIRECTION('',(-1.,-1.26882631385732E-16,0.));
#402=DIRECTION('',(-1.,-1.26882631385732E-16,0.));
#403=DIRECTION('',(0.,0.,1.));
#404=DIRECTION('center_axis',(1.,0.,0.));
#405=DIRECTION('ref_axis',(0.,1.,0.));
#406=DIRECTION('',(0.,1.,0.));
#407=DIRECTION('',(0.,1.,0.));
#408=DIRECTION('',(0.,0.,1.));
#409=DIRECTION('center_axis',(0.,-1.,0.));
#410=DIRECTION('ref_axis',(1.,0.,0.));
#411=DIRECTION('',(1.,0.,0.));
#412=DIRECTION('',(1.,0.,0.));
#413=DIRECTION('',(0.,0.,1.));
#414=DIRECTION('center_axis',(-1.,0.,0.));
#415=DIRECTION('ref_axis',(0.,-1.,0.));
#416=DIRECTION('',(0.,-1.,0.));
#417=DIRECTION('',(0.,-1.,0.));
#418=DIRECTION('',(0.,0.,1.));
#419=DIRECTION('center_axis',(8.88178419700125E-16,1.,0.));
#420=DIRECTION('ref_axis',(-1.,8.88178419700125E-16,0.));
#421=DIRECTION('',(-1.,8.88178419700125E-16,0.));
#422=DIRECTION('',(-1.,8.88178419700125E-16,0.));
#423=DIRECTION('center_axis',(0.,0.,1.));
#424=DIRECTION('ref_axis',(1.,0.,0.));
#425=DIRECTION('center_axis',(0.,0.,1.));
#426=DIRECTION('ref_axis',(1.,0.,0.));
#427=CARTESIAN_POINT('',(0.,0.,0.));
#428=CARTESIAN_POINT('Origin',(91.25,40.,25.));
#429=CARTESIAN_POINT('',(91.25,0.,95.));
#430=CARTESIAN_POINT('',(91.25,0.,25.));
#431=CARTESIAN_POINT('',(91.25,0.,12.5));
#432=CARTESIAN_POINT('',(91.25,40.,95.));
#433=CARTESIAN_POINT('',(91.25,40.,95.));
#434=CARTESIAN_POINT('',(91.25,40.,25.));
#435=CARTESIAN_POINT('',(91.25,40.,12.5));
#436=CARTESIAN_POINT('',(91.25,40.,25.));
#437=CARTESIAN_POINT('Origin',(38.75,40.,25.));
#438=CARTESIAN_POINT('',(38.75,0.,25.));
#439=CARTESIAN_POINT('',(19.375,0.,25.));
#440=CARTESIAN_POINT('',(38.75,40.,25.));
#441=CARTESIAN_POINT('',(74.375,40.,25.));
#442=CARTESIAN_POINT('',(38.75,40.,25.));
#443=CARTESIAN_POINT('Origin',(38.75,40.,95.));
#444=CARTESIAN_POINT('',(38.75,0.,95.));
#445=CARTESIAN_POINT('',(38.75,0.,47.5));
#446=CARTESIAN_POINT('',(38.75,40.,95.));
#447=CARTESIAN_POINT('',(38.75,40.,47.5));
#448=CARTESIAN_POINT('',(38.75,40.,95.));
#449=CARTESIAN_POINT('Origin',(91.25,40.,95.));
#450=CARTESIAN_POINT('',(45.625,0.,95.));
#451=CARTESIAN_POINT('',(100.625,40.,95.));
#452=CARTESIAN_POINT('Origin',(20.,40.,0.));
#453=CARTESIAN_POINT('',(20.,40.,0.));
#454=CARTESIAN_POINT('',(20.,90.0000000000001,0.));
#455=CARTESIAN_POINT('',(20.,40.,0.));
#456=CARTESIAN_POINT('',(20.,90.0000000000001,120.));
#457=CARTESIAN_POINT('',(20.,90.0000000000001,0.));
#458=CARTESIAN_POINT('',(20.,40.,120.));
#459=CARTESIAN_POINT('',(20.,40.,120.));
#460=CARTESIAN_POINT('',(20.,40.,0.));
#461=CARTESIAN_POINT('Origin',(110.,40.,0.));
#462=CARTESIAN_POINT('',(110.,40.,0.));
#463=CARTESIAN_POINT('',(110.,40.,0.));
#464=CARTESIAN_POINT('',(110.,40.,120.));
#465=CARTESIAN_POINT('',(110.,40.,120.));
#466=CARTESIAN_POINT('',(110.,40.,0.));
#467=CARTESIAN_POINT('Origin',(110.,90.,0.));
#468=CARTESIAN_POINT('',(110.,90.,0.));
#469=CARTESIAN_POINT('',(110.,90.,0.));
#470=CARTESIAN_POINT('',(110.,90.,120.));
#471=CARTESIAN_POINT('',(110.,90.,120.));
#472=CARTESIAN_POINT('',(110.,90.,0.));
#473=CARTESIAN_POINT('Origin',(130.,90.,0.));
#474=CARTESIAN_POINT('',(130.,90.,0.));
#475=CARTESIAN_POINT('',(130.,90.,0.));
#476=CARTESIAN_POINT('',(130.,90.,120.));
#477=CARTESIAN_POINT('',(130.,90.,120.));
#478=CARTESIAN_POINT('',(130.,90.,0.));
#479=CARTESIAN_POINT('Origin',(130.,40.,0.));
#480=CARTESIAN_POINT('',(130.,40.,0.));
#481=CARTESIAN_POINT('',(130.,40.,0.));
#482=CARTESIAN_POINT('',(130.,40.,120.));
#483=CARTESIAN_POINT('',(130.,40.,120.));
#484=CARTESIAN_POINT('',(130.,40.,0.));
#485=CARTESIAN_POINT('Origin',(200.,40.,0.));
#486=CARTESIAN_POINT('',(200.,40.,0.));
#487=CARTESIAN_POINT('',(200.,40.,0.));
#488=CARTESIAN_POINT('',(200.,40.,120.));
#489=CARTESIAN_POINT('',(200.,40.,120.));
#490=CARTESIAN_POINT('',(200.,40.,0.));
#491=CARTESIAN_POINT('Origin',(200.,0.,0.));
#492=CARTESIAN_POINT('',(200.,0.,0.));
#493=CARTESIAN_POINT('',(200.,0.,0.));
#494=CARTESIAN_POINT('',(200.,0.,120.));
#495=CARTESIAN_POINT('',(200.,0.,120.));
#496=CARTESIAN_POINT('',(200.,0.,0.));
#497=CARTESIAN_POINT('Origin',(0.,0.,0.));
#498=CARTESIAN_POINT('',(0.,0.,0.));
#499=CARTESIAN_POINT('',(0.,0.,0.));
#500=CARTESIAN_POINT('',(0.,0.,120.));
#501=CARTESIAN_POINT('',(0.,0.,120.));
#502=CARTESIAN_POINT('',(0.,0.,0.));
#503=CARTESIAN_POINT('Origin',(0.,90.0000000000001,0.));
#504=CARTESIAN_POINT('',(0.,90.0000000000001,0.));
#505=CARTESIAN_POINT('',(0.,90.0000000000001,0.));
#506=CARTESIAN_POINT('',(0.,90.0000000000001,120.));
#507=CARTESIAN_POINT('',(0.,90.0000000000001,120.));
#508=CARTESIAN_POINT('',(0.,90.0000000000001,0.));
#509=CARTESIAN_POINT('Origin',(20.,90.0000000000001,0.));
#510=CARTESIAN_POINT('',(20.,90.0000000000001,0.));
#511=CARTESIAN_POINT('',(20.,90.0000000000001,120.));
#512=CARTESIAN_POINT('Origin',(100.,45.,120.));
#513=CARTESIAN_POINT('Origin',(100.,45.,0.));
#514=UNCERTAINTY_MEASURE_WITH_UNIT(LENGTH_MEASURE(0.01),#518,
'DISTANCE_ACCURACY_VALUE',
'Maximum model space distance between geometric entities at asserted c
onnectivities');
#515=UNCERTAINTY_MEASURE_WITH_UNIT(LENGTH_MEASURE(0.01),#518,
'DISTANCE_ACCURACY_VALUE',
'Maximum model space distance between geometric entities at asserted c
onnectivities');
#516=(
GEOMETRIC_REPRESENTATION_CONTEXT(3)
GLOBAL_UNCERTAINTY_ASSIGNED_CONTEXT((#514))
GLOBAL_UNIT_ASSIGNED_CONTEXT((#518,#520,#521))
REPRESENTATION_CONTEXT('','3D')
);
#517=(
GEOMETRIC_REPRESENTATION_CONTEXT(3)
GLOBAL_UNCERTAINTY_ASSIGNED_CONTEXT((#515))
GLOBAL_UNIT_ASSIGNED_CONTEXT((#518,#520,#521))
REPRESENTATION_CONTEXT('','3D')
);
#518=(
LENGTH_UNIT()
NAMED_UNIT(*)
SI_UNIT(.MILLI.,.METRE.)
);
#519=(
LENGTH_UNIT()
NAMED_UNIT(*)
SI_UNIT($,.METRE.)
);
#520=(
NAMED_UNIT(*)
PLANE_ANGLE_UNIT()
SI_UNIT($,.RADIAN.)
);
#521=(
NAMED_UNIT(*)
SI_UNIT($,.STERADIAN.)
SOLID_ANGLE_UNIT()
);
#522=SHAPE_DEFINITION_REPRESENTATION(#523,#524);
#523=PRODUCT_DEFINITION_SHAPE('',$,#526);
#524=SHAPE_REPRESENTATION('',(#334),#516);
#525=PRODUCT_DEFINITION_CONTEXT('part definition',#530,'design');
#526=PRODUCT_DEFINITION('2026-07-20-09-09-18-041','Sustipieza',#527,#525);
#527=PRODUCT_DEFINITION_FORMATION('',$,#532);
#528=PRODUCT_RELATED_PRODUCT_CATEGORY('Sustipieza','Sustipieza',(#532));
#529=APPLICATION_PROTOCOL_DEFINITION('international standard',
'automotive_design',2009,#530);
#530=APPLICATION_CONTEXT(
'Core Data for Automotive Mechanical Design Process');
#531=PRODUCT_CONTEXT('part definition',#530,'mechanical');
#532=PRODUCT('2026-07-20-09-09-18-041','Sustipieza',$,(#531));
#533=PRESENTATION_STYLE_ASSIGNMENT((#534));
#534=SURFACE_STYLE_USAGE(.BOTH.,#535);
#535=SURFACE_SIDE_STYLE('',(#536));
#536=SURFACE_STYLE_FILL_AREA(#537);
#537=FILL_AREA_STYLE('Acero - Satinado',(#538));
#538=FILL_AREA_STYLE_COLOUR('Acero - Satinado',#539);
#539=COLOUR_RGB('Acero - Satinado',0.627450980392157,0.627450980392157,
0.627450980392157);
ENDSEC;
END-ISO-10303-21;
